<svg width="330" height="330"
  xmlns="http://www.w3.org/2000/svg"
  xmlns:xlink="http://www.w3.org/1999/xlink" xml:space="preserve" overflow="hidden">
  <defs>
    <clipPath id="clip0">
      <rect x="550" y="-413" width="330" height="330"/>
    </clipPath>
  </defs>
  <g clip-path="url(#clip0)" transform="translate(-550 413)">
    <path d="M853.156-412.819C865.778-411.197 877.536-398.44 876.981-366.616 876.177-320.596 794.129-193.564 605.672-109.016 587.221-92.0186 563.371-73.2635 559.725-88.7951 556.078-104.327 583.865-116.343 596.92-117.808 656.214-172.171 724.423-317.233 677.438-349.325 656.745-363.459 554.651-308.829 572.415-226.24 587.89-154.292 680.063-263.898 641.555-309.47 688.863-279.529 638.863-198.243 592.544-195.469 546.226-192.694 526.124-268.512 614.424-340.241 695.743-406.299 842.41-327.053 617.925-124.841 728.49-184.333 832.638-250.271 835.847-364.858 808.679-387.295 832.118-415.523 853.156-412.819Z" fill="#DCC6BB" fill-rule="evenodd"/>
  </g>
</svg>