<svg width="660" height="660"
  xmlns="http://www.w3.org/2000/svg"
  xmlns:xlink="http://www.w3.org/1999/xlink" xml:space="preserve" overflow="hidden">
  <defs>
    <clipPath id="clip0">
      <rect x="2430" y="497" width="660" height="660"/>
    </clipPath>
  </defs>
  <g clip-path="url(#clip0)" transform="translate(-2430 -497)">
    <path d="M2836.22 1144.14C2831.15 1142.9 2824.74 1139.79 2820.52 1136.54 2795.69 1117.4 2800.11 1078.68 2828.63 1065.62 2834.79 1062.8 2839.13 1061.88 2846.29 1061.88 2853.45 1061.88 2857.79 1062.8 2863.95 1065.62 2885.5 1075.49 2894.49 1101.08 2883.86 1122.29 2878.42 1133.14 2867.17 1141.88 2855.49 1144.34 2850.89 1145.3 2840.51 1145.2 2836.22 1144.14ZM2746.6 1128.55C2720.35 1126.3 2693.71 1120.27 2670.95 1111.43L2664.11 1108.78 2667.72 1101.93C2675.75 1086.71 2678.57 1073.22 2677.3 1056.07 2677.01 1052.14 2676.85 1048.86 2676.95 1048.78 2677.04 1048.7 2680.56 1050.12 2684.76 1051.93 2704.51 1060.44 2725.34 1065.8 2746.94 1067.94 2760.41 1069.27 2785.68 1068.68 2796.26 1066.79L2798.59 1066.37 2797.44 1067.98C2786.03 1084.01 2782.93 1105 2789.28 1123.22 2790.18 1125.77 2790.73 1128.04 2790.51 1128.25 2790.08 1128.69 2751.3 1128.96 2746.6 1128.55ZM2584.15 1124.62C2559.18 1119.04 2540.46 1100.1 2535.45 1075.36 2533.9 1067.72 2534.38 1053.62 2536.43 1046.56 2542.68 1025.02 2558.83 1008.97 2580.6 1002.66 2585.08 1001.36 2587.39 1001.15 2596.9 1001.15 2606.41 1001.15 2608.72 1001.36 2613.21 1002.66 2635.12 1009.01 2651.13 1025.02 2657.48 1046.92 2658.78 1051.41 2659 1053.72 2659 1063.22 2659 1072.72 2658.78 1075.03 2657.48 1079.52 2651.17 1101.27 2635.16 1117.37 2613.57 1123.67 2607.1 1125.56 2590.71 1126.09 2584.15 1124.62ZM2905.03 1089.71C2905.03 1087.81 2901.7 1079.14 2899.26 1074.69 2896.16 1069.03 2890.69 1062.25 2886.01 1058.25 2880.97 1053.94 2872.27 1048.83 2867.01 1047.08L2862.63 1045.63 2870.24 1041.15C2882.71 1033.79 2892.49 1026.83 2902.14 1018.42L2907.1 1014.09 2912.5 1019.87C2924.13 1032.29 2939.93 1041.45 2957.2 1045.77 2959.04 1046.23 2959.9 1046.78 2959.69 1047.34 2958.81 1049.64 2938.43 1067.64 2927.18 1076.06 2920.2 1081.28 2906.14 1090.73 2905.35 1090.73 2905.17 1090.73 2905.03 1090.27 2905.03 1089.71ZM2746.94 1049.74C2725.62 1047.56 2702.69 1040.88 2683.16 1031.17 2670.48 1024.86 2666.92 1022.48 2664.35 1018.62 2656.87 1007.35 2646.09 997.825 2633.46 991.318 2625.81 987.376 2625.13 986.854 2620.7 981.519 2605.64 963.348 2592.91 939.417 2585.85 916.018 2581.45 901.413 2578.1 881.064 2578.1 868.855L2578.1 863.372 2582.97 861.536C2618.53 848.116 2642.96 818.024 2648.57 780.722 2649.52 774.385 2649.55 758.95 2648.62 752.828 2647.1 742.813 2643.91 732.304 2639.47 722.613 2638.95 721.49 2651.14 711.617 2662.02 704.345 2671.16 698.235 2681.83 692.147 2683.39 692.147 2683.78 692.147 2685.85 693.75 2687.99 695.709 2707 713.076 2732.84 724.004 2758.7 725.619 2791.02 727.637 2822.37 716.833 2845.49 695.709 2847.63 693.75 2849.7 692.147 2850.09 692.147 2853.33 692.147 2877.49 707.71 2887.91 716.512 2896.09 723.423 2907.81 735.383 2914.2 743.355 2918.62 748.87 2919.06 749.721 2920.69 755.944 2924.04 768.734 2930.38 780.281 2939.12 789.551 2943.31 793.989 2943.54 794.416 2946.33 803.05 2952.3 821.563 2954.69 835.953 2955.18 856.21L2955.53 870.973 2949.58 872.903C2923.07 881.505 2901.59 902.963 2892.66 929.782 2889.47 939.341 2888.2 947.439 2888.2 958.204 2888.2 971.375 2890.18 981.385 2895.14 993.387L2897.2 998.374 2893.56 1001.72C2887.06 1007.69 2878.02 1014.64 2869.45 1020.23 2844.49 1036.53 2815.25 1046.83 2785.63 1049.78 2777.64 1050.57 2754.85 1050.55 2746.94 1049.74ZM2832.13 976.21C2843.15 973.467 2853.63 964.838 2858.56 954.463 2861.99 947.234 2862.8 943.728 2862.8 936.06 2862.8 928.393 2861.99 924.887 2858.56 917.661 2853.59 907.198 2843.28 898.758 2831.85 895.799 2826.4 894.387 2817.17 894.387 2811.72 895.799 2800.3 898.758 2789.99 907.198 2785.02 917.661 2781.59 924.887 2780.78 928.393 2780.78 936.06 2780.78 943.728 2781.59 947.234 2785.02 954.463 2787.14 958.928 2788.79 961.203 2792.9 965.308 2803.65 976.055 2817.41 979.879 2832.13 976.21ZM2813.2 957.775C2808.81 956.091 2803.21 950.765 2800.94 946.127 2799.53 943.248 2799.3 941.815 2799.3 936.06 2799.3 927.921 2800.67 924.509 2806.11 919.178 2810.57 914.803 2815.3 912.911 2821.79 912.911 2828.27 912.911 2833 914.803 2837.46 919.178 2842.9 924.509 2844.28 927.921 2844.28 936.06 2844.28 941.815 2844.04 943.248 2842.64 946.127 2840.3 950.906 2834.77 956.096 2830.18 957.81 2825.22 959.664 2818.08 959.65 2813.2 957.775ZM2753.91 888.452C2767.44 887.292 2782.97 878.596 2791.91 867.176 2806.07 849.078 2808.5 825.186 2798.25 804.803 2784.01 776.48 2748.97 765.035 2720.42 779.382 2692.01 793.655 2680.54 828.642 2694.91 857.218 2703.67 874.638 2721.58 886.918 2740.8 888.687 2743.81 888.964 2747.02 889.107 2747.94 889.003 2748.87 888.902 2751.55 888.655 2753.91 888.452ZM2736.53 869.614C2722.33 865.716 2711.53 854.702 2707.93 840.449 2706.44 834.519 2706.95 823.622 2708.99 817.812 2712.9 806.722 2722.5 797.219 2733.72 793.344 2740.22 791.099 2752.99 791.099 2759.48 793.344 2770.86 797.272 2780.39 806.802 2784.32 818.17 2785.62 821.929 2785.87 824.024 2785.87 831.047 2785.87 838.069 2785.62 840.165 2784.32 843.923 2780.45 855.135 2770.96 864.722 2759.84 868.648 2754.33 870.594 2741.97 871.106 2736.53 869.614ZM2963.77 1028.56C2936.37 1022.76 2915.67 1003.07 2908.23 975.753 2906.95 971.049 2906.75 968.588 2906.75 958.204 2906.75 947.822 2906.95 945.359 2908.23 940.655 2915.73 913.126 2936.6 893.427 2964.24 887.795 2967.26 887.181 2972.8 886.741 2977.53 886.741 3010.42 886.741 3037.99 908.187 3046.83 940.655 3048.11 945.359 3048.32 947.822 3048.32 958.204 3048.32 968.588 3048.11 971.049 3046.83 975.753 3039.33 1003.28 3018.46 1022.98 2990.82 1028.61 2984.27 1029.95 2970.18 1029.92 2963.77 1028.56ZM2536.56 997.765C2517.91 966.413 2506.41 932.587 2501.21 893.787 2500.11 885.539 2499.01 855.205 2499.82 855.205 2500.06 855.205 2502.3 856.215 2504.78 857.451 2518.67 864.366 2532.28 867.36 2549.74 867.337L2559.98 867.323 2559.99 871.496C2560.01 880.331 2562.21 896.419 2565.05 908.559 2570.72 932.806 2579.98 954.444 2593.49 974.98 2595.91 978.671 2597.98 981.849 2598.08 982.045 2598.18 982.241 2596.06 982.481 2593.38 982.58 2575 983.261 2559.62 989.426 2543.38 1002.63L2540.73 1004.78 2536.56 997.765ZM3028.63 884.411C3014.48 874.532 2996.86 868.772 2980.08 868.539L2973.65 868.449 2973.58 858.302C2973.48 843.252 2972 830.358 2968.69 815.757 2967.92 812.332 2967.4 809.411 2967.54 809.268 2967.69 809.125 2970.33 809.739 2973.41 810.632 2976.49 811.524 2980.98 812.569 2983.39 812.954 2989.01 813.852 3001.63 813.852 3007.25 812.954 3012.95 812.043 3022.56 809.248 3025.98 807.504 3027.46 806.745 3028.8 806.244 3028.94 806.387 3029.39 806.835 3031.27 817.436 3032.66 827.311 3033.53 833.513 3034.12 842.502 3034.38 853.525 3034.76 869.845 3034.23 887.419 3033.35 887.405 3033.11 887.4 3030.99 886.053 3028.63 884.411ZM2533.8 848.107C2517.34 845.129 2502.29 837.176 2490.14 825.029 2474.11 809.008 2466 789.383 2466 766.631 2466 743.876 2474.11 724.251 2490.14 708.23 2506.17 692.208 2525.8 684.099 2548.57 684.099 2571.33 684.099 2590.96 692.208 2606.99 708.23 2623.02 724.251 2631.13 743.876 2631.13 766.631 2631.13 789.383 2623.02 809.008 2606.99 825.029 2594.63 837.384 2579.76 845.173 2562.89 848.123 2555.65 849.389 2540.84 849.383 2533.8 848.109ZM2983.03 794.458C2960.22 789.508 2942.42 771.615 2937.58 748.759 2936.33 742.843 2936.33 730.696 2937.58 724.779 2941.79 704.916 2955.96 688.479 2974.93 681.435 2987.17 676.892 3003.47 676.892 3015.71 681.435 3034.69 688.479 3048.85 704.916 3053.06 724.779 3054.31 730.696 3054.31 742.843 3053.06 748.759 3048.18 771.765 3030.33 789.609 3007.32 794.483 3001.57 795.701 2988.7 795.687 2983.03 794.458ZM2912.21 714.222C2899.69 701.734 2887.33 692.197 2871.39 682.725L2862.25 677.297 2865.23 672.812C2869.45 666.461 2876.37 652.015 2878.8 644.505 2881.01 637.693 2883.55 626.151 2883.55 622.959 2883.55 621.892 2883.86 621.02 2884.25 621.02 2885 621.02 2891.93 624.659 2900.67 629.64 2913.43 636.919 2929.56 648.233 2939.94 657.179 2946.2 662.582 2954.37 670.267 2954.37 670.761 2954.37 670.993 2951.96 672.981 2949 675.178 2935.64 685.113 2925.45 700.025 2921.1 715.991 2920.3 718.931 2919.6 721.366 2919.55 721.4 2919.5 721.435 2916.2 718.205 2912.21 714.222ZM2750.63 706.581C2743.18 705.306 2737.67 703.745 2730.16 700.786 2697.79 688.029 2674.04 658.524 2668.38 624.039 2667.11 616.269 2667.11 600.271 2668.38 592.501 2675.31 550.255 2708.7 516.877 2750.96 509.955 2758.74 508.682 2774.74 508.682 2782.52 509.955 2824.78 516.877 2858.17 550.255 2865.1 592.501 2866.37 600.271 2866.37 616.269 2865.1 624.039 2858.17 666.285 2824.78 699.663 2782.52 706.585 2775.14 707.794 2757.7 707.792 2750.63 706.581ZM2628.12 704.478C2625.92 701.11 2616.04 691.31 2610.66 687.143 2602.77 681.029 2592.6 675.283 2584.48 672.34 2582.64 671.671 2580.88 670.914 2580.58 670.658 2578.87 669.191 2605.65 647.122 2621.4 637.016 2630.23 631.354 2648.42 621.02 2649.57 621.02 2649.77 621.02 2649.93 621.892 2649.93 622.959 2649.93 626.151 2652.48 637.693 2654.68 644.505 2657.11 652.023 2664.04 666.463 2668.26 672.83L2671.25 677.334 2664.12 681.487C2652.59 688.2 2643.41 694.678 2631.16 704.746L2629.3 706.273Z" fill="#F0A9A9" fill-rule="evenodd"/>
  </g>
</svg>