<svg width="660" height="660"
  xmlns="http://www.w3.org/2000/svg"
  xmlns:xlink="http://www.w3.org/1999/xlink" xml:space="preserve" overflow="hidden">
  <defs>
    <clipPath id="clip0">
      <rect x="1343" y="185" width="660" height="660"/>
    </clipPath>
  </defs>
  <g clip-path="url(#clip0)" transform="translate(-1343 -185)">
    <path d="M1356.15 800.062C1358.92 795.414 1501.16 566.844 1501.55 566.417 1502.25 565.657 1614.84 747.105 1614.4 748.269 1614.19 748.811 1606.64 761.124 1597.62 775.628L1581.22 802 1468.11 802 1355 802ZM1601.44 800.062C1604.25 795.354 1794.67 489.366 1795.06 488.944 1795.36 488.619 1983.57 790.163 1990 801.255 1990.34 801.85 1951.25 802 1795.36 802L1600.29 802ZM1584.49 668.036C1562.51 632.701 1544.44 603.51 1544.33 603.168 1544.05 602.24 1663.02 411.503 1663.53 412.059 1664.55 413.156 1743.44 540.123 1743.45 540.668 1743.46 541.172 1625.97 730.523 1624.84 731.828 1624.62 732.076 1606.46 703.369 1584.49 668.036ZM1443.08 618.02C1437.61 603.865 1433.31 588.582 1430.79 574.342 1427.79 557.414 1427.49 553.536 1427.49 531.73 1427.49 509.924 1427.79 506.044 1430.79 489.118 1438.04 448.152 1457.13 408.223 1484.63 376.475 1493.21 366.576 1506.58 353.567 1515.25 346.697L1517.6 344.831 1517.6 356.93C1517.6 375.294 1519.44 387.051 1524.93 403.802 1535.93 437.419 1560 466.885 1590.73 484.37 1593.76 486.093 1596.24 487.703 1596.24 487.949 1596.24 488.194 1582.33 510.703 1565.34 537.968L1534.43 587.543 1521.3 566.456C1514.08 554.857 1507.69 544.938 1507.11 544.411 1504.43 542.002 1498.69 542.184 1496.31 544.751 1495.66 545.456 1484.22 563.599 1470.89 585.068 1457.56 606.538 1446.46 624.316 1446.23 624.576 1445.99 624.834 1444.58 621.884 1443.08 618.02ZM1845.98 539.029C1822.5 501.253 1802.55 469.406 1801.65 468.259 1798.66 464.453 1792.49 464.121 1789.57 467.61 1788.83 468.48 1780.47 481.717 1770.97 497.024 1761.47 512.332 1753.54 524.861 1753.33 524.865 1752.9 524.875 1730.19 488.651 1730.19 487.957 1730.19 487.707 1732.67 486.093 1735.7 484.37 1775.01 461.999 1801.86 421.747 1807.88 376.159 1808.83 369 1809.22 346.158 1808.44 344.11 1807.85 342.573 1808.57 342.877 1812.26 345.723 1821.3 352.683 1835 365.891 1844.17 376.475 1871.68 408.223 1890.76 448.152 1898.02 489.118 1901.01 506.044 1901.31 509.924 1901.31 531.73 1901.31 553.534 1901.02 557.401 1898.02 574.342 1895.88 586.439 1890.2 607.716 1889.11 607.716 1888.87 607.716 1869.46 576.806 1845.98 539.029ZM1597.53 469.652C1579.1 458.622 1563.77 443.565 1552.66 425.584 1529.32 387.823 1527.31 338.873 1547.46 298.926 1557.78 278.461 1575.33 259.468 1595.41 247.035 1633.13 223.677 1682.03 221.666 1721.93 241.831 1742.38 252.162 1761.35 269.731 1773.77 289.83 1797.1 327.591 1799.11 376.541 1778.97 416.488 1770.76 432.76 1756.28 450.09 1741.75 461.007 1735.54 465.674 1722.84 473.627 1721.61 473.619 1721.25 473.616 1709.57 455.322 1695.66 432.965 1681.74 410.61 1669.76 391.605 1669.03 390.732 1666.36 387.55 1660.07 387.541 1657.41 390.715 1656.67 391.597 1644.68 410.61 1630.77 432.965 1616.85 455.322 1605.17 473.614 1604.81 473.619 1604.46 473.62 1601.18 471.836 1597.53 469.652Z" fill="#793A80" fill-rule="evenodd"/>
  </g>
</svg>