<svg width="660" height="660"
  xmlns="http://www.w3.org/2000/svg"
  xmlns:xlink="http://www.w3.org/1999/xlink" xml:space="preserve" overflow="hidden">
  <defs>
    <clipPath id="clip0">
      <rect x="538" y="179" width="660" height="660"/>
    </clipPath>
  </defs>
  <g clip-path="url(#clip0)" transform="translate(-538 -179)">
    <path d="M747.56 814.2C748.307 813.21 772.478 779.947 801.273 740.282 830.069 700.616 853.677 668.162 853.74 668.162 853.801 668.162 855.705 668.551 857.97 669.025 860.324 669.516 864.837 669.885 868.501 669.885 872.163 669.885 876.676 669.516 879.03 669.025 881.295 668.551 883.199 668.162 883.26 668.162 883.322 668.162 906.932 700.616 935.726 740.282 964.522 779.947 988.693 813.21 989.439 814.2L990.798 816 868.501 816 746.204 816ZM765.958 758.036C757.654 753.849 745.001 745.805 736.108 739.056 691.746 705.394 661.39 656.105 651.865 602.273 649.084 586.555 648.804 582.937 648.8 562.683 648.797 545.582 648.942 542.28 650.032 534.598 651.415 524.847 653.346 514.767 655.258 507.313L656.537 502.331 704.338 502.053C740.672 501.843 752.423 501.613 753.322 501.097 753.974 500.722 755.155 499.645 755.948 498.701 757.669 496.653 757.9 493.019 756.482 490.273 755.984 489.308 745.501 470.958 733.185 449.498 720.872 428.038 710.697 410.091 710.575 409.617 710.202 408.167 725.524 394.267 736.936 385.702 756.195 371.248 777.943 359.971 800.728 352.623 811.58 349.122 814.763 348.333 815.384 348.988 815.658 349.275 825.009 365.331 836.165 384.668 863.011 431.201 862.789 430.832 864.617 431.915 866.625 433.102 870.375 433.102 872.383 431.915 874.209 430.833 873.962 431.245 900.842 384.668 912.002 365.331 921.366 349.22 921.653 348.867 922.041 348.387 923.175 348.505 926.155 349.335 963.325 359.7 993.099 376.711 1022.61 404.448L1027.2 408.755 1004.46 448.344C991.961 470.118 981.253 488.859 980.67 489.987 979.112 493.006 979.269 496.579 981.052 498.701 981.844 499.645 983.026 500.722 983.678 501.097 984.579 501.613 996.386 501.843 1032.94 502.053L1081.02 502.331 1082.29 507.313C1084.21 514.767 1086.14 524.847 1087.52 534.598 1088.61 542.28 1088.76 545.582 1088.75 562.683 1088.75 582.937 1088.47 586.555 1085.69 602.273 1074.63 664.784 1035.92 720.234 980.318 753.213 973.74 757.115 968.463 759.656 967.992 759.149 965.658 756.643 933.218 711.102 933.554 710.807 933.803 710.59 935.996 708.915 938.428 707.084 963.671 688.077 979.887 660.505 984.345 629.018 985.453 621.192 985.453 605.501 984.345 597.674 978.836 558.759 955.015 525.625 920.186 508.429 908.629 502.724 896.998 499.135 884.147 497.31 876.332 496.2 860.668 496.2 852.853 497.31 814.003 502.829 780.922 526.689 763.756 561.576 758.059 573.152 754.477 584.8 752.655 597.674 751.547 605.501 751.547 621.192 752.655 629.018 757.109 660.475 773.358 688.117 798.532 707.055 800.987 708.901 803.198 710.59 803.445 710.807 803.78 711.1 771.148 756.917 769.078 759.06 768.883 759.264 767.478 758.803 765.958 758.036ZM807.379 694.939C787.67 680.165 773.69 657.892 768.332 632.726 767.243 627.604 767.095 625.295 767.095 613.346 767.095 601.397 767.243 599.088 768.332 593.967 775.06 562.365 794.788 536.351 822.653 522.334 831.238 518.016 839.753 515.022 849.153 513.014 854.265 511.921 856.571 511.773 868.501 511.773 880.428 511.773 882.735 511.921 887.847 513.014 919.398 519.753 945.368 539.512 959.361 567.423 963.673 576.022 966.663 584.551 968.668 593.967 969.757 599.088 969.905 601.397 969.905 613.346 969.905 625.295 969.757 627.604 968.668 632.726 966.663 642.142 963.673 650.671 959.361 659.27 954.421 669.123 948.458 677.346 940.424 685.376 934.79 691.006 925.165 698.804 924.236 698.49 923.668 698.298 897.785 662.711 897.832 662.186 897.851 661.971 899.754 660.424 902.058 658.749 922.354 644.003 930.066 615.318 920.116 591.578 909.262 565.681 880.278 551.699 853.297 559.341 830.995 565.66 814.611 585.502 812.806 608.384 811.212 628.6 819.546 647.565 834.941 658.749 837.246 660.424 839.148 661.971 839.167 662.186 839.215 662.711 813.332 698.298 812.764 698.49 812.519 698.572 810.096 696.975 807.379 694.939ZM859.271 654.04C854.378 652.976 847.266 649.455 842.962 645.968 822.352 629.279 822.408 597.781 843.072 581.167 847.41 577.68 854.462 574.257 859.526 573.182 864.296 572.169 872.704 572.169 877.474 573.182 885.743 574.937 894.756 580.617 900.392 587.625 914.678 605.388 911.765 631.74 893.927 646.08 889.589 649.567 882.538 652.989 877.474 654.064 872.86 655.043 863.826 655.031 859.271 654.04ZM553.008 485.76C553.382 485.08 557.518 477.896 562.198 469.797L570.708 455.069 573.254 456.07C581.155 459.18 595.177 460.137 603.583 458.141 615.65 455.274 624.934 450.015 633.041 441.454 640.281 433.808 644.703 425.472 647.183 414.79 648.424 409.448 648.587 396.52 647.471 391.867 644.49 379.434 639.828 370.888 631.506 362.6 628.95 360.055 626.974 357.688 627.115 357.34 627.693 355.908 644.538 327.012 644.852 326.914 645.04 326.856 665.787 362.687 690.957 406.539 716.127 450.392 736.583 486.314 736.414 486.365 736.245 486.417 694.757 486.578 644.217 486.727L552.327 486.995ZM1069.98 486.552 1000.31 486.272 1046.06 406.539C1071.22 362.687 1091.96 326.856 1092.15 326.914 1092.46 327.012 1109.31 355.908 1109.89 357.34 1110.03 357.688 1108.05 360.055 1105.49 362.6 1097.17 370.888 1092.51 379.434 1089.53 391.867 1088.41 396.52 1088.57 409.448 1089.82 414.79 1092.3 425.472 1096.72 433.808 1103.96 441.454 1112.07 450.015 1121.35 455.274 1133.42 458.141 1141.82 460.137 1155.84 459.18 1163.75 456.07L1166.29 455.069 1174.8 469.797C1179.48 477.896 1183.63 485.103 1184.02 485.813L1184.73 487.104 1162.19 486.969C1149.79 486.894 1108.29 486.706 1069.98 486.552ZM582.373 442.901C567.582 439.124 556.37 428.07 552.236 413.184 550.713 407.7 550.58 398.995 551.935 393.401 555.479 378.77 566.707 367.162 581.358 362.986 586.945 361.393 596.571 361.281 602.057 362.743 616.853 366.689 628.247 378.216 631.985 393.022 633.6 399.419 633.248 409.619 631.208 415.504 626.666 428.61 617.003 438.106 603.991 442.252 598.537 443.989 587.89 444.309 582.373 442.901ZM1137.2 443.312C1122.58 440.44 1110.83 430.034 1105.79 415.504 1103.75 409.609 1103.4 399.421 1105.02 393.005 1108.07 380.915 1115.9 371.212 1126.93 365.851 1133.38 362.714 1137.44 361.79 1144.89 361.76 1149.89 361.74 1152.19 362.002 1155.64 362.986 1170.29 367.162 1181.52 378.77 1185.07 393.401 1186.42 398.995 1186.29 407.7 1184.76 413.184 1179.61 431.734 1163.52 444.075 1144.78 443.854 1141.96 443.82 1138.54 443.576 1137.2 443.312ZM823.175 332.206C798.419 289.343 777.696 253.463 777.12 252.474L776.075 250.674 794.522 250.674 812.969 250.674 813.659 254.313C817.173 272.864 831.548 289.496 849.482 295.756 861.662 300.009 875.338 300.009 887.518 295.756 905.452 289.496 919.829 272.864 923.341 254.313L924.031 250.674 942.478 250.674 960.925 250.674 959.88 252.474C959.304 253.463 938.58 289.343 913.825 332.206 889.069 375.069 868.674 410.139 868.501 410.139 868.326 410.139 847.931 375.069 823.175 332.206ZM859.118 283.031C851.414 281.359 842.018 275.539 836.931 269.29 833.362 264.908 829.444 256.975 828.42 252.058 827.382 247.077 827.388 238.729 828.431 233.786 830.109 225.839 835.825 216.488 842.175 211.301 846.552 207.727 854.472 203.803 859.38 202.777 864.334 201.741 872.668 201.741 877.622 202.777 882.53 203.803 890.45 207.727 894.824 211.301 901.175 216.488 906.891 225.839 908.568 233.786 909.614 238.729 909.617 247.077 908.58 252.058 907.556 256.975 903.638 264.908 900.071 269.29 894.891 275.651 885.555 281.376 877.622 283.057 872.82 284.075 863.866 284.062 859.118 283.031Z" fill="#66A898" fill-rule="evenodd"/>
  </g>
</svg>