<svg width="248" height="179"
  xmlns="http://www.w3.org/2000/svg"
  xmlns:xlink="http://www.w3.org/1999/xlink" xml:space="preserve" overflow="hidden">
  <defs>
    <clipPath id="clip0">
      <rect x="2950" y="2029" width="248" height="179"/>
    </clipPath>
  </defs>
  <g clip-path="url(#clip0)" transform="translate(-2950 -2029)">
    <path d="M2974.11 2063C2974.54 2062.98 2974.97 2063.04 2975.4 2063.18 3051.08 2088.63 3038.34 2097.31 3074 2133.38 3109.66 2097.31 3096.92 2088.63 3172.6 2063.18 3174.31 2062.61 3176.17 2063.44 3176.88 2065.09 3189.32 2094.05 3186.32 2115.64 3147.9 2126.18 3162.68 2126.08 3178.2 2127.89 3194.9 2129.56 3194.9 2129.56 3194.91 2129.56 3194.91 2129.56 3196.81 2129.76 3198.18 2131.46 3197.98 2133.34 3195.73 2154.63 3173.02 2185.21 3120.62 2168.52 3121.67 2170.88 3122.29 2173.38 3122.29 2176.04 3122.29 2194.47 3086.67 2205.05 3076.62 2207.67 3074.9 2208.11 3073.1 2208.11 3071.38 2207.67 3061.33 2205.05 3025.71 2194.47 3025.71 2176.04 3025.73 2173.44 3026.29 2170.88 3027.38 2168.51 2974.97 2185.21 2952.26 2154.62 2950.02 2133.33 2950.02 2133.33 2950.02 2133.32 2950.02 2133.32 2949.83 2131.43 2951.21 2129.75 2953.1 2129.56 2969.8 2127.89 2985.33 2126.08 3000.1 2126.18 2961.68 2115.63 2958.68 2094.04 2971.12 2065.08 2971.65 2063.84 2972.83 2063.07 2974.11 2063Z" fill="#B770BE" fill-rule="evenodd"/>
    <path d="M3103.71 2029.02C3104.53 2028.93 3105.38 2029.15 3106.09 2029.67 3112.01 2034.03 3126 2047.5 3126 2077.29 3126 2106.43 3110.89 2126 3092.24 2126 3073.62 2126 3077.25 2106.03 3077.25 2076.88 3077.25 2058.67 3095.38 2036.96 3101.5 2030.14 3102.09 2029.48 3102.89 2029.1 3103.71 2029.02ZM3043.29 2029.02C3044.11 2029.1 3044.91 2029.48 3045.5 2030.14 3051.62 2036.96 3069.75 2058.67 3069.75 2076.88 3069.75 2106.03 3073.38 2126 3054.76 2126 3036.11 2126 3021 2106.43 3021 2077.29 3021 2047.5 3034.99 2034.03 3040.91 2029.67 3041.62 2029.15 3042.47 2028.93 3043.29 2029.02Z" fill="#9B4AA4" fill-rule="evenodd"/>
    <path d="M3074.01 2036C3074.61 2036 3075.21 2036.16 3075.75 2036.47 3082.16 2040.22 3104.15 2054.91 3104.15 2080.37 3104.15 2080.53 3104.12 2080.68 3104.12 2080.84L3107.06 2080.85 3129.58 2046.48C3129.85 2046.06 3130.21 2045.69 3130.63 2045.41 3132.4 2044.2 3134.81 2044.66 3136.01 2046.43 3145.8 2060.88 3152.85 2078.8 3148.87 2098.2 3141.28 2135.07 3108.34 2153.22 3074.01 2145.08 3039.67 2153.22 3006.72 2135.07 2999.14 2098.2 2995.14 2078.81 3002.2 2060.89 3011.99 2046.44 3012.27 2046.02 3012.64 2045.66 3013.06 2045.38 3014.84 2044.2 3017.24 2044.7 3018.42 2046.48L3040.94 2080.85 3043.89 2080.84C3043.89 2080.68 3043.85 2080.53 3043.85 2080.37 3043.85 2054.91 3065.85 2040.22 3072.27 2036.47 3072.81 2036.16 3073.41 2036 3074.01 2036Z" fill="#793A80" fill-rule="evenodd"/>
    <path d="M3036 2085 3111 2085 3093.15 2137 3053.85 2137Z" fill="#F4900C" fill-rule="evenodd"/>
    <path d="M3073.5 2073C3094.21 2073 3111 2078.15 3111 2084.5 3111 2090.85 3094.21 2096 3073.5 2096 3052.79 2096 3036 2090.85 3036 2084.5 3036 2078.15 3052.79 2073 3073.5 2073Z" fill="#FFDC5D" fill-rule="evenodd"/>
    <path d="M3074.01 2081C3074.62 2081 3075.24 2081.17 3075.79 2081.5 3082.24 2085.44 3104 2100.68 3104 2127.07 3104 2150.96 3090.57 2167 3074.01 2167 3057.43 2167 3044 2150.96 3044 2127.06 3044 2100.68 3065.77 2085.43 3072.23 2081.5 3072.77 2081.17 3073.39 2081 3074.01 2081Z" fill="#793A80" fill-rule="evenodd"/>
    <path d="M3166.56 2085.01C3168.46 2085.01 3170 2086.58 3170 2088.52 3169.86 2105.56 3163.15 2166.99 3074.01 2167L3073.99 2167C2984.85 2166.99 2978.14 2105.56 2978 2088.52 2978 2088.22 2978.03 2087.93 2978.1 2087.64 2978.55 2085.78 2980.4 2084.64 2982.24 2085.1 3000.55 2089.58 3073.77 2110.97 3074.01 2166.74 3074.24 2110.97 3147.46 2089.58 3165.77 2085.1 3166.03 2085.04 3166.29 2085.01 3166.56 2085.01Z" fill="#9B4AA4" fill-rule="evenodd"/>
    <path d="M3043.69 2029.02C3044.52 2029.1 3045.31 2029.48 3045.9 2030.14 3047.44 2031.84 3049.73 2034.47 3052.3 2037.75L3058.92 2047.14 3065.14 2041.28C3068.1 2039 3070.67 2037.38 3072.28 2036.45 3072.81 2036.14 3073.41 2035.99 3074.01 2035.99 3074.61 2035.99 3075.21 2036.14 3075.75 2036.45 3077.35 2037.38 3079.92 2039 3082.88 2041.28L3089.09 2047.13 3095.7 2037.75C3098.27 2034.47 3100.56 2031.84 3102.1 2030.14 3102.69 2029.48 3103.48 2029.1 3104.31 2029.02 3105.13 2028.93 3105.98 2029.14 3106.7 2029.67 3109.67 2031.85 3114.66 2036.3 3118.91 2043.93L3123.48 2055.55 3129.49 2046.41C3129.77 2045.99 3130.13 2045.63 3130.54 2045.34 3132.31 2044.14 3134.71 2044.6 3135.91 2046.36 3140.8 2053.55 3145 2061.59 3147.49 2070.25L3147.76 2071.82 3148.1 2071.67C3155.06 2068.92 3163.14 2065.99 3172.6 2062.8 3174.31 2062.23 3176.17 2063.06 3176.88 2064.71 3186.21 2086.49 3186.86 2104.11 3170.39 2116.02L3164.27 2118.73 3163.6 2120.65 3160.16 2126.52 3170.68 2127C3178.5 2127.65 3186.55 2128.52 3194.9 2129.36 3194.9 2129.36 3194.91 2129.36 3194.91 2129.36 3196.81 2129.56 3198.18 2131.25 3197.98 2133.15 3195.73 2154.49 3173.02 2185.15 3120.62 2168.42 3121.67 2170.78 3122.29 2173.29 3122.29 2175.95 3122.29 2194.43 3086.67 2205.05 3076.62 2207.67 3074.9 2208.11 3073.1 2208.11 3071.38 2207.67 3061.33 2205.05 3025.71 2194.43 3025.71 2175.95 3025.73 2173.35 3026.29 2170.78 3027.38 2168.41 2974.97 2185.15 2952.26 2154.48 2950.02 2133.14 2950.02 2133.13 2950.02 2133.13 2950.02 2133.12 2949.83 2131.23 2951.21 2129.54 2953.1 2129.35 2961.45 2128.51 2969.51 2127.64 2977.32 2126.99L2987.84 2126.52 2984.4 2120.65 2983.73 2118.72 2977.61 2116.01C2961.14 2104.1 2961.79 2086.48 2971.12 2064.7 2971.65 2063.47 2972.83 2062.69 2974.11 2062.62 2974.54 2062.6 2974.97 2062.66 2975.4 2062.8 2984.86 2065.99 2992.94 2068.92 2999.9 2071.67L3000.24 2071.82 3000.51 2070.26C3003 2061.6 3007.2 2053.55 3012.09 2046.37 3012.37 2045.95 3012.74 2045.59 3013.16 2045.31 3014.94 2044.14 3017.34 2044.63 3018.51 2046.41L3024.52 2055.54 3029.09 2043.93C3033.34 2036.3 3038.33 2031.85 3041.3 2029.67 3042.02 2029.14 3042.87 2028.93 3043.69 2029.02Z" fill="#FFFFFF" fill-rule="evenodd" fill-opacity="0.501961"/>
  </g>
</svg>