<svg width="248" height="179"
  xmlns="http://www.w3.org/2000/svg"
  xmlns:xlink="http://www.w3.org/1999/xlink" xml:space="preserve" overflow="hidden">
  <defs>
    <clipPath id="clip0">
      <rect x="1921" y="1893" width="248" height="179"/>
    </clipPath>
  </defs>
  <g clip-path="url(#clip0)" transform="translate(-1921 -1893)">
    <path d="M1945.11 1926C1945.54 1925.98 1945.97 1926.04 1946.4 1926.18 2022.08 1951.81 2009.34 1960.55 2045 1996.86 2080.66 1960.55 2067.92 1951.8 2143.6 1926.18 2145.31 1925.61 2147.17 1926.44 2147.88 1928.1 2160.32 1957.26 2157.32 1979 2118.9 1989.62 2133.68 1989.52 2149.2 1991.34 2165.9 1993.02 2165.9 1993.02 2165.91 1993.02 2165.91 1993.02 2167.81 1993.22 2169.18 1994.93 2168.98 1996.83 2166.73 2018.26 2144.02 2049.06 2091.62 2032.25 2092.67 2034.62 2093.29 2037.14 2093.29 2039.82 2093.29 2058.37 2057.67 2069.03 2047.62 2071.67 2045.9 2072.11 2044.1 2072.11 2042.38 2071.67 2032.33 2069.03 1996.71 2058.37 1996.71 2039.82 1996.73 2037.2 1997.29 2034.62 1998.38 2032.24 1945.97 2049.05 1923.26 2018.26 1921.02 1996.82 1921.02 1996.81 1921.02 1996.81 1921.02 1996.8 1920.83 1994.9 1922.21 1993.21 1924.1 1993.02 1940.8 1991.33 1956.33 1989.52 1971.1 1989.61 1932.68 1978.99 1929.68 1957.26 1942.12 1928.09 1942.65 1926.85 1943.83 1926.07 1945.11 1926Z" fill="#B770BE" fill-rule="evenodd"/>
    <path d="M2074.71 1893.02C2075.53 1892.93 2076.38 1893.14 2077.09 1893.66 2083.01 1897.98 2097 1911.31 2097 1940.79 2097 1969.64 2081.89 1989 2063.24 1989 2044.62 1989 2048.25 1969.24 2048.25 1940.39 2048.25 1922.36 2066.38 1900.88 2072.5 1894.13 2073.09 1893.48 2073.89 1893.1 2074.71 1893.02ZM2014.29 1893.02C2015.11 1893.1 2015.91 1893.48 2016.5 1894.13 2022.62 1900.88 2040.75 1922.36 2040.75 1940.39 2040.75 1969.24 2044.38 1989 2025.76 1989 2007.11 1989 1992 1969.64 1992 1940.79 1992 1911.31 2005.99 1897.98 2011.91 1893.66 2012.62 1893.14 2013.47 1892.93 2014.29 1893.02Z" fill="#9B4AA4" fill-rule="evenodd"/>
    <path d="M2045.01 1900C2045.61 1900 2046.21 1900.15 2046.75 1900.46 2053.16 1904.18 2075.15 1918.74 2075.15 1943.97 2075.15 1944.13 2075.12 1944.28 2075.12 1944.43L2078.06 1944.44 2100.58 1910.39C2100.85 1909.97 2101.21 1909.61 2101.63 1909.32 2103.4 1908.13 2105.81 1908.59 2107.01 1910.34 2116.8 1924.66 2123.85 1942.42 2119.87 1961.64 2112.28 1998.18 2079.34 2016.16 2045.01 2008.1 2010.67 2016.16 1977.72 1998.17 1970.14 1961.64 1966.14 1942.42 1973.2 1924.67 1982.99 1910.35 1983.27 1909.93 1983.64 1909.57 1984.06 1909.3 1985.84 1908.13 1988.24 1908.62 1989.42 1910.39L2011.94 1944.44 2014.89 1944.43C2014.89 1944.28 2014.85 1944.13 2014.85 1943.97 2014.85 1918.74 2036.85 1904.18 2043.27 1900.46 2043.81 1900.15 2044.41 1900 2045.01 1900Z" fill="#793A80" fill-rule="evenodd"/>
    <path d="M2007 1948 2082 1948 2064.15 2000 2024.85 2000Z" fill="#F4900C" fill-rule="evenodd"/>
    <path d="M2044.5 1937C2065.21 1937 2082 1941.92 2082 1948 2082 1954.08 2065.21 1959 2044.5 1959 2023.79 1959 2007 1954.08 2007 1948 2007 1941.92 2023.79 1937 2044.5 1937Z" fill="#FFDC5D" fill-rule="evenodd"/>
    <path d="M2045.01 1945C2045.62 1945 2046.24 1945.16 2046.79 1945.49 2053.24 1949.39 2075 1964.45 2075 1990.53 2075 2014.14 2061.57 2030 2045.01 2030 2028.43 2030 2015 2014.14 2015 1990.53 2015 1964.45 2036.77 1949.38 2043.23 1945.49 2043.77 1945.16 2044.39 1945 2045.01 1945Z" fill="#793A80" fill-rule="evenodd"/>
    <path d="M2137.54 1949.01C2139.46 1949.01 2141 1950.56 2141 1952.47 2140.85 1969.31 2134.11 2029.99 2044.51 2030L2044.49 2030C1954.89 2029.99 1948.15 1969.31 1948 1952.47 1948 1952.18 1948.03 1951.89 1948.1 1951.61 1948.55 1949.77 1950.42 1948.65 1952.26 1949.1 1970.66 1953.52 2044.27 1974.66 2044.51 2029.74 2044.74 1974.66 2118.34 1953.52 2136.75 1949.1 2137.01 1949.04 2137.27 1949.01 2137.54 1949.01Z" fill="#9B4AA4" fill-rule="evenodd"/>
  </g>
</svg>