<svg width="247" height="179"
  xmlns="http://www.w3.org/2000/svg"
  xmlns:xlink="http://www.w3.org/1999/xlink" xml:space="preserve" overflow="hidden">
  <defs>
    <clipPath id="clip0">
      <rect x="2595" y="2029" width="247" height="179"/>
    </clipPath>
  </defs>
  <g clip-path="url(#clip0)" transform="translate(-2595 -2029)">
    <path d="M2619.01 2063C2619.44 2062.98 2619.87 2063.04 2620.3 2063.18 2695.68 2088.63 2682.98 2097.31 2718.5 2133.38 2754.02 2097.31 2741.32 2088.63 2816.7 2063.18 2818.4 2062.61 2820.26 2063.44 2820.96 2065.09 2833.35 2094.05 2830.37 2115.64 2792.1 2126.18 2806.82 2126.08 2822.28 2127.89 2838.91 2129.56 2838.92 2129.56 2838.92 2129.56 2838.93 2129.56 2840.81 2129.76 2842.18 2131.46 2841.98 2133.34 2839.74 2154.63 2817.12 2185.21 2764.94 2168.52 2765.98 2170.88 2766.59 2173.38 2766.59 2176.04 2766.59 2194.47 2731.11 2205.05 2721.11 2207.67 2719.4 2208.11 2717.6 2208.11 2715.89 2207.67 2705.89 2205.05 2670.41 2194.47 2670.41 2176.04 2670.42 2173.44 2670.99 2170.88 2672.06 2168.51 2619.87 2185.21 2597.25 2154.62 2595.02 2133.33 2595.02 2133.33 2595.02 2133.32 2595.02 2133.32 2594.83 2131.43 2596.2 2129.75 2598.09 2129.56 2614.72 2127.89 2630.19 2126.08 2644.9 2126.18 2606.63 2115.63 2603.64 2094.04 2616.04 2065.08 2616.57 2063.84 2617.74 2063.07 2619.01 2063Z" fill="#A2CAC0" fill-rule="evenodd"/>
    <path d="M2748.71 2029.02C2749.53 2028.93 2750.38 2029.15 2751.09 2029.67 2757.01 2034.03 2771 2047.5 2771 2077.29 2771 2106.43 2755.89 2126 2737.24 2126 2718.62 2126 2722.25 2106.03 2722.25 2076.88 2722.25 2058.67 2740.38 2036.96 2746.5 2030.14 2747.09 2029.48 2747.89 2029.1 2748.71 2029.02ZM2688.29 2029.02C2689.11 2029.1 2689.91 2029.48 2690.5 2030.14 2696.62 2036.96 2714.75 2058.67 2714.75 2076.88 2714.75 2106.03 2718.38 2126 2699.76 2126 2681.11 2126 2666 2106.43 2666 2077.29 2666 2047.5 2679.99 2034.03 2685.91 2029.67 2686.62 2029.15 2687.47 2028.93 2688.29 2029.02Z" fill="#80B6A9" fill-rule="evenodd"/>
    <path d="M2718.51 2036C2719.1 2036 2719.7 2036.16 2720.23 2036.47 2726.61 2040.22 2748.45 2054.91 2748.45 2080.37 2748.45 2080.53 2748.42 2080.68 2748.42 2080.84L2751.34 2080.85 2773.71 2046.48C2773.99 2046.06 2774.34 2045.69 2774.76 2045.41 2776.52 2044.2 2778.91 2044.66 2780.1 2046.43 2789.83 2060.88 2796.83 2078.8 2792.87 2098.2 2785.34 2135.07 2752.61 2153.22 2718.51 2145.08 2684.39 2153.22 2651.67 2135.07 2644.13 2098.2 2640.16 2078.81 2647.17 2060.89 2656.9 2046.44 2657.18 2046.02 2657.54 2045.66 2657.96 2045.38 2659.73 2044.2 2662.12 2044.7 2663.29 2046.48L2685.66 2080.85 2688.59 2080.84C2688.59 2080.68 2688.55 2080.53 2688.55 2080.37 2688.55 2054.91 2710.41 2040.22 2716.78 2036.47 2717.32 2036.16 2717.91 2036 2718.51 2036Z" fill="#66A898" fill-rule="evenodd"/>
    <path d="M2681 2085 2756 2085 2738.15 2137 2698.85 2137Z" fill="#F4900C" fill-rule="evenodd"/>
    <path d="M2718.5 2073C2739.21 2073 2756 2078.15 2756 2084.5 2756 2090.85 2739.21 2096 2718.5 2096 2697.79 2096 2681 2090.85 2681 2084.5 2681 2078.15 2697.79 2073 2718.5 2073Z" fill="#FFDC5D" fill-rule="evenodd"/>
    <path d="M2718.01 2081C2718.62 2081 2719.24 2081.17 2719.79 2081.5 2726.24 2085.44 2748 2100.68 2748 2127.07 2748 2150.96 2734.57 2167 2718.01 2167 2701.43 2167 2688 2150.96 2688 2127.06 2688 2100.68 2709.77 2085.43 2716.23 2081.5 2716.77 2081.17 2717.39 2081 2718.01 2081Z" fill="#66A898" fill-rule="evenodd"/>
    <path d="M2811.54 2085.01C2813.46 2085.01 2815 2086.58 2815 2088.52 2814.86 2105.56 2808.11 2166.99 2718.51 2167L2718.49 2167C2628.89 2166.99 2622.15 2105.56 2622 2088.52 2622 2088.22 2622.03 2087.93 2622.1 2087.64 2622.55 2085.78 2624.42 2084.64 2626.26 2085.1 2644.66 2089.58 2718.27 2110.97 2718.51 2166.74 2718.74 2110.97 2792.34 2089.58 2810.75 2085.1 2811.01 2085.04 2811.27 2085.01 2811.54 2085.01Z" fill="#80B6A9" fill-rule="evenodd"/>
    <path d="M2688.32 2029.02C2689.14 2029.1 2689.93 2029.48 2690.52 2030.14 2692.05 2031.84 2694.33 2034.47 2696.89 2037.75L2703.48 2047.14 2709.67 2041.28C2712.62 2039 2715.19 2037.38 2716.78 2036.45 2717.32 2036.14 2717.91 2035.99 2718.51 2035.99 2719.11 2035.99 2719.7 2036.14 2720.24 2036.45 2721.83 2037.38 2724.4 2039 2727.34 2041.28L2733.53 2047.13 2740.11 2037.75C2742.67 2034.47 2744.95 2031.84 2746.48 2030.14 2747.07 2029.48 2747.86 2029.1 2748.68 2029.02 2749.5 2028.93 2750.35 2029.14 2751.07 2029.67 2754.02 2031.85 2759 2036.3 2763.23 2043.93L2767.78 2055.55 2773.77 2046.41C2774.04 2045.99 2774.4 2045.63 2774.82 2045.34 2776.57 2044.14 2778.97 2044.6 2780.16 2046.36 2785.03 2053.55 2789.22 2061.59 2791.69 2070.25L2791.96 2071.82 2792.3 2071.67C2799.24 2068.92 2807.28 2065.99 2816.71 2062.8 2818.4 2062.23 2820.26 2063.06 2820.96 2064.71 2830.26 2086.49 2830.9 2104.11 2814.5 2116.02L2808.41 2118.73 2807.74 2120.65 2804.31 2126.52 2814.79 2127C2822.57 2127.65 2830.6 2128.52 2838.91 2129.36 2838.92 2129.36 2838.92 2129.36 2838.93 2129.36 2840.81 2129.56 2842.18 2131.25 2841.98 2133.15 2839.74 2154.49 2817.12 2185.15 2764.94 2168.42 2765.98 2170.78 2766.59 2173.29 2766.59 2175.95 2766.59 2194.43 2731.11 2205.05 2721.11 2207.67 2719.4 2208.11 2717.6 2208.11 2715.89 2207.67 2705.89 2205.05 2670.41 2194.43 2670.41 2175.95 2670.42 2173.35 2670.99 2170.78 2672.06 2168.41 2619.87 2185.15 2597.25 2154.48 2595.02 2133.14 2595.02 2133.13 2595.02 2133.13 2595.02 2133.12 2594.83 2131.23 2596.2 2129.54 2598.09 2129.35 2606.4 2128.51 2614.43 2127.64 2622.21 2126.99L2632.69 2126.52 2629.26 2120.65 2628.59 2118.72 2622.5 2116.01C2606.1 2104.1 2606.74 2086.48 2616.04 2064.7 2616.57 2063.47 2617.74 2062.69 2619.01 2062.62 2619.44 2062.6 2619.87 2062.66 2620.3 2062.8 2629.72 2065.99 2637.76 2068.92 2644.7 2071.67L2645.04 2071.82 2645.31 2070.26C2647.78 2061.6 2651.97 2053.55 2656.84 2046.37 2657.12 2045.95 2657.48 2045.59 2657.91 2045.31 2659.68 2044.14 2662.07 2044.63 2663.24 2046.41L2669.22 2055.54 2673.77 2043.93C2678 2036.3 2682.98 2031.85 2685.93 2029.67 2686.65 2029.14 2687.5 2028.93 2688.32 2029.02Z" fill="#FFFFFF" fill-rule="evenodd" fill-opacity="0.501961"/>
  </g>
</svg>