<svg width="495" height="495"
  xmlns="http://www.w3.org/2000/svg"
  xmlns:xlink="http://www.w3.org/1999/xlink" xml:space="preserve" overflow="hidden">
  <g transform="translate(-3008 -849)">
    <path d="M3236.59 869.011C3239.39 869.157 3241.66 870.744 3243.4 873.772 3243.4 873.772 3244.06 874.937 3245.38 877.266 3246.7 879.596 3248.14 882.081 3249.69 884.721 3251.24 887.361 3252.33 889.147 3252.95 890.079 3253.26 890.7 3253.84 891.049 3254.69 891.127 3255.55 891.205 3256.21 890.855 3256.67 890.079 3257.29 888.991 3258.34 887.128 3259.82 884.488 3261.29 881.848 3262.69 879.402 3264.01 877.15 3265.32 874.898 3265.98 873.772 3265.98 873.772 3268.31 869.89 3271.65 868.414 3275.99 869.346 3289.65 872.607 3301.84 878.509 3312.54 887.05 3323.25 895.592 3331.71 906.075 3337.92 918.499 3344.13 930.923 3347.23 944.356 3347.23 958.799 3347.23 965.167 3346.42 971.34 3344.79 977.319 3343.16 983.298 3340.95 989.161 3338.15 994.907 3342.65 990.403 3347.5 986.443 3352.7 983.026 3357.9 979.61 3363.45 976.969 3369.35 975.106 3383.31 970.447 3397.13 969.166 3410.79 971.262 3424.44 973.359 3437.01 978.173 3448.5 985.705 3459.98 993.237 3469.3 1002.98 3476.43 1014.94 3478.76 1018.82 3478.37 1022.4 3475.27 1025.66 3475.27 1025.66 3474.38 1026.67 3472.59 1028.68 3470.81 1030.7 3468.91 1032.88 3466.89 1035.21 3464.87 1037.54 3463.48 1039.09 3462.7 1039.87 3462.23 1040.49 3462.16 1041.23 3462.47 1042.08 3462.78 1042.93 3463.32 1043.44 3464.1 1043.59 3465.18 1043.75 3467.2 1044.14 3470.15 1044.76 3473.1 1045.38 3475.89 1045.96 3478.53 1046.51 3481.17 1047.05 3482.49 1047.32 3482.49 1047.32 3486.83 1048.1 3489.24 1050.74 3489.7 1055.24 3490.79 1069.22 3488.89 1082.61 3484 1095.43 3479.11 1108.24 3471.78 1119.54 3462 1129.32 3452.22 1139.1 3440.43 1146.17 3426.62 1150.52 3414.98 1154.25 3402.56 1155.02 3389.37 1152.85 3394.95 1155.95 3400.23 1159.45 3405.2 1163.33 3410.16 1167.21 3414.43 1171.72 3418 1176.84 3426.69 1188.64 3432.16 1201.34 3434.41 1214.93 3436.66 1228.52 3435.97 1241.95 3432.32 1255.23 3428.67 1268.51 3422.27 1280.43 3413.11 1290.99 3410.16 1294.4 3406.59 1295.1 3402.4 1293.08 3402.4 1293.08 3401.2 1292.54 3398.8 1291.45 3396.39 1290.37 3393.79 1289.2 3391 1287.96 3388.2 1286.72 3386.26 1285.86 3385.18 1285.4 3384.4 1285.09 3383.66 1285.2 3382.97 1285.75 3382.27 1286.29 3382 1286.95 3382.15 1287.73 3382.15 1288.81 3382.31 1290.87 3382.62 1293.9 3382.93 1296.93 3383.24 1299.76 3383.55 1302.4 3383.86 1305.04 3384.01 1306.36 3384.01 1306.36 3384.48 1311.02 3382.69 1314.21 3378.66 1315.91 3365.78 1321.19 3352.51 1323.52 3338.85 1322.9 3325.19 1322.28 3312.2 1318.79 3299.86 1312.42 3287.52 1306.05 3277.08 1296.97 3268.55 1285.16 3264.98 1280.19 3262.07 1274.8 3259.82 1268.97 3257.56 1263.15 3255.9 1257.13 3254.81 1250.92 3253.72 1257.13 3252.09 1263.11 3249.92 1268.86 3247.75 1274.6 3244.8 1280.04 3241.07 1285.16 3232.54 1296.97 3222.14 1306.05 3209.88 1312.42 3197.62 1318.79 3184.62 1322.28 3170.89 1322.9 3157.15 1323.52 3143.84 1321.19 3130.96 1315.91 3127.08 1314.21 3125.3 1311.02 3125.61 1306.36 3125.61 1306.36 3125.76 1305.04 3126.07 1302.4 3126.38 1299.76 3126.69 1296.89 3127 1293.78 3127.31 1290.68 3127.55 1288.58 3127.7 1287.49 3127.7 1286.87 3127.35 1286.29 3126.65 1285.75 3125.96 1285.2 3125.22 1285.09 3124.44 1285.4 3123.36 1285.86 3121.46 1286.72 3118.74 1287.96 3116.02 1289.2 3113.46 1290.37 3111.06 1291.45 3108.65 1292.54 3107.45 1293.08 3107.45 1293.08 3103.1 1295.1 3099.53 1294.4 3096.74 1290.99 3087.74 1280.43 3081.41 1268.51 3077.77 1255.23 3074.12 1241.95 3073.38 1228.52 3075.56 1214.93 3077.73 1201.34 3083.16 1188.64 3091.85 1176.84 3095.42 1171.72 3099.69 1167.17 3104.66 1163.21 3109.62 1159.25 3114.98 1155.8 3120.72 1152.85 3107.37 1155.02 3094.96 1154.25 3083.47 1150.52 3069.5 1146.01 3057.59 1138.91 3047.74 1129.2 3037.88 1119.5 3030.55 1108.2 3025.74 1095.31 3020.93 1082.42 3019.14 1069.06 3020.38 1055.24 3020.69 1050.89 3023.1 1048.25 3027.6 1047.32 3027.6 1047.32 3028.92 1047.05 3031.56 1046.51 3034.19 1045.96 3036.99 1045.38 3039.94 1044.76 3042.89 1044.14 3044.9 1043.75 3045.99 1043.59 3046.77 1043.44 3047.31 1042.89 3047.62 1041.96 3047.93 1041.03 3047.77 1040.25 3047.15 1039.63 3046.38 1038.86 3044.98 1037.34 3042.96 1035.09 3040.95 1032.84 3039.04 1030.7 3037.26 1028.68 3035.48 1026.67 3034.58 1025.66 3034.58 1025.66 3031.48 1022.24 3031.09 1018.67 3033.42 1014.94 3040.56 1002.98 3049.87 993.237 3061.35 985.705 3072.84 978.173 3085.41 973.359 3099.07 971.262 3112.73 969.166 3126.54 970.447 3140.51 975.106 3146.4 976.969 3151.95 979.571 3157.15 982.91 3162.35 986.249 3167.2 990.17 3171.7 994.674 3168.91 988.928 3166.7 983.065 3165.07 977.086 3163.44 971.107 3162.62 965.011 3162.62 958.799 3162.62 944.201 3165.73 930.729 3171.93 918.382 3178.14 906.036 3186.6 895.553 3197.31 886.934 3208.02 878.315 3220.12 872.452 3233.63 869.346 3234.67 869.074 3235.66 868.963 3236.59 869.011ZM3255.04 1009.82C3250.39 1009.82 3246.43 1011.48 3243.17 1014.82 3239.91 1018.16 3238.28 1022.16 3238.28 1026.82 3238.28 1033.19 3241.07 1038 3246.66 1041.26L3246.66 1062.7C3234.4 1065.34 3225.17 1072.09 3218.96 1082.96L3198.47 1076.21C3197.7 1072.48 3195.76 1069.33 3192.65 1066.77 3189.55 1064.21 3185.98 1062.93 3181.94 1062.93 3177.44 1062.93 3173.52 1064.56 3170.19 1067.82 3166.85 1071.08 3165.18 1075.04 3165.18 1079.7 3165.18 1084.36 3166.85 1088.32 3170.19 1091.58 3173.52 1094.84 3177.44 1096.47 3181.94 1096.47 3186.29 1096.47 3190.09 1095.08 3193.35 1092.28L3213.84 1098.8C3213.68 1100.36 3213.6 1101.91 3213.6 1103.46 3213.6 1114.18 3217.17 1123.5 3224.31 1131.42L3211.74 1148.89C3211.12 1148.73 3210.5 1148.65 3209.88 1148.65 3205.22 1148.65 3201.27 1150.32 3198.01 1153.66 3194.75 1157 3193.12 1161 3193.12 1165.66 3193.12 1170.16 3194.75 1174.09 3198.01 1177.42 3201.27 1180.76 3205.22 1182.43 3209.88 1182.43 3214.54 1182.43 3218.49 1180.76 3221.75 1177.42 3225.01 1174.09 3226.64 1170.16 3226.64 1165.66 3226.64 1163.18 3226.18 1160.85 3225.24 1158.67L3237.82 1141.2C3243.25 1143.68 3248.99 1144.93 3255.04 1144.93 3260.94 1144.93 3266.6 1143.68 3272.04 1141.2L3284.61 1158.67C3283.68 1160.85 3283.21 1163.18 3283.21 1165.66 3283.21 1170.16 3284.84 1174.09 3288.1 1177.42 3291.36 1180.76 3295.32 1182.43 3299.97 1182.43 3304.63 1182.43 3308.59 1180.76 3311.85 1177.42 3315.1 1174.09 3316.73 1170.16 3316.73 1165.66 3316.73 1161 3315.1 1157 3311.85 1153.66 3308.59 1150.32 3304.63 1148.65 3299.97 1148.65 3299.35 1148.65 3298.81 1148.73 3298.34 1148.89L3285.54 1131.42C3292.83 1123.5 3296.48 1114.18 3296.48 1103.46 3296.48 1101.91 3296.4 1100.36 3296.25 1098.8L3316.5 1092.28C3319.76 1095.08 3323.56 1096.47 3327.91 1096.47 3332.56 1096.47 3336.52 1094.84 3339.78 1091.58 3343.04 1088.32 3344.67 1084.36 3344.67 1079.7 3344.67 1075.04 3343.04 1071.08 3339.78 1067.82 3336.52 1064.56 3332.56 1062.93 3327.91 1062.93 3323.87 1062.93 3320.3 1064.21 3317.2 1066.77 3314.1 1069.33 3312.16 1072.48 3311.38 1076.21L3291.13 1082.96C3284.92 1072.09 3275.68 1065.34 3263.42 1062.7L3263.42 1041.26C3269.01 1038 3271.8 1033.19 3271.8 1026.82 3271.8 1022.16 3270.17 1018.16 3266.92 1014.82 3263.66 1011.48 3259.7 1009.82 3255.04 1009.82Z" fill="#dcc6bb" fill-rule="evenodd"/>
  </g>
</svg>