<svg xmlns="http://www.w3.org/2000/svg" height="24" viewBox="0 -960 960 960" width="24">
  <path d="M480-405.912 293.044-218.956Q278.087-203.999 256-203.999q-22.087 0-37.044-14.957-14.957-14.957-14.957-37.044 0-22.087 14.957-37.044L405.912-480 218.956-666.956Q203.999-681.913 203.999-704q0-22.087 14.957-37.044 14.957-14.957 37.044-14.957 22.087 0 37.044 14.957L480-554.088l186.956-186.956q14.957-14.957 37.044-14.957 22.087 0 37.044 14.957 14.957 14.957 14.957 37.044 0 22.087-14.957 37.044L554.088-480l186.956 186.956q14.957 14.957 14.957 37.044 0 22.087-14.957 37.044-14.957 14.957-37.044 14.957-22.087 0-37.044-14.957L480-405.912Z" fill="#dcc6bb"/>
</svg>