<svg xmlns="http://www.w3.org/2000/svg" height="24" viewBox="0 -960 960 960" width="24">
  <path d="M153.782-212.303q-22.087 0-37.544-15.457-15.456-15.456-15.456-37.544 0-22.087 15.456-37.544 15.457-15.456 37.544-15.456h652.436q22.087 0 37.544 15.456 15.456 15.457 15.456 37.544 0 22.088-15.456 37.544-15.457 15.457-37.544 15.457H153.782Zm0-214.696q-22.087 0-37.544-15.457-15.456-15.457-15.456-37.544 0-22.087 15.456-37.544 15.457-15.457 37.544-15.457h652.436q22.087 0 37.544 15.457 15.456 15.457 15.456 37.544 0 22.087-15.456 37.544-15.457 15.457-37.544 15.457H153.782Zm0-214.697q-22.087 0-37.544-15.456-15.456-15.457-15.456-37.544 0-22.088 15.456-37.544 15.457-15.457 37.544-15.457h652.436q22.087 0 37.544 15.457 15.456 15.456 15.456 37.544 0 22.087-15.456 37.544-15.457 15.456-37.544 15.456H153.782Z" fill="#3d374c"/>
</svg>