<svg xmlns="http://www.w3.org/2000/svg" height="24" viewBox="0 -960 960 960" width="24">
  <path d="M153.217-220.782q-22.285 0-37.36-15.456-15.075-15.457-15.075-37.683t15.075-37.261q15.075-15.036 37.36-15.036H576.26q22.285 0 37.36 15.457t15.075 37.683q0 22.226-15.075 37.261-15.075 15.035-37.36 15.035H153.217Zm596-80.435L609.739-442.956Q594.348-458.348 594.348-480q0-21.652 15.391-37.044l138.913-141.739q14.957-15.522 37.044-15.522 22.087 0 37.609 15.522 14.391 14.957 14.674 36.479.283 21.522-14.109 36.478L720.871-480 823.87-373.609q14.392 14.957 14.109 36.479-.283 21.521-15.239 36.478-14.957 14.957-36.762 14.957-21.804 0-36.761-15.522Zm-596-125.782q-22.285 0-37.36-15.457t-15.075-37.683q0-22.226 15.075-37.261 15.075-15.035 37.36-15.035h307.565q22.285 0 37.36 15.456 15.075 15.457 15.075 37.683t-15.075 37.261q-15.075 15.036-37.36 15.036H153.217Zm0-206.783q-22.285 0-37.36-15.457t-15.075-37.683q0-22.226 15.075-37.261 15.075-15.035 37.36-15.035H576.26q22.285 0 37.36 15.456 15.075 15.457 15.075 37.683t-15.075 37.261q-15.075 15.036-37.36 15.036H153.217Z" fill="#dcc6bb"/>
</svg>