<svg width="3411" height="118"
  xmlns="http://www.w3.org/2000/svg"
  xmlns:xlink="http://www.w3.org/1999/xlink" xml:space="preserve" overflow="hidden">
  <g transform="translate(-498 -1021)">
    <path d="M-4.58163 216.916C-4.58163 216.916-4.37052 215.735-3.95877 213.425-3.75115 212.272-3.52745 210.831-3.18002 209.125-2.83189 207.424-2.45649 205.442-1.97344 203.208-1.72178 202.095-1.45334 200.914-1.16603 199.669-0.898291 198.419-0.550859 197.118-0.191542 195.753 0.171969 194.392 0.515906 192.959 0.979382 191.485 1.20308 190.748 1.42678 189.996 1.65887 189.227 1.77421 188.843 1.89026 188.454 2.0098 188.062 2.14192 187.674 2.27334 187.285 2.40966 186.889 4.51103 180.551 7.48343 173.421 11.6463 165.809 15.7491 158.17 20.7635 149.91 25.9889 140.714 26.6642 139.581 27.2633 138.372 27.9106 137.178 28.2301 136.582 28.5496 135.982 28.8732 135.377 29.2046 134.776 29.4765 134.14 29.7799 133.515 30.3636 132.263 30.9788 131.005 31.5618 129.716 32.1057 128.414 32.6565 127.097 33.2123 125.764 33.7953 124.447 34.2504 123.066 34.774 121.692 35.2773 120.315 35.8128 118.929 36.2441 117.496 36.7034 116.075 37.1634 114.638 37.6345 113.184 38.0421 111.719 38.4573 110.238 38.8733 108.745 39.3207 107.259 39.636 105.725 40.0121 104.196 40.1952 103.427 40.3791 102.659 40.5629 101.886 40.7544 101.113 40.8824 100.32 41.0467 99.54 41.35 97.9624 41.694 96.3812 41.9729 94.7755 42.2246 93.1621 42.4846 91.5403 42.744 89.9031 43.6548 83.3367 44.2302 76.5105 44.2742 69.4558 44.3301 62.4096 43.7947 55.1349 42.4091 47.7839 42.1092 45.9421 41.6576 44.0808 41.1026 42.2467 40.5391 40.4049 39.852 38.5757 38.9369 36.8138 38.0099 35.0603 36.8516 33.3545 35.2976 31.9295 34.4944 31.2486 33.6275 30.5921 32.6083 30.1557 31.6017 29.7108 30.5034 29.4229 29.3808 29.3711 28.2623 29.3304 27.1557 29.5028 26.1008 29.8194 25.0697 30.1676 24.0833 30.6237 23.1843 31.1925 21.3625 32.3134 19.8519 33.779 18.4901 35.3321 17.1276 36.9021 15.9372 38.5912 14.8543 40.3531L14.0672 41.6862C13.8113 42.1346 13.5841 42.5914 13.3401 43.0432 12.8606 43.9526 12.381 44.8612 11.898 45.7782 10.1042 49.5017 8.546 53.3968 7.31985 57.4447 6.10069 61.5009 5.26601 65.7085 4.72634 69.9882 4.19925 74.2687 3.99932 78.6248 4.05594 83.0047 4.12375 87.3846 4.43903 91.7883 4.87873 96.2047 4.978 97.3094 5.11012 98.4107 5.23036 99.5162 5.34571 100.621 5.4981 101.73 5.6498 102.843 5.80149 103.952 5.95319 105.065 6.10488 106.182L6.33278 107.86 6.62009 109.529C6.81583 110.646 7.01576 111.763 7.2073 112.884L7.503 114.566C7.59528 115.126 7.7309 115.679 7.85113 116.239 8.08252 117.357 8.32649 118.473 8.56208 119.594 8.80535 120.715 9.02975 121.845 9.32545 122.958 13.5841 140.89 20.567 158.751 29.5325 176.143 34.0113 184.847 38.9809 193.451 44.3183 201.963 44.9893 203.028 45.6486 204.093 46.3357 205.157 47.0271 206.231 47.7262 207.292 48.4413 208.341 49.8639 210.447 51.3214 212.525 52.7922 214.595 55.7325 218.743 58.7049 222.87 61.5976 227.082 64.4854 231.286 67.3019 235.566 69.8954 239.994 72.4799 244.418 74.893 248.971 76.8189 253.727L77.5375 255.508 78.1849 257.318 78.5085 258.223 78.7924 259.136 79.3593 260.97 79.8346 262.823 80.0744 263.752 80.2625 264.689C80.382 265.313 80.5225 265.934 80.6302 266.562L80.9014 268.448C81.1971 270.967 81.3488 273.509 81.1377 276.023L81.0818 276.972 80.9615 277.909 80.7022 279.783 80.2904 281.629 80.0786 282.549 79.7948 283.45C79.5991 284.051 79.4432 284.664 79.216 285.252L78.5008 287.014C78.029 288.187 77.4299 289.319 76.8189 290.433 75.5725 292.647 74.0583 294.697 72.3205 296.518 71.4494 297.419 70.5267 298.28 69.5312 299.04 68.5525 299.826 67.4942 300.494 66.4113 301.111 65.3208 301.724 64.1778 302.224 63.0118 302.66 61.8332 303.057 60.6343 303.413 59.4039 303.617 54.4861 304.494 49.2886 303.669 44.6461 301.455 43.4752 300.926 42.349 300.274 41.2382 299.605 40.695 299.245 40.1554 298.897 39.6122 298.512L37.9981 297.331C35.8764 295.718 33.8834 293.928 32.0295 291.994 28.3259 288.135 25.2095 283.671 22.7726 278.826 20.3279 273.978 18.5418 268.761 17.3513 263.38 16.1567 257.991 15.5415 252.438 15.4254 246.844L15.4017 244.746 15.4254 242.645 15.4974 240.539 15.6414 238.433 15.7889 236.323C15.8449 235.618 15.861 234.913 15.9651 234.213 16.1329 232.811 16.2965 231.41 16.4642 230.005 17.271 224.403 18.4384 218.835 19.9917 213.333 21.5897 207.848 23.5198 202.435 25.7373 197.107 26.3084 195.781 26.8795 194.456 27.4548 193.127 28.0504 191.81 28.6733 190.5 29.2885 189.187 29.8841 187.865 30.5594 186.572 31.2025 185.271L32.177 183.317C32.5049 182.669 32.8565 182.028 33.1962 181.384 35.8925 176.211 38.8132 171.119 41.8296 166.053 47.8583 155.92 54.2624 146.035 60.3945 136.029 63.4627 131.021 66.4637 125.988 69.3397 120.892 72.196 115.779 74.9168 110.602 77.4418 105.341 79.943 100.068 82.2003 94.6956 84.2059 89.2383 84.6812 87.8652 85.1608 86.4914 85.6361 85.1267 86.0996 83.7494 86.4946 82.3517 86.9301 80.9667 87.1384 80.2739 87.3579 79.5852 87.5579 78.8847L88.1129 76.7388C88.301 76.0257 88.4366 75.3013 88.5967 74.5804 88.7644 73.8637 88.8917 73.1394 89.0161 72.4185 89.2873 70.9732 89.4635 69.5238 89.6627 68.0743 89.8109 66.6213 89.9745 65.1761 90.0542 63.7224 90.1702 62.2736 90.1905 60.8242 90.2422 59.3747 90.2464 57.9253 90.2625 56.48 90.2066 55.0382 90.1863 53.593 90.0745 52.1561 89.9948 50.7186 89.8669 49.2852 89.7627 47.8519 89.583 46.4269 89.4313 45.0013 89.2118 43.5841 89.0077 42.1668 88.7644 40.7573 88.5442 39.34 88.2408 37.9431 87.6851 35.136 86.9902 32.3653 86.1793 29.6352 85.388 26.8967 84.4373 24.2058 83.3628 21.5675 82.2918 18.925 81.0853 16.3385 79.6788 13.8487 78.2806 11.3582 76.7224 8.94828 74.9328 6.68546 73.1433 4.42755 71.1174 2.31746 68.7888 0.519817 68.1932 0.0798641 67.5857-0.340473 66.9825-0.765014 66.3351-1.15733 65.6801-1.55385 65.0013-1.91043L63.9422-2.38681 63.411-2.6187 62.8517-2.80295 61.729-3.15533C61.3494-3.25971 60.958-3.31576 60.5707-3.39562 59.7996-3.57987 58.9922-3.58407 58.2051-3.64012 57.8101-3.65203 57.4144-3.6156 57.0188-3.59949L56.4274-3.56376 55.8443-3.47969 54.6818-3.27933C54.3064-3.18335 53.9345-3.07547 53.5591-2.96688L52.9999-2.80715 52.4686-2.59908 51.3976-2.17805C48.637-0.900923 46.284 0.896019 44.2225 2.87441 42.1728 4.87241 40.4035 7.05816 38.8055 9.32798 37.2074 11.6027 35.7925 13.9643 34.5105 16.3868 33.2319 18.8094 32.1057 21.2915 31.1102 23.8338 30.6069 25.1025 30.1595 26.3958 29.7443 27.7051 29.3283 29.0103 28.9893 30.3757 28.7013 31.685 28.3776 33.0021 28.17 34.3394 27.9141 35.6649 27.8107 36.329 27.7184 36.9981 27.6191 37.6622L27.4751 38.6598 27.3668 39.6602C27.0354 42.3265 26.9117 44.9936 26.8236 47.6438 26.7236 52.9527 26.9956 58.2139 27.5828 63.3861 28.1623 68.5633 28.9928 73.6641 30.0036 78.6766 31.0026 83.6933 32.1609 88.6337 33.4038 93.5061 35.8764 103.255 38.6929 112.74 41.2459 122.097 41.8771 124.435 42.5685 126.801 43.2277 129.139 43.5591 130.308 43.9471 131.462 44.3064 132.618 44.6699 133.776 45.0173 134.937 45.4053 136.081 45.8003 137.223 46.1917 138.364 46.5874 139.501L47.1746 141.207 47.8142 142.892C48.2337 144.013 48.6573 145.134 49.0802 146.251 49.5123 147.364 49.9792 148.461 50.4266 149.566 54.0226 158.382 58.2652 166.742 62.6441 174.789 67.0349 182.841 71.569 190.588 75.8997 198.251 76.9867 200.165 78.0611 202.075 79.116 203.976 79.6431 204.926 80.1947 205.886 80.698 206.819 80.9455 207.279 81.1971 207.744 81.4292 208.217 81.669 208.685 81.8962 209.161 82.1164 209.642 83.9018 213.477 85.3321 217.465 86.5107 221.469 87.6655 225.485 88.5806 229.529 89.1 233.568 89.367 235.59 89.5432 237.604 89.5991 239.605 89.6473 241.608 89.5788 243.593 89.3391 245.531 89.0958 247.473 88.6882 249.366 88.0332 251.14 87.3775 252.906 86.4666 254.544 85.2684 255.901 84.965 256.233 84.6728 256.573 84.3093 256.882L83.7899 257.358 83.2628 257.81C82.8951 258.09 82.54 258.391 82.1604 258.651 81.7724 258.895 81.397 259.16 81.0056 259.392 79.4355 260.309 77.7179 260.905 75.9598 261.102 74.2058 261.302 72.4197 261.106 70.714 260.593 69.0083 260.085 67.3865 259.268 65.8884 258.271 62.8839 256.261 60.3631 253.57 58.2456 250.676 56.1519 247.75 54.4336 244.598 53.1439 241.323 52.4965 239.682 51.9408 238.04 51.5095 236.339 51.3934 235.918 51.2823 235.494 51.1662 235.074 51.0544 234.653 50.9705 234.224 50.8663 233.804 50.6706 232.956 50.4791 232.111 50.3274 231.262 49.0208 224.48 48.8048 217.705 49.3641 211.207 49.9114 204.697 51.2375 198.471 52.9237 192.574 54.6098 186.677 56.6951 181.111 58.8964 175.835 61.1097 170.562 63.4592 165.585 65.7961 160.857 70.4945 151.4 75.137 142.928 79.1517 135.217 83.1789 127.513 86.5946 120.579 89.1958 114.406 91.8046 108.236 93.5782 102.831 94.6568 98.3785 95.7515 93.9264 96.143 90.439 96.2989 88.1013 96.3353 87.517 96.3625 87 96.3905 86.56 96.3947 86.1194 96.4031 85.7474 96.4065 85.451 96.4149 84.8584 96.4191 84.5543 96.4191 84.5543 96.4191 84.5543 96.4107 84.8584 96.3947 85.451 96.3828 85.7474 96.3709 86.1152 96.359 86.5558 96.3269 87 96.2912 87.5128 96.2514 88.0971 96.0591 90.4313 95.6117 93.9026 94.4611 98.3267 93.3223 102.755 91.4845 108.116 88.7959 114.234 86.1192 120.355 82.6239 127.23 78.5043 134.873 74.4016 142.524 69.6515 150.94 64.8293 160.364 62.4239 165.08 60.0072 170.053 57.7178 175.33 55.4445 180.615 53.2753 186.204 51.5018 192.158 49.7318 198.103 48.3134 204.413 47.6786 211.051 47.039 217.677 47.183 224.627 48.4616 231.614 48.6014 232.491 48.7929 233.36 48.9845 234.233 49.0844 234.669 49.1683 235.106 49.2802 235.542 49.392 235.974 49.5039 236.411 49.6199 236.847 50.0394 238.592 50.6147 240.347 51.2739 242.06 52.5839 245.495 54.3463 248.81 56.5196 251.917 58.7245 254.992 61.3655 257.882 64.6413 260.125 66.2834 261.237 68.0891 262.178 70.0471 262.787 72.0003 263.396 74.1143 263.656 76.2156 263.436 78.317 263.219 80.3701 262.523 82.1961 261.478 82.6477 261.214 83.0874 260.921 83.5306 260.641 83.9619 260.349 84.3653 260.013 84.7847 259.7L85.388 259.196 85.9675 258.671C86.3632 258.339 86.7309 257.934 87.0979 257.538 88.5484 255.929 89.6194 254.019 90.3779 252.029 91.1335 250.031 91.5963 247.953 91.8766 245.864 92.1521 243.77 92.2478 241.66 92.2157 239.549 92.1716 237.439 92.0039 235.333 91.7522 233.232 91.2454 229.023 90.3345 224.848 89.1797 220.7 88.0011 216.564 86.5666 212.452 84.7372 208.429 84.5093 207.925 84.2695 207.42 84.022 206.924 83.7822 206.423 83.5222 205.927 83.2628 205.43 82.7434 204.453 82.2163 203.516 81.6886 202.551 80.6379 200.634 79.583 198.708 78.5043 196.782 74.2296 189.067 69.7556 181.284 65.4606 173.264 61.1698 165.241 57.0509 156.969 53.5752 148.273 53.1439 147.188 52.6923 146.103 52.2763 145.01 51.8653 143.905 51.4619 142.804 51.0502 141.695L50.4385 140.033 49.8674 138.356C49.4878 137.235 49.1124 136.11 48.7293 134.985 48.3532 133.856 48.0261 132.71 47.666 131.573 47.3228 130.428 46.9551 129.291 46.6314 128.138 45.9967 125.82 45.3368 123.526 44.7181 121.164 42.2092 111.727 39.464 102.255 37.0669 92.5814 35.861 87.7489 34.7502 82.8646 33.7953 77.9277 32.8327 72.995 32.0414 68.0028 31.5101 62.9616 30.9627 57.9253 30.7313 52.8406 30.8509 47.7517 30.9543 45.2094 31.0823 42.6593 31.4101 40.1324L31.5143 39.1796 31.6576 38.2388 31.9456 36.3451C32.1889 35.0961 32.3972 33.835 32.7048 32.602 32.9921 31.3403 33.292 30.1515 33.6793 28.9465 34.0666 27.7451 34.4902 26.5401 34.9697 25.3512 35.9086 22.9728 36.9872 20.6224 38.2015 18.3484 39.4206 16.0744 40.7628 13.8641 42.2448 11.7666 43.731 9.67686 45.3612 7.69077 47.1669 5.94497 48.9845 4.21528 50.9901 2.72589 53.1397 1.7416 55.3012 0.828064 57.5864 0.395817 59.7996 0.86029L60.6308 1.02842 61.4536 1.29254 61.8611 1.42494 62.2603 1.60919 63.0551 1.96928C63.5787 2.246 64.0863 2.55775 64.6056 2.866 65.1132 3.23449 65.6242 3.58688 66.124 3.96308 68.1135 5.50501 69.9031 7.37061 71.5054 9.41205 73.1153 11.4584 74.5456 13.6764 75.836 15.9945 77.13 18.3127 78.2611 20.7464 79.2635 23.2411 80.2709 25.7316 81.1573 28.2894 81.9088 30.8962 82.6679 33.4988 83.3272 36.1448 83.8459 38.8279 84.1339 40.1646 84.3373 41.5139 84.5729 42.8632 84.7609 44.2202 84.9685 45.5737 85.1049 46.939 85.2803 48.3002 85.3719 49.6733 85.4921 51.0429 85.5641 52.4118 85.6641 53.7856 85.6795 55.1629 85.7361 56.536 85.7116 57.9133 85.7039 59.2907 85.6522 60.668 85.632 62.0453 85.5159 63.4184 85.4404 64.7957 85.2803 66.1611 85.1405 67.53 84.949 68.8954 84.7812 70.265 84.5211 71.6142 84.4016 72.291 84.2814 72.967 84.1262 73.6361 83.9738 74.3044 83.8459 74.9811 83.6739 75.646L83.151 77.6356C82.9594 78.3039 82.7434 78.9764 82.54 79.6455 82.1164 80.9864 81.7368 82.3398 81.2768 83.6695 80.814 84.9985 80.3506 86.3316 79.8829 87.6606 77.9255 92.9576 75.72 98.1908 73.2628 103.343 70.786 108.488 68.1135 113.569 65.2928 118.602 62.4483 123.626 59.4676 128.607 56.4197 133.58 50.3113 143.521 43.903 153.414 37.81 163.647 34.7621 168.764 31.8016 173.928 29.0529 179.202 28.7097 179.858 28.3538 180.511 28.0183 181.176L27.0235 183.17C26.3643 184.503 25.6771 185.816 25.0662 187.173 24.4426 188.518 23.8037 189.859 23.192 191.213 22.6048 192.574 22.0134 193.939 21.4304 195.301 19.1612 200.782 17.1675 206.371 15.5177 212.052 13.9155 217.754 12.7047 223.543 11.8777 229.372 11.7064 230.838 11.5345 232.295 11.3625 233.756 11.259 234.485 11.2388 235.218 11.1828 235.951L11.0312 238.148 10.8871 240.342 10.8235 242.544 10.7991 244.746 10.827 246.949C10.9626 252.81 11.6142 258.659 12.8927 264.377 14.1748 270.086 16.0888 275.663 18.7334 280.876 21.3744 286.089 24.7621 290.929 28.8096 295.113 30.8271 297.207 33.0005 299.141 35.3053 300.886L37.055 302.164C37.6506 302.58 38.2735 302.98 38.8852 303.381 40.1512 304.141 41.4297 304.874 42.7803 305.483 48.1176 308.009 54.298 309.006 60.1792 307.929 61.6493 307.677 63.0873 307.257 64.4896 306.772 65.88 306.247 67.2383 305.643 68.5246 304.918 69.8074 304.182 71.0538 303.381 72.196 302.46 73.3586 301.563 74.4295 300.558 75.4404 299.513 77.4376 297.396 79.1482 295.045 80.5498 292.547 81.2335 291.289 81.8927 290.028 82.424 288.703L83.2146 286.713C83.4705 286.049 83.6466 285.352 83.8661 284.671L84.1779 283.651 84.4212 282.609 84.8728 280.523 85.1566 278.414 85.2803 277.361 85.3439 276.304C85.5641 273.481 85.3845 270.67 85.0447 267.912L84.7448 265.854C84.6211 265.173 84.4694 264.501 84.3338 263.824L84.122 262.811 83.8661 261.814 83.3425 259.824 82.7316 257.875 82.424 256.897 82.0758 255.94 81.381 254.031 80.6141 252.157C78.5645 247.165 76.0437 242.464 73.3628 237.936 70.6826 233.404 67.7899 229.064 64.8412 224.828 61.901 220.588 58.8845 216.456 55.9401 212.344 54.4658 210.29 53.0076 208.245 51.6018 206.183 50.8901 205.157 50.2029 204.121 49.5241 203.088 48.8447 202.047 48.182 200.986 47.5144 199.937 42.1693 191.533 37.2074 183.053 32.7244 174.481 23.7554 157.353 16.7557 139.809 12.4335 122.201 12.1336 121.108 11.9057 119.999 11.6624 118.898 11.4142 117.797 11.1752 116.7 10.9312 115.603 10.8151 115.054 10.6795 114.51 10.5796 113.957L10.2762 112.308C10.0762 111.206 9.87211 110.109 9.67638 109.012L9.37718 107.375 9.1416 105.725C8.98151 104.629 8.82562 103.535 8.66973 102.442 8.51035 101.354 8.35026 100.264 8.22653 99.1673 8.0986 98.0703 7.96298 96.9816 7.85463 95.8922 7.38346 91.5403 7.03603 87.2206 6.94026 82.9528 6.85218 78.6808 7.01226 74.4564 7.48762 70.3168 7.97067 66.1807 8.74173 62.1174 9.87631 58.2013 11.0312 54.29 12.5013 50.5182 14.1993 46.9033 14.6586 46.0143 15.1137 45.1295 15.5694 44.2447 15.805 43.8082 16.021 43.3557 16.2608 42.9276L16.9997 41.654C18.0064 39.9846 19.1088 38.3873 20.344 36.9378 21.5744 35.5045 22.9326 34.179 24.4545 33.2305 25.2095 32.738 26.0085 32.3695 26.8201 32.0815 27.6387 31.8328 28.4657 31.6969 29.2885 31.713 30.1078 31.7453 30.9068 31.9491 31.666 32.2693 32.4328 32.5859 33.1242 33.098 33.7792 33.6424 35.0655 34.7997 36.1162 36.273 36.9635 37.8626 37.8184 39.4521 38.4776 41.158 39.025 42.8912 39.5723 44.6286 40.0155 46.3905 40.3273 48.1924 41.7534 55.3591 42.3525 62.5132 42.3686 69.46 42.3965 76.4103 41.9016 83.1686 41.0704 89.6705 40.8265 91.2958 40.5951 92.9015 40.3553 94.4988 40.1036 96.0926 39.78 97.6618 39.492 99.2276 39.3403 100.005 39.2207 100.789 39.0411 101.553 38.8649 102.323 38.6929 103.087 38.5175 103.848 38.1616 105.369 37.8659 106.891 37.443 108.368 37.0431 109.854 36.6517 111.323 36.2602 112.78 35.817 114.222 35.3731 115.651 34.9334 117.068 34.5181 118.494 34.0071 119.867 33.5199 121.24 33.0201 122.605 32.5845 123.983 32.0218 125.292 31.4898 126.617 30.9585 127.926 30.4356 129.224 29.868 130.505 29.2808 131.757 28.7132 133.007 28.4182 133.624 28.1658 134.26 27.8386 134.857 27.5269 135.457 27.2151 136.058 26.9075 136.654 26.2804 137.843 25.7009 139.032 25.0417 140.182 19.9323 149.426 15.0221 157.746 11.0032 165.465 6.91579 173.156 4.02378 180.371 1.99791 186.752 1.86998 187.149 1.73856 187.545 1.61413 187.938 1.49878 188.33 1.38693 188.722 1.27508 189.111 1.05488 189.884 0.83957 190.645 0.627755 191.385 0.183853 192.866-0.143307 194.308-0.487244 195.681-0.830482 197.051-1.15834 198.356-1.4142 199.612-1.68124 200.862-1.9329 202.05-2.17268 203.168-2.62427 205.41-2.96821 207.4-3.29117 209.105-3.61903 210.815-3.81477 212.26-4.0147 213.417-4.39009 215.732-4.58163 216.916-4.58163 216.916" fill="#3D374C" fill-rule="evenodd" transform="matrix(-1.83697e-16 -1 -1 1.83697e-16 2356 1134)"/>
    <path d="M17.2472 1.18036C17.5386 0.351919 17.1075-0.701573 16.0648-1.67652 15.0305-2.65223 13.3414-3.51088 11.3246-3.81749 10.326-3.99043 8.64039-3.9859 6.75912-3.67929 4.87018-3.36438 2.80163-2.6696 1.03987-1.73694-0.728884-0.813341-2.22299 0.282442-3.21324 1.2151-4.21187 2.12964-4.74299 2.83348-4.65493 3.00189-4.48721 3.35154-1.38439 2.21573 2.02243 1.92649 3.72409 1.76262 5.46978 1.80642 6.96318 1.99597 7.33846 2.03071 7.69766 2.09943 8.04148 2.15154L8.99959 2.31995 9.8305 2.47099 10.5056 2.59559C12.0752 2.83725 13.5728 2.87652 14.7908 2.68622 16.0089 2.49666 16.9474 2.02165 17.2472 1.18036" fill="#3D374C" fill-rule="evenodd" transform="matrix(-1.83697e-16 -1 -1 1.83697e-16 2201 1039)"/>
    <path d="M8.47857 4.80981C8.45076 4.3935 8.29201 4.00193 8.09053 3.64994L7.29545 2.65264C6.65233 2.03842 5.76838 1.52528 4.70602 1.18602 4.17891 1.01285 3.27529 0.846752 2.24006 0.580287 1.2089 0.321596 0.0535931-0.0459423-0.915832-0.53081-1.88526-1.01497-2.62539-1.61293-2.96255-2.28793-3.33499-2.96222-3.31531-3.64075-3.50933-3.70931L-3.93197-3.39902-4.223-2.90991-4.44755-2.16282C-4.56763-1.58112-4.53303-0.829789-4.3078-0.0862302-4.09479 0.660862-3.71489 1.40442-3.25765 2.07871-1.38867 4.79355 1.5888 6.53017 3.00393 6.97899 4.42313 7.43488 5.8654 7.37056 6.91555 6.9182 7.44334 6.69556 7.86598 6.37679 8.13734 6.00925 8.40869 5.63323 8.51317 5.22541 8.47857 4.80981" fill="#3D374C" fill-rule="evenodd" transform="matrix(-1.83697e-16 -1 -1 1.83697e-16 2188 1043)"/>
    <path d="M5.53285-1.23308C5.52882-2.03007 5.06479-2.77238 4.17432-3.20231 3.2993-3.63977 1.99449-3.67873 0.742728-3.14353 0.113491-2.89746-0.815255-2.2529-1.67483-1.35064-2.53844-0.45181-3.29057 0.727954-3.75863 1.89952-4.23879 3.06356-4.44965 4.20436-4.46107 5.04031-4.4839 5.45043-4.43824 5.80244-4.38854 6.04441L-4.18104 6.45863C-3.86272 6.55979-2.66469 4.99315-1.05701 3.98153-0.269961 3.45864 0.581557 3.05194 1.30347 2.79835 2.03612 2.54408 2.62372 2.38824 2.9689 2.25905 3.6485 1.97812 4.20118 1.4935 4.68469 0.911138 5.15276 0.317839 5.54024-0.412849 5.53285-1.23308" fill="#3D374C" fill-rule="evenodd" transform="matrix(-1.83697e-16 -1 -1 1.83697e-16 2214 1043)"/>
    <path d="M18.4396 36.7368C33.7171 10.7202 18.3025 7.0665 18.3025 7.0665 2.62161 12.487 18.4396 36.7368 18.4396 36.7368ZM20.85 42.7987C20.8464 41.5939 19.7437 40.6308 18.3873 40.6308 17.0309 40.6708 15.9324 41.6347 15.9409 42.8387 15.9451 44.0028 17.0507 44.9666 18.4078 44.9666 19.7642 44.9666 20.8542 44.0028 20.85 42.7987ZM18.3993-6.98501C69.8997 49.7043 18.6939 58.015 18.6939 58.015-33.6253 46.4524 18.3993-6.98501 18.3993-6.98501" fill="#3D374C" fill-rule="evenodd" transform="matrix(-1.83697e-16 -1 -1 1.83697e-16 557 1103)"/>
    <path d="M-4.78509-0.932916C-4.80187-4.23476-1.68036-6.93275 2.1836-6.93275 6.05193-6.93275 9.19823-4.27563 9.215-0.97308 9.23178 2.32877 6.10955 5.02676 2.24194 5.06692-1.62566 5.06692-4.77269 2.40909-4.78509-0.932916" fill="#3D374C" fill-rule="evenodd" transform="matrix(-1.83697e-16 -1 -1 1.83697e-16 567 1087)"/>
    <path d="M-4.44329-0.826956C-4.4548-4.14113-1.55627-6.83509 2.03168-6.85132 5.61964-6.86331 8.54187-4.18629 8.55745-0.875642 8.57235 2.43994 5.67381 5.13743 2.0818 5.14942-1.50548 5.16142-4.42772 2.48792-4.44329-0.826956" fill="#3D374C" fill-rule="evenodd" transform="matrix(-1.83697e-16 -1 -1 1.83697e-16 613 1087)"/>
    <path d="M-4.64323 13.3501 13.4478 33.2579 31.3569 13.2314C25.4723 10.9062 13.2857-6.77437 13.2616-6.7385 13.072-7.02683 1.22079 10.9848-4.64323 13.3501" fill="#3D374C" fill-rule="evenodd" transform="matrix(-1.83697e-16 -1 -1 1.83697e-16 604 1098)"/>
    <path d="M10.3167 45.1977C10.3167 45.1977 20.3681 41.6563 10.4051 16.4438 10.4051 16.4438 0.0905593 39.9489 10.3167 45.1977ZM10.3853 8.4531C9.49953 8.4489 8.78001 9.38479 8.77577 10.5438 8.77223 11.6993 9.4875 12.6422 10.3733 12.6464 11.2541 12.6506 11.9743 11.7147 11.9779 10.5557 11.9821 9.40018 11.2669 8.4573 10.3853 8.4531ZM10.5749-4.17934C10.5749-4.17934 43.9651 3.87227 10.3811 58.8213 10.3811 58.8213-23.5504 7.01779 10.5749-4.17934" fill="#3D374C" fill-rule="evenodd" transform="matrix(-1.83697e-16 -1 -1 1.83697e-16 1958 1095)"/>
    <path d="M-4.19966 1.57052C-4.20734 4.8892-2.42532 7.58286-0.212511 7.59519 1.99325 7.61186 3.7932 4.93488 3.80024 1.61982 3.81176-1.69523 2.02654-4.39252-0.179226-4.40485-2.39267-4.42152-4.19262-1.74454-4.19966 1.57052" fill="#3D374C" fill-rule="evenodd" transform="matrix(-1.83697e-16 -1 -1 1.83697e-16 1897 1084)"/>
    <path d="M-4.83224 1272.47-4.83224-5.53462 0.167924-5.53462 0.167924 1272.47-4.83224 1272.47" fill="#3D374C" fill-rule="evenodd" transform="matrix(-1.83697e-16 -1 -1 1.83697e-16 1885 1083)"/>
    <path d="M18.3025 50.6273C18.3025 50.6273 33.7171 46.9742 18.4396 20.9581 18.4396 20.9581 2.62161 45.2074 18.3025 50.6273ZM18.4078 12.7274C17.0507 12.7274 15.9451 13.6906 15.9409 14.8954 15.9324 16.0594 17.0309 17.0233 18.3873 17.0633 19.7437 17.0633 20.8464 16.0995 20.85 14.8954 20.8542 13.6906 19.7642 12.7274 18.4078 12.7274ZM18.6939-0.321048C18.6939-0.321048 69.8997 7.98967 18.3993 64.6796 18.3993 64.6796-33.6253 11.2416 18.6939-0.321048" fill="#3D374C" fill-rule="evenodd" transform="matrix(-1.83697e-16 -1 -1 1.83697e-16 3908 1103)"/>
    <path d="M-4.78509 5.60525C-4.80187 8.9071-1.68036 11.6051 2.1836 11.6051 6.05193 11.6051 9.19823 8.94726 9.215 5.64541 9.23178 2.34356 6.10955-0.354424 2.24194-0.395292-1.62566-0.395292-4.77269 2.26253-4.78509 5.60525" fill="#3D374C" fill-rule="evenodd" transform="matrix(-1.83697e-16 -1 -1 1.83697e-16 3845 1087)"/>
    <path d="M-4.44329 5.48952C-4.4548 8.80369-1.55627 11.4977 2.03168 11.5139 5.61964 11.5259 8.54187 8.84815 8.55745 5.5375 8.57235 2.22262 5.67381-0.474865 2.0818-0.48686-1.50548-0.498855-4.42772 2.17464-4.44329 5.48952" fill="#3D374C" fill-rule="evenodd" transform="matrix(-1.83697e-16 -1 -1 1.83697e-16 3799 1087)"/>
    <path d="M-4.64323 19.476 13.4478-0.431805 31.3569 19.5947C25.4723 21.9199 13.2857 39.6005 13.2616 39.5653 13.072 39.8529 1.22079 21.8413-4.64323 19.476" fill="#3D374C" fill-rule="evenodd" transform="matrix(-1.83697e-16 -1 -1 1.83697e-16 3836 1098)"/>
    <path d="M10.4051 39.283C20.3681 14.0712 10.3167 10.5291 10.3167 10.5291 0.0905593 15.7738 10.4051 39.283 10.4051 39.283ZM11.9779 45.1676C11.9743 44.0121 11.2541 43.0769 10.3733 43.0804 9.4875 43.0846 8.77223 44.0282 8.77577 45.1837 8.78001 46.3427 9.49953 47.2779 10.3853 47.2702 11.2669 47.266 11.9821 46.3266 11.9779 45.1676ZM10.3811-3.09446C43.9651 51.8552 10.5749 59.9061 10.5749 59.9061-23.5504 48.709 10.3811-3.09446 10.3811-3.09446" fill="#3D374C" fill-rule="evenodd" transform="matrix(-1.83697e-16 -1 -1 1.83697e-16 2506 1095)"/>
    <path d="M-4.19966 2.88984C-4.20734-0.424017-2.42532-3.1167-0.212511-3.13337 1.99325-3.1457 3.7932-0.46968 3.80024 2.84417 3.81176 6.15803 2.02654 8.85506-0.179226 8.86738-2.39267 8.87971-4.19262 6.20369-4.19966 2.88984" fill="#3D374C" fill-rule="evenodd" transform="matrix(-1.83697e-16 -1 -1 1.83697e-16 2516 1084)"/>
    <path d="M-4.83224-1.74939-4.83224 1275.25 0.167924 1275.25 0.167924-1.74939-4.83224-1.74939" fill="#3D374C" fill-rule="evenodd" transform="matrix(-1.83697e-16 -1 -1 1.83697e-16 3793 1083)"/>
  </g>
</svg>