<svg width="495" height="495"
  xmlns="http://www.w3.org/2000/svg"
  xmlns:xlink="http://www.w3.org/1999/xlink" xml:space="preserve" overflow="hidden">
  <g transform="translate(-900 -849)">
    <path d="M1146.53 869C1150.72 869 1154.68 869.778 1158.41 871.333 1162.29 872.889 1165.71 875.144 1168.66 878.1 1177.04 886.5 1184.34 895.678 1190.55 905.633 1192.88 902.989 1195.29 900.5 1197.77 898.167 1205.22 891.633 1213.76 886.967 1223.39 884.167 1232.86 881.367 1242.57 880.744 1252.5 882.3 1262.28 883.856 1271.29 887.433 1279.52 893.034 1311.51 914.5 1336.58 942.267 1354.75 976.333 1372.91 1010.4 1382 1046.8 1382 1085.53 1382.15 1116.8 1376.29 1146.86 1364.41 1175.72 1352.53 1204.57 1335.57 1230.04 1313.52 1252.13 1293.03 1272.67 1269.54 1288.88 1243.07 1300.78 1216.6 1312.68 1188.92 1319.41 1160.04 1320.97 1159.42 1321.28 1158.95 1321.51 1158.64 1321.67 1154.76 1323.22 1150.8 1324 1146.77 1324 1142.57 1324 1138.61 1323.22 1134.89 1321.67 1134.58 1321.51 1134.11 1321.28 1133.49 1320.97 1104.77 1319.26 1077.28 1312.53 1051.04 1300.78 1024.8 1289.04 1001.51 1272.98 981.172 1252.6 959.124 1230.67 942.083 1205.27 930.05 1176.42 918.017 1147.56 912 1117.5 912 1086.23 912 1047.66 921.006 1011.26 939.017 977.033 957.028 942.811 982.026 914.889 1014.01 893.267 1022.24 887.667 1031.25 884.089 1041.03 882.533 1050.81 880.822 1060.44 881.289 1069.91 883.933 1079.53 886.578 1088.07 891.167 1095.53 897.7 1098.32 900.033 1100.81 902.444 1102.98 904.933 1109.19 895.289 1116.41 886.345 1124.64 878.1 1127.59 875.144 1130.93 872.889 1134.65 871.333 1138.54 869.778 1142.5 869 1146.53 869ZM1146.53 885.8C1142.65 885.8 1139.31 887.2 1136.52 890 1118.04 908.511 1105.7 930.445 1099.49 955.8 1118.58 969.178 1134.03 985.9 1145.83 1005.97 1157.79 985.278 1173.63 968.089 1193.35 954.4 1186.98 929.667 1174.71 908.2 1156.55 890 1153.91 887.2 1150.57 885.8 1146.53 885.8ZM1209.18 910.3C1205.15 910.3 1201.34 911.078 1197.77 912.633 1197.15 912.945 1196.37 913.333 1195.44 913.8 1200.88 923.6 1205.22 934.022 1208.48 945.067 1209.26 944.6 1210.08 944.172 1210.93 943.783 1211.78 943.394 1212.6 942.967 1213.38 942.5 1214.46 942.189 1215.47 941.8 1216.4 941.333 1217.18 940.867 1217.8 940.556 1218.27 940.4 1220.6 939.156 1222.46 938.3 1223.86 937.833 1225.87 936.9 1227.97 936.083 1230.14 935.383 1232.32 934.683 1234.49 934.022 1236.67 933.4 1236.98 933.245 1237.21 933.167 1237.36 933.167 1237.52 933.167 1237.68 933.089 1237.83 932.933 1237.21 931.222 1236.59 929.667 1235.97 928.267 1233.79 922.822 1230.22 918.467 1225.25 915.2 1220.44 911.933 1215.08 910.3 1209.18 910.3ZM1283.94 942.733C1280.06 942.733 1276.03 942.889 1271.83 943.2 1271.37 943.356 1270.51 943.511 1269.27 943.667 1268.96 943.667 1268.69 943.667 1268.46 943.667 1268.22 943.667 1267.95 943.744 1267.64 943.9L1266.01 943.9C1265.08 944.056 1264.07 944.211 1262.98 944.367 1261.9 944.522 1260.81 944.678 1259.72 944.833 1259.1 944.989 1258.09 945.222 1256.7 945.533 1256.07 945.689 1255.53 945.767 1255.07 945.767L1253.9 946C1252.97 946.156 1252.04 946.35 1251.11 946.583 1250.17 946.817 1249.24 947.089 1248.31 947.4 1247.69 947.4 1246.6 947.711 1245.05 948.333 1244.9 948.333 1244.66 948.372 1244.35 948.45 1244.04 948.528 1243.73 948.644 1243.42 948.8L1242.26 949.033C1239.93 949.811 1238.14 950.356 1236.9 950.667 1236.43 950.978 1235.58 951.367 1234.34 951.833 1233.72 952.145 1233.02 952.378 1232.24 952.533 1229.91 953.467 1227.89 954.322 1226.19 955.1 1225.25 955.411 1224.09 955.956 1222.69 956.733 1222.38 956.889 1221.92 957.122 1221.29 957.433 1220.36 957.9 1219.9 958.133 1219.9 958.133 1218.03 959.067 1216.64 959.767 1215.7 960.233 1214.93 960.7 1213.92 961.322 1212.68 962.1 1212.37 962.255 1212.09 962.411 1211.86 962.567 1211.63 962.722 1211.36 962.878 1211.05 963.033L1210.35 963.5C1208.48 964.589 1207.01 965.444 1205.92 966.067 1205.15 966.533 1204.14 967.311 1202.9 968.4 1202.12 968.867 1201.65 969.178 1201.5 969.333 1177.12 986.755 1159.89 1009.54 1149.79 1037.7 1152.59 1037.86 1155.38 1038.24 1158.18 1038.87 1169.67 1041.2 1179.6 1046.57 1187.99 1054.97 1196.37 1063.37 1201.73 1073.4 1204.06 1085.07 1204.53 1087.09 1204.84 1089.03 1204.99 1090.9 1210.74 1088.88 1216.33 1086.39 1221.76 1083.43 1242.26 1072.7 1259.18 1057.77 1272.53 1038.63L1272.77 1038.4C1273.54 1037.47 1274.01 1036.84 1274.16 1036.53 1276.49 1032.96 1278.74 1029.3 1280.92 1025.57 1280.92 1025.41 1281.23 1024.79 1281.85 1023.7 1281.85 1023.39 1282 1023 1282.31 1022.53 1283.87 1019.42 1285.26 1016.54 1286.51 1013.9 1286.66 1013.59 1286.82 1013.24 1286.97 1012.85 1287.13 1012.46 1287.28 1012.03 1287.44 1011.57 1287.75 1010.63 1287.98 1009.93 1288.14 1009.47 1289.22 1006.82 1290.16 1004.26 1290.93 1001.77 1291.55 999.9 1292.1 998.267 1292.56 996.867 1293.18 994.378 1293.88 991.655 1294.66 988.7 1294.66 988.544 1294.7 988.35 1294.77 988.117 1294.85 987.883 1294.89 987.611 1294.89 987.3 1295.2 985.744 1295.43 984.656 1295.59 984.033 1296.06 981.7 1296.52 978.667 1296.99 974.933 1297.14 974.311 1297.22 973.844 1297.22 973.533 1297.38 972.289 1297.45 971.356 1297.45 970.733 1297.76 968.711 1297.92 966.689 1297.92 964.667 1298.07 962.178 1298.15 959.611 1298.15 956.967 1298.15 955.1 1297.84 953.311 1297.22 951.6 1296.44 949.889 1295.51 948.411 1294.43 947.167 1294.27 947.167 1294.19 947.089 1294.19 946.933 1292.8 945.533 1291.24 944.522 1289.53 943.9 1287.67 943.122 1285.81 942.733 1283.94 942.733ZM1308.4 1002C1307.78 1004.33 1306.92 1007.06 1305.84 1010.17 1304.6 1013.74 1303.35 1016.93 1302.11 1019.73 1300.25 1024.09 1298.38 1027.9 1296.52 1031.17 1296.52 1031.48 1296.37 1031.94 1296.06 1032.57 1295.75 1033.19 1295.51 1033.58 1295.36 1033.73 1306.54 1036.84 1317.17 1041.12 1327.26 1046.57 1328.04 1044.86 1328.74 1043.3 1329.36 1041.9 1330.76 1038.32 1331.46 1034.59 1331.46 1030.7 1331.46 1026.81 1330.68 1023.08 1329.13 1019.5 1327.73 1015.92 1325.63 1012.73 1322.84 1009.93 1320.04 1007.29 1316.86 1005.27 1313.29 1003.87 1311.89 1003.24 1310.26 1002.62 1308.4 1002ZM1285.81 1048.67C1271.99 1068.27 1254.68 1083.98 1233.87 1095.8 1224.4 1101.09 1214.38 1105.44 1203.83 1108.87 1203.21 1112.29 1202.2 1115.63 1200.8 1118.9 1198.31 1124.66 1195.05 1129.87 1191.02 1134.53 1213.69 1145.27 1237.44 1149.7 1262.28 1147.83 1297.53 1145.34 1327.65 1131.58 1352.65 1106.53 1353.74 1105.44 1354.67 1104.12 1355.45 1102.57 1355.45 1102.41 1355.52 1102.18 1355.68 1101.87 1356.46 1100.16 1356.84 1098.37 1356.84 1096.5 1356.84 1094.63 1356.46 1092.77 1355.68 1090.9 1354.9 1089.19 1353.89 1087.71 1352.65 1086.47 1345.04 1078.84 1336.74 1072.16 1327.73 1066.4 1314.69 1058.31 1300.71 1052.4 1285.81 1048.67ZM1328.66 1145.5C1318.41 1151.1 1307.78 1155.53 1296.75 1158.8 1297.38 1159.89 1297.96 1161.06 1298.5 1162.3 1299.04 1163.54 1299.63 1164.79 1300.25 1166.03 1300.4 1166.66 1300.79 1167.59 1301.41 1168.83L1301.88 1169.53C1302.81 1171.4 1303.51 1172.96 1303.97 1174.2 1305.99 1179.18 1307.78 1184.23 1309.33 1189.37 1311.35 1188.59 1313.14 1187.89 1314.69 1187.27 1318.1 1185.71 1321.21 1183.61 1324 1180.97 1326.64 1178.17 1328.74 1174.98 1330.29 1171.4 1331.69 1167.82 1332.39 1164.09 1332.39 1160.2 1332.39 1156.31 1331.61 1152.58 1330.06 1149 1329.59 1148.07 1329.13 1146.9 1328.66 1145.5ZM1081.09 911.233C1075.19 911.233 1069.75 912.867 1064.78 916.133 1059.82 919.556 1056.24 923.989 1054.07 929.433 1053.76 930.211 1053.29 931.456 1052.67 933.167 1052.83 933.322 1052.98 933.4 1053.14 933.4 1053.29 933.4 1053.53 933.478 1053.84 933.633 1058.81 935.033 1063.7 936.667 1068.51 938.533 1069.13 938.844 1069.75 939.117 1070.37 939.35 1070.99 939.583 1071.54 939.855 1072 940.167 1072.62 940.478 1073.4 940.867 1074.33 941.333 1075.11 941.644 1076.12 942.111 1077.36 942.733 1078.6 943.2 1079.81 943.705 1080.97 944.25 1082.14 944.794 1083.26 945.378 1084.35 946 1087.45 935.267 1091.65 925.078 1096.92 915.433 1095.53 914.811 1093.9 914.111 1092.03 913.333 1088.46 911.933 1084.81 911.233 1081.09 911.233ZM1008.19 943.433C1006.17 943.433 1004.31 943.822 1002.6 944.6 1000.89 945.222 999.338 946.233 997.941 947.633 996.699 949.033 995.69 950.589 994.913 952.3 994.603 952.922 994.37 953.622 994.214 954.4 993.904 955.489 993.749 956.578 993.749 957.667 993.904 963.578 994.37 969.411 995.146 975.167L995.146 976.1C995.301 977.345 995.457 978.278 995.612 978.9 996.388 984.5 997.475 989.944 998.873 995.233 998.873 995.389 999.028 995.856 999.338 996.633 999.494 997.1 999.571 997.489 999.571 997.8 1000.97 1002.62 1002.68 1007.29 1004.7 1011.8 1004.7 1011.96 1004.85 1012.34 1005.16 1012.97 1005.32 1013.74 1005.47 1014.29 1005.63 1014.6 1007.8 1019.42 1010.21 1024.17 1012.85 1028.83L1013.78 1030.23C1036.76 1026.19 1059.58 1027.2 1082.25 1033.27 1094.05 1036.38 1105.31 1040.73 1116.02 1046.33 1118.66 1044.78 1121.38 1043.38 1124.17 1042.13 1129.92 1039.8 1135.9 1038.4 1142.11 1037.93 1132.17 1010.24 1115.25 987.767 1091.33 970.5 1091.02 970.189 1090.56 969.8 1089.94 969.333 1088.38 968.244 1087.3 967.467 1086.68 967 1085.59 966.378 1084.04 965.444 1082.02 964.2 1081.55 963.889 1081.01 963.578 1080.39 963.267 1080.23 963.111 1080.04 962.994 1079.81 962.917 1079.57 962.839 1079.3 962.722 1078.99 962.567 1077.9 961.789 1077.13 961.322 1076.66 961.167 1075.11 960.233 1073.17 959.222 1070.84 958.133L1069.44 957.433C1069.44 957.433 1068.98 957.2 1068.04 956.733 1067.27 956.267 1066.65 955.956 1066.18 955.8 1063.39 954.555 1060.05 953.233 1056.17 951.833 1056.17 951.833 1056.09 951.755 1055.93 951.6 1055.62 951.6 1055.39 951.522 1055.23 951.367 1053.99 950.9 1052.67 950.472 1051.28 950.083 1049.88 949.694 1048.48 949.344 1047.08 949.033L1046.38 948.8C1045.92 948.644 1045.53 948.489 1045.22 948.333 1044.75 948.178 1044.37 948.1 1044.06 948.1L1043.82 947.867C1043.51 947.867 1043.2 947.828 1042.89 947.75 1042.58 947.672 1042.27 947.555 1041.96 947.4 1041.03 947.245 1040.17 947.089 1039.4 946.933 1038.62 946.778 1037.77 946.622 1036.84 946.467L1036.37 946.233C1036.06 946.233 1035.79 946.195 1035.55 946.117 1035.32 946.039 1035.13 946 1034.97 946 1034.66 946 1034.35 945.922 1034.04 945.767 1032.64 945.456 1031.48 945.3 1030.55 945.3 1030.08 945.145 1029.77 945.067 1029.62 945.067 1028.37 944.911 1027.75 944.833 1027.75 944.833 1024.34 944.367 1020.77 943.978 1017.04 943.667 1014.09 943.511 1011.14 943.433 1008.19 943.433ZM983.967 1003.63C982.259 1004.26 980.551 1004.96 978.843 1005.73 971.545 1008.84 966.344 1014.13 963.239 1021.6 960.133 1028.91 960.133 1036.3 963.239 1043.77 963.86 1045.17 964.403 1046.33 964.869 1047.27 974.961 1041.67 985.52 1037.31 996.544 1034.2 995.922 1032.96 995.301 1031.71 994.68 1030.47 994.059 1029.22 993.516 1028.06 993.05 1026.97 992.74 1026.34 992.274 1025.33 991.653 1023.93L991.42 1023.23C990.954 1022.46 990.527 1021.68 990.139 1020.9 989.75 1020.12 989.401 1019.34 989.091 1018.57 987.227 1013.74 985.52 1008.77 983.967 1003.63ZM1041.26 1044.47C1034.89 1044.62 1028.61 1045.09 1022.4 1045.87 999.571 1048.98 978.61 1057.14 959.512 1070.37 952.836 1075.19 946.547 1080.56 940.647 1086.47 940.181 1086.93 939.793 1087.32 939.482 1087.63 938.706 1088.72 938.085 1089.81 937.619 1090.9 936.843 1092.61 936.455 1094.48 936.455 1096.5 936.455 1098.37 936.843 1100.16 937.619 1101.87 938.24 1103.58 939.25 1105.13 940.647 1106.53 959.124 1124.89 980.939 1137.26 1006.09 1143.63 1011.22 1136.01 1017.04 1128.93 1023.56 1122.4 1042.19 1103.58 1064.24 1090.28 1089.7 1082.5 1091.26 1075.81 1093.97 1069.59 1097.86 1063.83 1099.25 1061.81 1100.65 1059.94 1102.05 1058.23 1082.8 1049.06 1062.53 1044.47 1041.26 1044.47ZM1088.31 1100.93C1082.25 1103.11 1076.35 1105.68 1070.61 1108.63 1050.11 1119.21 1033.19 1133.99 1019.83 1152.97 1019.68 1153.12 1019.52 1153.32 1019.37 1153.55 1019.21 1153.78 1019.06 1154.06 1018.9 1154.37 1018.44 1155.14 1018.05 1155.69 1017.74 1156 1015.41 1159.42 1013.23 1163.08 1011.22 1166.97 1010.91 1167.28 1010.67 1167.74 1010.52 1168.37 1010.52 1168.06 1010.28 1168.37 1009.82 1169.3 1008.27 1172.57 1006.87 1175.6 1005.63 1178.4 1005.32 1179.02 1004.85 1180.03 1004.23 1181.43 1004.07 1181.9 1004 1182.13 1004 1182.13 1004 1182.29 1003.92 1182.52 1003.76 1182.83 1002.68 1185.63 1001.75 1188.28 1000.97 1190.77 1000.35 1192.48 999.882 1194.03 999.571 1195.43 998.795 1197.92 998.096 1200.64 997.475 1203.6L997.009 1205C996.699 1206.56 996.466 1207.64 996.311 1208.27 995.845 1211.07 995.379 1214.1 994.913 1217.37 994.913 1217.99 994.913 1218.46 994.913 1218.77 994.603 1220.01 994.447 1220.94 994.447 1221.57 994.292 1223.9 994.137 1226.23 993.982 1228.57 993.826 1230.74 993.749 1232.92 993.749 1235.1 993.749 1238.83 994.913 1242.02 997.242 1244.67 997.553 1244.98 997.786 1245.21 997.941 1245.37 1000.74 1248.17 1004.15 1249.57 1008.19 1249.57 1012.23 1249.57 1016.34 1249.41 1020.53 1249.1 1021 1248.94 1021.77 1248.79 1022.86 1248.63 1023.17 1248.63 1023.44 1248.59 1023.68 1248.52 1023.91 1248.44 1024.18 1248.4 1024.49 1248.4L1026.12 1248.17C1027.21 1248.17 1028.3 1248.09 1029.38 1247.93 1030.47 1247.78 1031.56 1247.62 1032.64 1247.47 1033.26 1247.31 1034.27 1247.08 1035.67 1246.77 1036.91 1246.46 1037.53 1246.3 1037.53 1246.3 1037.84 1246.3 1038.16 1246.26 1038.47 1246.18 1038.78 1246.11 1039.09 1246.07 1039.4 1246.07 1041.42 1245.6 1043.05 1245.21 1044.29 1244.9 1045.06 1244.59 1046.07 1244.28 1047.32 1243.97 1048.56 1243.5 1049.26 1243.27 1049.41 1243.27 1049.88 1243.11 1050.34 1242.96 1050.81 1242.8 1052.98 1242.18 1054.61 1241.71 1055.7 1241.4 1056.48 1241.09 1057.64 1240.62 1059.19 1240 1060.13 1239.53 1060.59 1239.3 1060.59 1239.3 1062.61 1238.68 1064.63 1237.9 1066.65 1236.97 1067.11 1236.66 1067.62 1236.38 1068.16 1236.15 1068.7 1235.92 1069.29 1235.64 1069.91 1235.33 1070.22 1235.18 1070.76 1234.87 1071.54 1234.4 1071.69 1234.4 1071.85 1234.36 1072 1234.28 1072.16 1234.21 1072.31 1234.17 1072.47 1234.17 1072.47 1234.01 1072.7 1233.86 1073.17 1233.7 1075.03 1232.77 1076.35 1232.07 1077.13 1231.6 1077.75 1231.29 1078.91 1230.59 1080.62 1229.5 1081.09 1229.19 1081.48 1228.96 1081.79 1228.8 1082.1 1228.64 1082.64 1228.33 1083.42 1227.87 1085.12 1226.78 1086.29 1226 1086.91 1225.53 1087.84 1225.07 1088.85 1224.37 1089.94 1223.43 1091.02 1222.66 1091.57 1222.27 1091.57 1222.27 1115.32 1205.16 1132.17 1182.76 1142.11 1155.07 1127.67 1153.82 1115.4 1148.14 1105.31 1138.03 1095.06 1127.77 1089.39 1115.4 1088.31 1100.93ZM1177.28 1146.43C1169.2 1151.41 1160.51 1154.29 1151.19 1155.07 1161.13 1182.76 1177.97 1205.16 1201.73 1222.27 1202.04 1222.58 1202.31 1222.81 1202.55 1222.97 1202.78 1223.12 1203.05 1223.28 1203.36 1223.43 1204.45 1224.37 1205.38 1225.07 1206.16 1225.53 1206.93 1226 1207.67 1226.47 1208.37 1226.93 1209.07 1227.4 1209.73 1227.79 1210.35 1228.1L1211.51 1228.8C1211.82 1229.11 1212.37 1229.42 1213.14 1229.73 1214.7 1230.67 1215.7 1231.29 1216.17 1231.6 1217.26 1232.22 1218.65 1232.92 1220.36 1233.7 1220.52 1233.86 1220.75 1234.01 1221.06 1234.17 1221.37 1234.32 1221.68 1234.48 1221.99 1234.63 1222.3 1234.79 1222.77 1235.02 1223.39 1235.33 1224.79 1236.11 1225.87 1236.66 1226.65 1236.97 1227.43 1237.28 1228.2 1237.59 1228.98 1237.9 1229.76 1238.21 1230.53 1238.52 1231.31 1238.83L1232.71 1239.53C1233.17 1239.69 1233.79 1239.92 1234.57 1240.23 1235.97 1240.86 1236.98 1241.24 1237.6 1241.4 1238.84 1241.87 1240.55 1242.41 1242.72 1243.03L1244.12 1243.5C1244.9 1243.66 1245.44 1243.81 1245.75 1243.97 1247.15 1244.43 1248.23 1244.74 1249.01 1244.9 1250.25 1245.21 1252.04 1245.6 1254.37 1246.07 1254.68 1246.07 1255.22 1246.22 1256 1246.53 1256.46 1246.53 1257.08 1246.61 1257.86 1246.77 1259.1 1247.08 1260.03 1247.31 1260.65 1247.47 1262.21 1247.78 1264.3 1248.01 1266.94 1248.17L1268.81 1248.4C1269.12 1248.56 1269.66 1248.63 1270.44 1248.63 1271.68 1248.79 1272.46 1248.94 1272.77 1249.1 1276.96 1249.41 1281.07 1249.57 1285.11 1249.57 1286.97 1249.57 1288.84 1249.18 1290.7 1248.4 1292.41 1247.62 1293.88 1246.61 1295.12 1245.37 1296.52 1243.97 1297.61 1242.41 1298.38 1240.7 1298.54 1240.08 1298.62 1239.61 1298.62 1239.3 1298.93 1238.68 1299.08 1238.21 1299.08 1237.9 1299.24 1236.97 1299.32 1236.11 1299.32 1235.33L1299.32 1235.1C1299.32 1229.34 1298.93 1223.59 1298.15 1217.83L1298.15 1216.9C1298 1215.66 1297.84 1214.72 1297.69 1214.1 1296.91 1208.66 1295.82 1203.21 1294.43 1197.77 1294.27 1197.46 1294.11 1196.99 1293.96 1196.37 1293.8 1196.06 1293.73 1195.82 1293.73 1195.67 1293.73 1195.51 1293.65 1195.36 1293.49 1195.2 1292.1 1190.38 1290.47 1185.63 1288.6 1180.97L1288.37 1180.5C1287.9 1179.26 1287.59 1178.56 1287.44 1178.4 1285.26 1173.58 1282.86 1168.76 1280.22 1163.93 1280.06 1163.62 1279.83 1163.31 1279.52 1163L1279.29 1162.77C1270.13 1164.32 1260.97 1165.1 1251.8 1165.1 1225.41 1165.1 1200.57 1158.88 1177.28 1146.43ZM1146.53 1185.87C1134.73 1206.56 1119.13 1223.67 1099.72 1237.2 1105.93 1262.4 1118.2 1284.26 1136.52 1302.77 1139.31 1305.57 1142.65 1306.97 1146.53 1306.97 1150.57 1306.97 1153.99 1305.57 1156.78 1302.77 1175.1 1284.26 1187.37 1262.4 1193.58 1237.2 1174.17 1223.67 1158.49 1206.56 1146.53 1185.87ZM1208.95 1247C1205.85 1257.58 1201.65 1267.69 1196.37 1277.33 1198.08 1278.11 1199.63 1278.81 1201.03 1279.43 1204.6 1280.83 1208.33 1281.53 1212.21 1281.53 1216.09 1281.53 1219.82 1280.76 1223.39 1279.2 1226.96 1277.8 1230.14 1275.7 1232.94 1272.9 1235.58 1270.1 1237.68 1266.91 1239.23 1263.33 1239.69 1262.09 1240.08 1261 1240.39 1260.07 1240.08 1259.91 1239.73 1259.76 1239.34 1259.6 1238.96 1259.44 1238.61 1259.29 1238.3 1259.13 1237.83 1258.98 1237.36 1258.82 1236.9 1258.67 1236.43 1258.51 1235.97 1258.43 1235.5 1258.43 1235.19 1258.28 1234.88 1258.12 1234.57 1257.97 1234.26 1257.81 1233.87 1257.73 1233.41 1257.73 1232.01 1257.27 1230.61 1256.8 1229.21 1256.33 1227.82 1255.87 1226.42 1255.32 1225.02 1254.7 1223.47 1254.08 1221.88 1253.34 1220.25 1252.48 1218.62 1251.63 1216.95 1250.81 1215.24 1250.03L1214.31 1249.57C1214.15 1249.57 1213.45 1249.26 1212.21 1248.63 1210.66 1248.01 1209.57 1247.47 1208.95 1247ZM1084.58 1247C1083.8 1247.47 1082.8 1247.93 1081.55 1248.4 1080.47 1248.87 1079.69 1249.26 1079.22 1249.57L1077.36 1250.5C1075.81 1251.12 1074.29 1251.82 1072.82 1252.6 1071.34 1253.38 1069.83 1254.08 1068.28 1254.7 1066.88 1255.17 1065.52 1255.63 1064.2 1256.1 1062.88 1256.57 1061.6 1257.03 1060.36 1257.5 1059.43 1257.81 1058.57 1258.04 1057.8 1258.2 1056.71 1258.67 1055.86 1258.98 1055.23 1259.13L1054.07 1259.6C1054.54 1261.16 1055.16 1262.79 1055.93 1264.5 1058.26 1269.79 1061.83 1274.07 1066.65 1277.33 1071.46 1280.6 1076.82 1282.23 1082.72 1282.23 1086.75 1282.23 1090.56 1281.46 1094.13 1279.9 1095.68 1279.28 1096.77 1278.81 1097.39 1278.5 1091.96 1268.39 1087.69 1257.89 1084.58 1247ZM966.033 1146.2C965.257 1147.76 964.558 1149.39 963.937 1151.1 960.987 1158.41 961.065 1165.8 964.17 1173.27 967.275 1180.73 972.477 1185.94 979.775 1188.9 981.172 1189.52 982.414 1190.07 983.501 1190.53 984.433 1187.27 985.597 1183.92 986.995 1180.5 986.995 1180.34 987.15 1179.8 987.461 1178.87 987.926 1177.62 988.314 1176.53 988.625 1175.6 990.799 1170 993.361 1164.56 996.311 1159.27 996.466 1159.11 996.544 1158.96 996.544 1158.8 985.83 1155.69 975.66 1151.49 966.033 1146.2Z" fill="#66A898" fill-rule="evenodd"/>
  </g>
</svg>