<svg width="825" height="492"
  xmlns="http://www.w3.org/2000/svg"
  xmlns:xlink="http://www.w3.org/1999/xlink" xml:space="preserve" overflow="hidden">
  <defs>
    <clipPath id="clip0">
      <rect x="963" y="179" width="825" height="492"/>
    </clipPath>
  </defs>
  <g clip-path="url(#clip0)" transform="translate(-963 -179)">
    <path d="M1246.08 654.81C1246.81 654.81 1248.17 655.285 1250.15 656.235 1253.43 658.307 1255.07 660.358 1255.07 662.387 1255.07 664.762 1253.63 665.949 1250.74 665.949 1240.17 664.654 1233.46 664.006 1230.61 664.006 1226.77 664.006 1221.74 665.064 1215.53 667.179 1211.52 668.561 1208.97 669.252 1207.9 669.252 1202.24 667.956 1199.42 665.647 1199.42 662.322 1199.42 661.329 1199.79 660.833 1200.52 660.833 1201.25 660.833 1202.07 661.416 1202.98 662.581 1216.09 660.034 1228.82 658.307 1241.16 657.401 1243.44 655.674 1245.08 654.81 1246.08 654.81ZM1232.42 638.88C1236.99 639.873 1239.28 641.362 1239.28 643.348 1239.28 644.73 1237.75 645.744 1234.69 646.392 1224.42 651.141 1217.3 653.861 1213.33 654.551 1217.3 652.522 1220.79 650.364 1223.81 648.075L1217.99 648.075C1216.39 648.075 1215.01 647.687 1213.85 646.91 1212.08 645.485 1211.2 644.449 1211.2 643.801 1211.2 642.981 1211.54 642.571 1212.23 642.571L1215.6 643.024C1219.57 642.549 1223.12 641.902 1226.27 641.082 1228.86 639.614 1230.91 638.88 1232.42 638.88ZM1679 634.541C1682.54 634.541 1686.51 636.225 1690.91 639.592 1696.77 642.916 1701.04 644.578 1703.72 644.578 1706.39 644.578 1709.24 643.542 1712.26 641.47 1714.59 639.743 1716.27 638.88 1717.31 638.88 1718.6 638.88 1719.25 639.484 1719.25 640.693 1719.25 641.902 1717.11 644.233 1712.84 647.687 1709.26 650.623 1705.49 652.09 1701.52 652.09 1697.98 652.09 1694.01 650.407 1689.61 647.039 1683.74 643.715 1679.47 642.053 1676.8 642.053 1674.12 642.053 1671.28 643.089 1668.26 645.161 1665.93 646.888 1664.24 647.752 1663.21 647.752 1661.92 647.752 1661.27 647.147 1661.27 645.938 1661.27 644.73 1663.4 642.398 1667.67 638.945 1671.26 636.009 1675.03 634.541 1679 634.541ZM1049.48 634.541C1053.02 634.541 1056.99 636.225 1061.39 639.592 1067.26 642.916 1071.53 644.578 1074.2 644.578 1076.88 644.578 1079.72 643.542 1082.74 641.47 1085.07 639.743 1086.76 638.88 1087.79 638.88 1089.08 638.88 1089.73 639.484 1089.73 640.693 1089.73 641.902 1087.6 644.233 1083.33 647.687 1079.74 650.623 1075.97 652.09 1072 652.09 1068.46 652.09 1064.49 650.407 1060.09 647.039 1054.23 643.715 1049.96 642.053 1047.28 642.053 1044.61 642.053 1041.76 643.089 1038.74 645.161 1036.41 646.888 1034.73 647.752 1033.69 647.752 1032.4 647.752 1031.75 647.147 1031.75 645.938 1031.75 644.73 1033.89 642.398 1038.16 638.945 1041.74 636.009 1045.51 634.541 1049.48 634.541ZM1356.73 633.829C1352.55 635.728 1348.86 638.275 1345.67 641.47 1342.65 644.924 1341.14 647.601 1341.14 649.5 1341.14 651.4 1342.43 653.364 1345.02 655.393 1347.57 653.019 1350.24 649.155 1353.04 643.801 1354.77 640.52 1356 637.196 1356.73 633.829ZM1442.54 625.475C1443.75 625.475 1445.52 626.511 1447.85 628.583 1449.62 630.353 1450.5 631.908 1450.5 633.246 1450.5 634.8 1449.4 635.901 1447.2 636.549 1442.02 641.557 1438.72 644.665 1437.3 645.874 1435.06 647.773 1432.21 649.522 1428.76 651.119 1431.61 652.76 1433.55 654.659 1434.58 656.818 1435.36 658.588 1435.75 660.164 1435.75 661.545 1435.75 663.013 1435.44 664.157 1434.84 664.977 1434.32 665.755 1433.55 666.143 1432.51 666.143 1431.73 666.143 1430.72 665.603 1429.47 664.524 1427.44 664.61 1424.79 664.654 1421.51 664.654L1421.45 664.265C1423.73 663.186 1425.67 661.912 1427.27 660.444 1424.77 657.293 1420.3 653.494 1413.87 649.047 1412.8 648.529 1412.26 647.838 1412.26 646.975 1412.26 646.068 1412.8 645.615 1413.87 645.615 1415.73 645.615 1419.35 646.651 1424.75 648.723 1426.86 646.996 1428.69 645.312 1430.25 643.672 1433.05 640.952 1436.03 637.218 1439.18 632.469 1433.44 632.641 1425.07 634.714 1414.07 638.686 1412.21 639.247 1410.7 639.527 1409.54 639.527 1408.03 639.527 1406.13 638.794 1403.84 637.326 1402.46 636.419 1401.67 635.707 1401.45 635.189 1401.23 634.627 1401.13 633.98 1401.13 633.246 1401.13 632.123 1401.67 631.562 1402.74 631.562 1403.22 631.562 1404.3 631.994 1405.98 632.857 1417.45 629.749 1428.35 627.806 1438.66 627.029 1440.56 625.993 1441.85 625.475 1442.54 625.475ZM1575.98 624.439C1577.23 624.439 1578.72 625.475 1580.44 627.547 1581.87 629.101 1582.58 630.656 1582.58 632.21 1582.58 634.411 1581.18 635.512 1578.37 635.512 1573.41 638.88 1568.41 641.47 1563.36 643.283 1562.41 654.379 1557.81 662.366 1549.57 667.244 1546.56 668.971 1544.7 669.834 1544.01 669.834 1543.36 669.834 1543.04 669.489 1543.04 668.798 1543.04 668.28 1543.36 667.762 1544.01 667.244 1551.65 660.38 1555.66 651.508 1556.05 640.628 1554.45 639.29 1553.65 638.319 1553.65 637.714 1553.65 637.282 1553.93 636.786 1554.49 636.225 1555.01 635.663 1555.61 635.383 1556.31 635.383 1557.21 635.383 1558.16 635.685 1559.15 636.289 1560.71 637.326 1561.74 638.319 1562.26 639.268 1565.84 636.851 1568.95 633.872 1571.58 630.332 1565.02 630.332 1557.15 632.188 1547.96 635.901 1546.4 636.333 1545.15 636.549 1544.2 636.549 1543 636.549 1541.49 635.793 1539.67 634.282 1537.86 632.641 1536.96 631.368 1536.96 630.461 1536.96 629.641 1537.34 629.231 1538.12 629.231 1538.77 629.231 1539.57 629.49 1540.52 630.008 1553.33 627.288 1564.37 625.691 1573.65 625.216 1574.73 624.698 1575.5 624.439 1575.98 624.439ZM1359.84 623.856C1360.31 623.856 1360.79 624.352 1361.26 625.345 1361.48 625.734 1361.74 626.597 1362.04 627.936 1362.69 627.892 1363.27 627.871 1363.79 627.871 1366.85 627.871 1369.93 628.648 1373.04 630.202 1379.43 633.786 1382.62 639.204 1382.62 646.457 1382.62 654.184 1378.43 659.948 1370.06 663.747 1365.92 665.647 1362.88 666.596 1360.94 666.596 1360.29 666.596 1359.97 666.359 1359.97 665.884 1359.97 665.323 1360.66 664.654 1362.04 663.877 1370.67 657.185 1374.98 650.472 1374.98 643.737 1374.98 641.017 1373.97 638.427 1371.94 635.966 1369.52 633.764 1366.81 632.663 1363.79 632.663 1363.31 632.663 1362.84 632.706 1362.36 632.793 1359.77 643.456 1355.98 651.832 1350.97 657.919 1349.55 659.689 1348.13 661.092 1346.7 662.128 1345.8 662.862 1344.39 663.229 1342.5 663.229 1340.9 663.229 1339.99 662.517 1339.78 661.092 1339.69 660.358 1339.46 658.264 1339.07 654.81 1338.38 652.522 1337.88 650.839 1337.58 649.759 1337.23 648.075 1337.06 646.78 1337.06 645.874 1337.06 642.938 1339.28 639.506 1343.73 635.577 1348.04 632.123 1352.85 629.727 1358.16 628.389 1358.2 625.367 1358.76 623.856 1359.84 623.856ZM1478 623.532C1479.3 623.532 1480.7 624.417 1482.21 626.187 1483.63 627.698 1484.35 629.533 1484.35 631.692 1484.35 632.771 1484.11 635.361 1483.63 639.463 1486.01 636.441 1488.19 633.116 1490.17 629.49L1490.49 629.619C1489.2 635.102 1487.19 640.952 1484.47 647.169 1484.35 649.284 1484.11 650.579 1483.76 651.054 1483.12 651.918 1482.3 652.349 1481.3 652.349 1480.44 652.349 1479.56 651.659 1478.65 650.277 1477.49 648.378 1476.9 646.457 1476.9 644.514 1476.9 642.701 1477.05 640.693 1477.36 638.491 1477.87 634.778 1478.13 631.411 1478.13 628.389 1477.23 626.403 1476.77 625.108 1476.77 624.503 1476.77 623.856 1477.18 623.532 1478 623.532ZM1184.02 623.014C1184.97 623.014 1186.15 623.575 1187.58 624.698 1189 625.863 1189.71 627.094 1189.71 628.389 1189.71 629.382 1189.37 630.656 1188.68 632.21 1185.18 641.708 1182.05 652.004 1179.29 663.099 1178.39 666.294 1177.03 667.892 1175.22 667.892 1173.4 667.892 1172.3 666.661 1171.92 664.2 1168.51 652.501 1165.38 641.945 1162.53 632.534 1161.8 630.03 1161.43 628.238 1161.43 627.159 1161.43 626.209 1162.06 625.259 1163.31 624.309 1164.34 623.705 1165.23 623.403 1165.96 623.403 1167.9 623.403 1169 624.87 1169.26 627.806 1170.64 636.095 1172.63 645.636 1175.22 656.429 1177.5 647.277 1179.66 637.649 1181.69 627.547 1181.08 626.641 1180.78 625.907 1180.78 625.345 1180.78 624.741 1181.02 624.245 1181.49 623.856 1182.23 623.295 1183.07 623.014 1184.02 623.014ZM1234.95 620.747C1239.35 621.611 1241.55 622.82 1241.55 624.374 1241.55 625.971 1240.55 627.094 1238.57 627.741L1232.42 629.749C1223.97 633.332 1217.52 635.512 1213.07 636.289 1216.09 634.606 1219.16 632.728 1222.26 630.656L1218.38 630.979C1216.7 630.979 1214.8 630.44 1212.68 629.36 1210.96 628.367 1210.1 627.504 1210.1 626.77 1210.1 626.166 1210.4 625.777 1211 625.604L1213.91 626.122C1218.57 625.389 1223.23 624.352 1227.89 623.014 1231.52 621.503 1233.87 620.747 1234.95 620.747ZM1295.71 620.294C1297.26 620.294 1298.47 620.575 1299.33 621.136 1302.09 623.51 1303.48 625.54 1303.48 627.223 1303.48 627.871 1302.74 629.123 1301.28 630.979 1298.21 635.383 1294.44 640.412 1289.95 646.068 1301.94 648.011 1309.73 649.932 1313.31 651.832 1319.44 656.365 1322.5 660.488 1322.5 664.2 1322.5 666.488 1321.38 667.633 1319.14 667.633 1317.97 667.633 1316.7 667.287 1315.32 666.596 1310.57 666.596 1306.54 666.359 1303.22 665.884 1306.15 665.064 1308.52 664.049 1310.33 662.84 1300.63 656.494 1292.93 652.198 1287.23 649.953 1282.62 655.652 1277.61 659.689 1272.22 662.063 1268.81 663.704 1266.52 664.524 1265.36 664.524 1264.67 664.524 1264.32 664.028 1264.32 663.035 1264.32 662.301 1265.92 660.962 1269.11 659.02 1276.53 653.105 1284.9 641.88 1294.22 625.345 1292.97 623.921 1292.34 622.928 1292.34 622.366 1292.34 621.848 1292.75 621.352 1293.57 620.877 1294.26 620.488 1294.98 620.294 1295.71 620.294ZM1500.78 620.1C1501.99 620.1 1503.26 620.877 1504.6 622.431 1506.71 624.978 1507.77 626.964 1507.77 628.389 1507.77 629.166 1507.53 630.461 1507.06 632.274 1506.63 647.169 1504.23 656.861 1499.88 661.351 1497.03 664.546 1494.07 666.985 1491.01 668.669 1487.78 670.223 1485.7 671 1484.8 671 1484.32 671 1484.09 670.763 1484.09 670.288 1484.09 669.813 1484.45 669.273 1485.19 668.669 1487.73 666.251 1490.06 663.79 1492.18 661.286 1495.76 656.58 1498.04 651.119 1499.03 644.902 1499.42 641.362 1499.62 637.239 1499.62 632.534 1499.62 629.9 1499.49 627.72 1499.23 625.993 1497.29 624.007 1496.32 622.669 1496.32 621.978 1496.32 621.546 1496.53 621.201 1496.96 620.942 1497.87 620.381 1499.14 620.1 1500.78 620.1ZM1712.92 526.311 1708.78 531.664 1705.94 535.176 1707.99 536.309C1709.67 537.706 1710.54 539.801 1710.61 542.595 1710.53 545.13 1709.77 547.044 1708.31 548.335 1706.86 549.626 1705.18 550.274 1703.26 550.277 1702.48 550.277 1701.81 550.234 1701.25 550.146 1700.69 550.059 1700.2 549.928 1699.77 549.754 1699.5 550.187 1699.29 550.675 1699.13 551.219 1698.98 551.762 1698.9 552.382 1698.89 553.079 1698.9 556.786 1699.89 559.66 1701.87 561.703 1703.84 563.746 1706.75 564.782 1710.61 564.812 1715.59 564.695 1719.31 563.221 1721.78 560.39 1724.24 557.559 1725.48 554.072 1725.47 549.928 1725.29 546.736 1724.04 543.575 1721.71 540.445 1719.38 537.315 1717.05 534.165 1714.72 530.994ZM1656.6 501.845C1652.96 501.972 1649.25 503.742 1645.47 507.156 1641.69 510.57 1638.19 514.87 1634.97 520.058 1631.74 525.246 1629.13 530.563 1627.15 536.011 1625.16 541.458 1624.14 546.278 1624.08 550.471 1624.04 552.519 1624.43 554.458 1625.26 556.287 1626.09 558.116 1627.62 559.093 1629.85 559.216 1633.3 558.996 1637.7 556.288 1643.05 551.093 1648.4 545.897 1653.22 539.535 1657.5 532.008 1661.78 524.48 1664.04 517.108 1664.29 509.891 1664.21 507.26 1663.41 505.263 1661.89 503.901 1660.36 502.538 1658.6 501.853 1656.6 501.845ZM1429.13 501.845C1425.49 501.972 1421.78 503.742 1418.01 507.156 1414.23 510.57 1410.73 514.87 1407.5 520.058 1404.27 525.246 1401.67 530.563 1399.68 536.011 1397.7 541.458 1396.67 546.278 1396.62 550.471 1396.57 552.519 1396.97 554.458 1397.8 556.287 1398.63 558.116 1400.16 559.093 1402.39 559.216 1405.84 558.996 1410.24 556.288 1415.59 551.093 1420.94 545.897 1425.75 539.535 1430.03 532.008 1434.31 524.48 1436.58 517.108 1436.82 509.891 1436.74 507.26 1435.94 505.263 1434.42 503.901 1432.9 502.538 1431.14 501.853 1429.13 501.845ZM1602.95 462.352C1606.44 462.436 1609.32 463.623 1611.61 465.911 1613.9 468.201 1615.09 471.091 1615.17 474.581 1615.09 478.071 1613.9 480.96 1611.61 483.249 1609.32 485.538 1606.44 486.725 1602.95 486.809 1599.46 486.725 1596.57 485.538 1594.29 483.249 1592 480.96 1590.81 478.071 1590.73 474.581 1590.81 471.091 1592 468.201 1594.29 465.911 1596.57 463.623 1599.46 462.436 1602.95 462.352ZM1355.21 436.825 1356.61 438.921C1346.75 444.186 1339.13 451.064 1333.73 459.556 1328.33 468.047 1323.73 477.485 1319.94 487.869 1316.14 498.253 1311.73 508.916 1306.7 519.858 1301.68 530.8 1294.61 541.354 1285.5 551.521L1285.84 551.871C1291.54 546.789 1297 541.506 1302.24 536.022 1307.48 530.538 1313.28 523.869 1319.65 516.015 1326.02 508.16 1333.73 498.136 1342.8 485.942 1352.94 471.957 1364.37 460.63 1377.09 451.962 1389.81 443.294 1404.3 438.831 1420.55 438.573 1424.77 438.559 1427.74 438.849 1429.44 439.443 1431.15 440.038 1431.97 441.024 1431.91 442.401 1431.88 443.128 1431.37 443.769 1430.38 444.322 1429.39 444.875 1428.1 445.167 1426.49 445.196 1424.6 445.185 1422.97 445.076 1421.6 444.868 1420.23 444.66 1418.95 444.42 1417.76 444.147 1416.92 443.95 1415.8 443.731 1414.39 443.491 1412.99 443.25 1411.61 443.119 1410.25 443.097 1406.06 443.217 1401.16 446.868 1395.55 454.049 1389.94 461.23 1384.65 471.22 1379.67 484.019 1374.72 497.497 1369.65 509.246 1364.48 519.266 1359.31 529.286 1352.99 537.848 1345.53 544.954 1338.06 552.059 1328.42 557.979 1316.6 562.713L1316.6 563.059 1316.94 563.059C1323.5 563.081 1330.14 562.514 1336.86 561.356 1343.59 560.199 1349.88 558.319 1355.73 555.718 1361.82 553.033 1367.86 548.741 1373.86 542.843L1374.57 542.085 1375.67 535.459C1376.8 531.961 1378.48 528.455 1380.7 524.939 1385.15 517.907 1391.34 512.003 1399.28 507.226 1407.22 502.449 1416.47 499.963 1427.04 499.769 1431.55 499.849 1435.01 500.996 1437.43 503.212 1439.84 505.428 1441.38 508.237 1442.04 511.64L1442.39 511.64 1446.94 502.562 1471.75 501.867C1468.99 505.942 1465.16 511.493 1460.25 518.519 1455.35 525.546 1450.85 532.642 1446.78 539.807 1442.71 546.973 1440.55 552.801 1440.3 557.291 1440.31 558.957 1440.68 560.217 1441.39 561.074 1442.1 561.93 1443.08 562.36 1444.32 562.364 1447.63 562.261 1451.66 560.251 1456.43 556.332 1458.81 554.373 1461.3 552.091 1463.91 549.486L1466.09 547.121 1491.37 502.565 1516.53 501.867 1489.79 541.365 1490.14 541.715C1496.55 532.523 1502.52 525.13 1508.03 519.537 1513.54 513.943 1518.41 510.263 1522.64 508.494 1524.67 505.914 1526.62 503.969 1528.46 502.659 1530.31 501.348 1533.12 500.426 1536.89 499.893 1540.66 499.359 1546.44 498.969 1554.24 498.72 1551.37 501.595 1548.69 505.044 1546.19 509.066 1543.68 513.087 1542.35 517.153 1542.19 521.264 1542.17 523.824 1542.77 526.099 1544 528.09 1545.23 530.082 1547.19 531.132 1549.88 531.241 1551.69 531.159 1553.46 530.773 1555.18 530.084L1560.14 527.156 1561.18 525.307C1564.94 518.689 1569.43 511.107 1574.64 502.562L1599.63 501.867C1594.53 509.862 1589.72 517.465 1585.21 524.674 1580.69 531.883 1577 538.258 1574.15 543.798 1571.3 549.338 1569.83 553.603 1569.74 556.592 1569.72 558.286 1570.02 559.663 1570.64 560.724 1571.25 561.784 1572.3 562.331 1573.76 562.364 1577.29 562.218 1581.22 560.432 1585.55 557.007 1589.89 553.582 1594.23 549.391 1598.58 544.435L1602.43 539.708 1603.14 535.459C1604.27 531.961 1605.95 528.455 1608.17 524.939 1612.61 517.907 1618.81 512.003 1626.75 507.226 1634.69 502.449 1643.94 499.963 1654.5 499.769 1659.02 499.849 1662.48 500.996 1664.89 503.212 1667.3 505.428 1668.84 508.237 1669.51 511.64L1669.86 511.64 1674.4 502.562 1699.21 501.867C1696.46 505.942 1692.63 511.493 1687.72 518.519 1682.81 525.546 1678.32 532.642 1674.25 539.807 1670.17 546.973 1668.01 552.801 1667.76 557.291 1667.78 558.957 1668.14 560.217 1668.85 561.074 1669.57 561.93 1670.54 562.36 1671.78 562.364 1675.09 562.261 1679.13 560.251 1683.9 556.332L1688.54 552.079 1688.08 548.182C1688.2 543.857 1689.58 540.459 1692.2 537.989 1694.83 535.52 1697.99 534.261 1701.69 534.213L1704.56 534.648 1708.07 530.438 1712.38 524.911 1710.97 521.26C1711.03 515.467 1713.57 510.486 1718.61 506.317 1723.64 502.148 1730.82 499.965 1740.14 499.769 1746.98 499.786 1752.47 500.927 1756.62 503.19 1760.77 505.454 1762.9 508.737 1763.01 513.039 1762.93 516.329 1761.83 518.975 1759.72 520.976 1757.61 522.976 1754.98 524.003 1751.85 524.058 1750.46 524.058 1749.14 523.883 1747.9 523.534 1746.66 523.184 1745.47 522.659 1744.34 521.959 1745.14 520.742 1745.77 519.416 1746.24 517.98 1746.71 516.545 1746.95 514.956 1746.96 513.214 1746.98 510.215 1746.29 507.599 1744.91 505.365 1743.52 503.132 1741.35 501.958 1738.39 501.845 1735.66 501.885 1733.55 502.811 1732.07 504.622 1730.59 506.433 1729.84 508.889 1729.82 511.99 1730.02 515.829 1731.46 519.364 1734.13 522.594 1736.79 525.825 1739.46 529.152 1742.12 532.577 1744.79 536.002 1746.22 539.925 1746.42 544.347 1746.42 548.25 1745.5 551.595 1743.67 554.383 1741.83 557.17 1739.09 559.597 1735.42 561.663L1735.77 562.013C1742.51 560.054 1749.03 556.82 1755.32 552.309 1761.62 547.798 1767.45 542.568 1772.81 536.619 1778.18 530.67 1782.83 524.559 1786.78 518.286L1788 519.692C1782.32 528.309 1776.07 536.169 1769.23 543.271 1762.39 550.373 1754.43 556.057 1745.34 560.323 1736.25 564.589 1725.49 566.778 1713.06 566.888 1705.82 566.929 1699.89 565.452 1695.26 562.458 1692.94 560.96 1691.19 559.022 1689.99 556.643L1689.09 554.089 1682.32 560.021C1676.5 564.462 1670.6 566.751 1664.62 566.888 1659.48 566.781 1655.8 565.675 1653.57 563.571 1651.34 561.466 1649.98 559.001 1649.5 556.178 1649.01 553.353 1648.82 550.809 1648.92 548.546L1648.39 548.196C1644.7 552.801 1640.32 557.009 1635.25 560.821 1630.19 564.634 1624.54 566.655 1618.32 566.888 1612.81 566.933 1608.61 565.275 1605.73 561.915 1602.86 558.554 1601.41 553.224 1601.39 545.922L1601.96 542.498 1595.44 550.12C1590.15 555.639 1585.18 559.812 1580.54 562.636 1575.9 565.461 1570.85 566.878 1565.38 566.888 1560.65 566.842 1557.06 565.453 1554.6 562.724 1552.14 559.994 1550.91 556.201 1550.89 551.344 1551.03 546.151 1553.29 539.571 1557.66 531.603L1558.75 529.644 1554.59 532.453C1550.25 534.534 1544.72 535.638 1538 535.766 1532.26 535.631 1527.76 534.068 1524.49 531.075 1521.22 528.081 1519.56 524.461 1519.5 520.214 1519.49 518.558 1519.59 517.056 1519.8 515.706 1520.01 514.357 1520.38 513.118 1520.89 511.987L1520.89 511.637C1516.05 514.332 1510.87 518.876 1505.34 525.268 1499.82 531.66 1494.72 538.43 1490.03 545.578 1485.34 552.727 1481.83 558.783 1479.49 563.747L1456.07 564.79 1462.65 553.191 1454.85 560.021C1449.03 564.462 1443.14 566.751 1437.16 566.888 1432.02 566.781 1428.33 565.675 1426.1 563.571 1423.87 561.466 1422.52 559.001 1422.03 556.178 1421.55 553.353 1421.35 550.809 1421.45 548.546L1420.92 548.196C1417.23 552.801 1412.86 557.009 1407.79 560.821 1402.72 564.634 1397.08 566.655 1390.86 566.888 1385.34 566.933 1381.14 565.275 1378.27 561.915 1375.39 558.554 1373.94 553.224 1373.93 545.922L1374.09 544.922 1370.73 548.256C1368.02 550.569 1365.23 552.59 1362.37 554.319 1356.57 557.745 1350.59 560.201 1344.45 561.688 1338.3 563.174 1332.59 564.08 1327.3 564.404 1322.01 564.729 1317.74 564.86 1314.5 564.799 1312.47 564.856 1310.41 565.088 1308.34 565.494 1306.27 565.899 1303.25 566.131 1299.3 566.188 1297.54 566.192 1296.2 565.968 1295.28 565.515 1294.36 565.063 1293.89 564.36 1293.88 563.409 1293.89 562.438 1294.27 561.674 1295.04 561.117 1295.81 560.56 1296.94 560.276 1298.42 560.265 1300.57 560.367 1303.01 560.775 1305.74 561.489 1308.47 562.203 1310.69 562.611 1312.4 562.713 1316.44 562.5 1320.3 559.191 1323.96 552.789 1327.63 546.386 1331.59 538.17 1335.86 528.141 1340.12 518.112 1345.18 507.551 1351.02 496.459 1356.87 485.367 1363.99 475.025 1372.39 465.432 1380.8 455.84 1390.97 448.279 1402.91 442.749L1402.56 442.401C1390.4 445.704 1379.29 451.729 1369.23 460.476 1359.17 469.223 1349.72 479.752 1340.88 492.063 1334.86 500.413 1327.86 509.536 1319.87 519.434 1311.88 529.331 1303.39 538.518 1294.39 546.994 1285.4 555.471 1276.37 561.753 1267.32 565.841L1265.23 565.314C1270.18 556.233 1274.47 546.233 1278.11 535.314 1281.74 524.394 1285.93 513.299 1290.67 502.028 1295.42 490.757 1301.93 480.054 1310.22 469.919 1318.5 459.784 1329.77 450.96 1344.03 443.447L1343.68 443.097C1330.94 448.141 1319.76 454.92 1310.14 463.435 1300.53 471.95 1292.36 480.62 1285.66 489.446 1278.95 498.272 1273.6 505.673 1269.6 511.649 1262.09 522.563 1255.01 532.094 1248.35 540.245 1241.69 548.396 1234.72 554.74 1227.42 559.277 1220.12 563.813 1211.76 566.117 1202.33 566.188 1195.66 566.164 1189.97 564.339 1185.26 560.713 1180.56 557.087 1178.1 551.808 1177.89 544.876 1177.94 541.262 1179.06 538.172 1181.23 535.608 1183.4 533.042 1186.3 531.702 1189.93 531.585 1193.05 531.618 1195.59 532.558 1197.55 534.405 1199.51 536.252 1200.52 538.81 1200.58 542.078 1200.56 544.581 1199.86 546.701 1198.49 548.439 1197.11 550.177 1195.19 551.204 1192.73 551.521 1193.19 555.43 1194.53 558.279 1196.74 560.068 1198.95 561.857 1201.86 562.739 1205.47 562.713 1214.02 562.582 1222.11 559.658 1229.74 553.943 1237.37 548.229 1245 540.513 1252.61 530.795 1260.22 521.078 1268.27 510.149 1276.76 498.009 1286.86 483.479 1298.15 470.962 1310.61 460.457 1323.07 449.952 1337.94 442.074 1355.21 436.825ZM1674.56 369.36 1669.11 376.416 1666.24 379.464 1667.42 379.643C1668.48 379.995 1669.43 380.523 1670.28 381.227 1671.98 382.635 1672.86 384.748 1672.93 387.564 1672.85 390.12 1672.08 392.049 1670.61 393.351 1669.15 394.653 1667.45 395.306 1665.52 395.309 1664.74 395.309 1664.06 395.265 1663.49 395.177 1662.93 395.089 1662.43 394.957 1662 394.781 1661.73 395.218 1661.51 395.711 1661.36 396.258 1661.2 396.806 1661.12 397.431 1661.11 398.134 1661.12 401.871 1662.12 404.769 1664.11 406.828 1666.1 408.888 1669.04 409.932 1672.93 409.962 1677.95 409.844 1681.7 408.358 1684.19 405.504 1686.67 402.651 1687.91 399.135 1687.91 394.957 1687.73 391.739 1686.46 388.552 1684.12 385.397 1681.77 382.242 1679.42 379.066 1677.07 375.869ZM1634.54 346.484C1630.92 346.721 1627.18 348.95 1623.33 353.171 1619.47 357.392 1616.1 362.181 1613.21 367.539 1610.32 372.896 1608.5 377.398 1607.75 381.044 1617.79 378.598 1625.56 374.542 1631.08 368.878 1636.6 363.213 1639.4 357.394 1639.48 351.421 1639.48 349.826 1639.08 348.607 1638.27 347.762 1637.45 346.917 1636.21 346.491 1634.54 346.484ZM1585.08 343.333C1582.19 346.231 1579.48 349.708 1576.96 353.762 1574.44 357.817 1573.09 361.916 1572.93 366.06 1572.91 368.641 1573.52 370.935 1574.75 372.942 1575.99 374.949 1577.97 376.008 1580.68 376.118 1582.5 376.035 1584.29 375.647 1586.03 374.952L1589.33 373.005 1592.82 367.231C1598.56 360.362 1605.56 354.865 1613.79 350.739 1622.03 346.613 1630 344.496 1637.71 344.39 1643.45 344.367 1648.08 345.289 1651.62 347.156 1655.15 349.023 1656.97 351.973 1657.07 356.005 1656.91 360.137 1654.91 363.732 1651.07 366.792 1647.23 369.851 1642.51 372.45 1636.93 374.586 1631.34 376.723 1625.84 378.472 1620.44 379.835 1615.03 381.197 1610.69 382.247 1607.4 382.984 1607.14 384.137 1606.95 385.313 1606.85 386.511 1606.74 387.708 1606.69 388.884 1606.69 390.037 1606.62 394.515 1607.65 398.387 1609.8 401.653 1611.95 404.919 1615.67 406.631 1620.97 406.789 1626.49 406.66 1632.41 404.625 1638.74 400.683 1641.91 398.712 1645.09 396.458 1648.29 393.919L1650.44 392.035 1651.34 387.358C1652.04 385.645 1653.04 384.166 1654.37 382.921 1655.69 381.677 1657.15 380.737 1658.75 380.102L1663.87 379.127 1668.8 373.859 1673.78 367.323 1673.29 366.056C1673.35 360.216 1675.91 355.194 1680.99 350.991 1686.07 346.788 1693.3 344.587 1702.7 344.39 1709.59 344.408 1715.13 345.557 1719.31 347.839 1723.5 350.121 1725.64 353.431 1725.76 357.768 1725.67 361.085 1724.57 363.752 1722.44 365.769 1720.31 367.786 1717.66 368.822 1714.5 368.877 1713.1 368.877 1711.77 368.701 1710.52 368.348 1709.27 367.995 1708.07 367.466 1706.93 366.761 1707.73 365.534 1708.37 364.197 1708.85 362.749 1709.32 361.302 1709.56 359.7 1709.57 357.944 1709.59 354.921 1708.9 352.284 1707.5 350.032 1706.11 347.78 1703.92 346.597 1700.93 346.484 1698.18 346.524 1696.06 347.457 1694.56 349.282 1693.07 351.108 1692.31 353.584 1692.29 356.71 1692.5 360.581 1693.95 364.144 1696.63 367.401 1699.32 370.658 1702.01 374.012 1704.7 377.465 1707.38 380.917 1708.82 384.873 1709.02 389.331 1709.02 393.265 1708.1 396.638 1706.25 399.448 1704.41 402.258 1701.63 404.705 1697.94 406.788L1698.29 407.14C1705.08 405.166 1711.65 401.905 1718 397.357 1724.35 392.81 1730.23 387.537 1735.64 381.54 1741.05 375.542 1745.74 369.382 1749.71 363.058L1750.95 364.475C1745.22 373.162 1738.92 381.086 1732.02 388.246 1725.13 395.406 1717.1 401.136 1707.94 405.437 1698.78 409.738 1687.93 411.944 1675.39 412.055 1668.1 412.096 1662.12 410.607 1657.45 407.588 1653.95 405.324 1651.72 402.06 1650.76 397.795L1650.43 395.048 1645.92 398.685C1641.99 401.622 1638.09 404.084 1634.21 406.071 1626.44 410.047 1617.92 412.041 1608.63 412.055 1600.59 412.03 1594.45 410.146 1590.22 406.402 1585.98 402.658 1583.85 397.204 1583.82 390.037 1583.94 385.87 1584.75 381.885 1586.25 378.084L1587.58 375.889 1585.43 377.34C1581.05 379.438 1575.47 380.551 1568.7 380.679 1562.92 380.544 1558.38 378.968 1555.09 375.95 1551.79 372.933 1550.11 369.283 1550.05 365.001 1550.04 363.332 1550.15 361.818 1550.36 360.457 1550.57 359.097 1550.94 357.847 1551.46 356.707L1551.46 356.354C1546.58 359.072 1541.35 363.653 1535.78 370.097 1530.22 376.541 1525.07 383.366 1520.34 390.572 1515.62 397.779 1512.07 403.884 1509.71 408.889L1486.11 409.94 1521.69 347.209 1547.06 346.505 1520.11 386.325 1520.46 386.678C1526.92 377.41 1532.93 369.957 1538.49 364.319 1544.05 358.68 1548.96 354.969 1553.22 353.186 1555.27 350.585 1557.23 348.624 1559.09 347.303 1560.95 345.982 1563.79 345.053 1567.59 344.515 1571.39 343.977 1577.22 343.583 1585.08 343.333ZM1519.1 282.697C1529.23 282.748 1539.31 282.997 1549.35 283.445 1559.39 283.893 1567.8 284.231 1574.59 284.459 1580.36 284.553 1584.57 285.241 1587.22 286.523 1589.87 287.805 1591.18 290.169 1591.14 293.613 1591.17 297.029 1589.49 299.53 1586.1 301.119 1582.71 302.707 1577.47 303.493 1570.36 303.474 1566.79 303.459 1563.49 303.313 1560.45 303.034 1557.41 302.755 1554.37 302.432 1551.34 302.066 1541.12 304.831 1532.18 310.142 1524.5 318 1516.81 325.858 1509.32 337.121 1502.02 351.79 1496.09 363.749 1489.25 374.292 1481.49 383.418 1473.73 392.544 1464.66 399.692 1454.27 404.863 1443.89 410.034 1431.8 412.666 1418 412.76 1408.59 412.739 1400.73 410.759 1394.41 406.819 1388.09 402.88 1384.8 397.108 1384.55 389.503 1384.65 385.936 1385.91 382.842 1388.33 380.222 1390.76 377.602 1393.78 376.229 1397.4 376.1 1400.48 376.129 1403.07 377.04 1405.18 378.833 1407.3 380.626 1408.4 383.125 1408.48 386.329 1408.47 389 1407.8 391.285 1406.46 393.185 1405.13 395.085 1403.22 396.444 1400.74 397.263 1401.53 401.988 1403.51 405.413 1406.68 407.536 1409.85 409.66 1413.68 410.703 1418.18 410.667 1428.66 410.4 1437.53 406.858 1444.78 400.04 1452.02 393.223 1458.53 384.732 1464.28 374.567 1470.04 364.402 1475.92 354.165 1481.94 343.855 1489.51 331.784 1498.62 322.512 1509.26 316.039 1519.9 309.566 1531.52 304.79 1544.11 301.712L1544.11 301.36C1538.73 301.088 1531.89 300.661 1523.59 300.082 1515.3 299.501 1504.06 299.34 1489.86 299.596 1485.34 299.558 1479.35 299.804 1471.88 300.333 1464.42 300.862 1456.44 301.903 1447.95 303.456 1439.45 305.009 1431.39 307.303 1423.77 310.337 1416.15 313.371 1409.91 317.375 1405.07 322.347 1400.22 327.32 1397.72 333.49 1397.56 340.858 1397.67 345.482 1399.16 349.223 1402.05 352.078 1404.94 354.933 1408.61 357.014 1413.04 358.321 1417.48 359.628 1422.07 360.273 1426.81 360.254 1433.48 360.169 1439.97 358.654 1446.29 355.709 1452.6 352.763 1457.82 348.897 1461.96 344.11 1466.1 339.323 1468.24 334.124 1468.39 328.514 1468.39 326.538 1468.18 324.451 1467.76 322.255 1467.33 320.058 1466.72 317.971 1465.93 315.995L1467.87 315.466C1468.59 317.27 1469.2 319.481 1469.7 322.1 1470.2 324.72 1470.46 326.975 1470.49 328.867 1470.34 336.802 1468.09 343.774 1463.73 349.785 1459.37 355.796 1453.78 360.494 1446.96 363.88 1440.13 367.265 1432.95 368.987 1425.4 369.045 1420.48 369.047 1415.69 368.009 1411.04 365.93 1406.39 363.852 1402.54 360.726 1399.5 356.551 1396.46 352.377 1394.88 347.146 1394.77 340.858 1394.95 329.37 1400.26 319.276 1410.72 310.575 1421.18 301.874 1435.71 295.074 1454.31 290.174 1472.9 285.273 1494.5 282.781 1519.1 282.697ZM1355.9 179.036C1357.65 178.951 1359.41 179.015 1361.15 179.24 1377.89 181.399 1393.49 198.379 1392.75 240.738 1391.69 301.992 1282.85 471.074 1032.87 583.608 1008.39 606.232 976.757 631.195 971.92 610.523 967.083 589.85 1003.94 573.856 1021.26 571.906 1099.91 499.548 1190.39 306.467 1128.06 263.752 1100.62 244.94 965.19 317.653 988.753 427.58 1009.28 523.345 1131.55 377.457 1080.47 316.801 1143.22 356.653 1076.9 464.845 1015.45 468.537 954.013 472.23 927.35 371.317 1044.48 275.844 1152.35 187.919 1346.9 293.397 1049.12 562.545 1195.78 483.36 1333.93 395.595 1338.19 243.078 1304.41 215.08 1329.62 180.308 1355.9 179.036Z" fill="#FFFFFF" fill-rule="evenodd"/>
  </g>
</svg>