<svg width="247" height="179"
  xmlns="http://www.w3.org/2000/svg"
  xmlns:xlink="http://www.w3.org/1999/xlink" xml:space="preserve" overflow="hidden">
  <defs>
    <clipPath id="clip0">
      <rect x="3306" y="2029" width="247" height="179"/>
    </clipPath>
  </defs>
  <g clip-path="url(#clip0)" transform="translate(-3306 -2029)">
    <path d="M3330.01 2063C3330.44 2062.98 3330.87 2063.04 3331.3 2063.18 3406.68 2088.63 3393.98 2097.31 3429.5 2133.38 3465.02 2097.31 3452.32 2088.63 3527.7 2063.18 3529.4 2062.61 3531.26 2063.44 3531.96 2065.09 3544.35 2094.05 3541.37 2115.64 3503.1 2126.18 3517.82 2126.08 3533.28 2127.89 3549.91 2129.56 3549.92 2129.56 3549.92 2129.56 3549.93 2129.56 3551.81 2129.76 3553.18 2131.46 3552.98 2133.34 3550.74 2154.63 3528.12 2185.21 3475.94 2168.52 3476.98 2170.88 3477.59 2173.38 3477.59 2176.04 3477.59 2194.47 3442.11 2205.05 3432.11 2207.67 3430.4 2208.11 3428.6 2208.11 3426.89 2207.67 3416.89 2205.05 3381.41 2194.47 3381.41 2176.04 3381.42 2173.44 3381.99 2170.88 3383.06 2168.51 3330.87 2185.21 3308.25 2154.62 3306.02 2133.33 3306.02 2133.33 3306.02 2133.32 3306.02 2133.32 3305.83 2131.43 3307.2 2129.75 3309.09 2129.56 3325.72 2127.89 3341.19 2126.08 3355.9 2126.18 3317.63 2115.63 3314.64 2094.04 3327.04 2065.08 3327.57 2063.84 3328.74 2063.07 3330.01 2063Z" fill="#F5C3C3" fill-rule="evenodd"/>
    <path d="M3459.71 2029.02C3460.53 2028.93 3461.38 2029.15 3462.09 2029.67 3468.01 2034.03 3482 2047.5 3482 2077.29 3482 2106.43 3466.89 2126 3448.24 2126 3429.62 2126 3433.25 2106.03 3433.25 2076.88 3433.25 2058.67 3451.38 2036.96 3457.5 2030.14 3458.09 2029.48 3458.89 2029.1 3459.71 2029.02ZM3399.29 2029.02C3400.11 2029.1 3400.91 2029.48 3401.5 2030.14 3407.62 2036.96 3425.75 2058.67 3425.75 2076.88 3425.75 2106.03 3429.38 2126 3410.76 2126 3392.11 2126 3377 2106.43 3377 2077.29 3377 2047.5 3390.99 2034.03 3396.91 2029.67 3397.62 2029.15 3398.47 2028.93 3399.29 2029.02Z" fill="#F0A9A9" fill-rule="evenodd"/>
    <path d="M3429.51 2036C3430.1 2036 3430.7 2036.16 3431.23 2036.47 3437.61 2040.22 3459.45 2054.91 3459.45 2080.37 3459.45 2080.53 3459.42 2080.68 3459.42 2080.84L3462.34 2080.85 3484.71 2046.48C3484.99 2046.06 3485.34 2045.69 3485.76 2045.41 3487.52 2044.2 3489.91 2044.66 3491.1 2046.43 3500.83 2060.88 3507.83 2078.8 3503.87 2098.2 3496.34 2135.07 3463.61 2153.22 3429.51 2145.08 3395.39 2153.22 3362.67 2135.07 3355.13 2098.2 3351.16 2078.81 3358.17 2060.89 3367.9 2046.44 3368.18 2046.02 3368.54 2045.66 3368.96 2045.38 3370.73 2044.2 3373.12 2044.7 3374.29 2046.48L3396.66 2080.85 3399.59 2080.84C3399.59 2080.68 3399.55 2080.53 3399.55 2080.37 3399.55 2054.91 3421.41 2040.22 3427.78 2036.47 3428.32 2036.16 3428.91 2036 3429.51 2036Z" fill="#E98383" fill-rule="evenodd"/>
    <path d="M3392 2085 3467 2085 3449.15 2137 3409.85 2137Z" fill="#F4900C" fill-rule="evenodd"/>
    <path d="M3429.5 2073C3450.21 2073 3467 2078.15 3467 2084.5 3467 2090.85 3450.21 2096 3429.5 2096 3408.79 2096 3392 2090.85 3392 2084.5 3392 2078.15 3408.79 2073 3429.5 2073Z" fill="#FFDC5D" fill-rule="evenodd"/>
    <path d="M3429.01 2081C3429.62 2081 3430.24 2081.17 3430.79 2081.5 3437.24 2085.44 3459 2100.68 3459 2127.07 3459 2150.96 3445.57 2167 3429.01 2167 3412.43 2167 3399 2150.96 3399 2127.06 3399 2100.68 3420.77 2085.43 3427.23 2081.5 3427.77 2081.17 3428.39 2081 3429.01 2081Z" fill="#E98383" fill-rule="evenodd"/>
    <path d="M3522.54 2085.01C3524.46 2085.01 3526 2086.58 3526 2088.52 3525.85 2105.56 3519.11 2166.99 3429.51 2167L3429.49 2167C3339.89 2166.99 3333.15 2105.56 3333 2088.52 3333 2088.22 3333.03 2087.93 3333.1 2087.64 3333.55 2085.78 3335.42 2084.64 3337.26 2085.1 3355.66 2089.58 3429.27 2110.97 3429.51 2166.74 3429.74 2110.97 3503.34 2089.58 3521.75 2085.1 3522.01 2085.04 3522.27 2085.01 3522.54 2085.01Z" fill="#F0A9A9" fill-rule="evenodd"/>
    <path d="M3399.32 2029.02C3400.14 2029.1 3400.93 2029.48 3401.52 2030.14 3403.05 2031.84 3405.33 2034.47 3407.89 2037.75L3414.48 2047.14 3420.67 2041.28C3423.62 2039 3426.19 2037.38 3427.78 2036.45 3428.32 2036.14 3428.91 2035.99 3429.51 2035.99 3430.11 2035.99 3430.7 2036.14 3431.24 2036.45 3432.83 2037.38 3435.4 2039 3438.34 2041.28L3444.53 2047.13 3451.11 2037.75C3453.67 2034.47 3455.95 2031.84 3457.48 2030.14 3458.07 2029.48 3458.86 2029.1 3459.68 2029.02 3460.5 2028.93 3461.35 2029.14 3462.07 2029.67 3465.02 2031.85 3470 2036.3 3474.23 2043.93L3478.78 2055.55 3484.77 2046.41C3485.04 2045.99 3485.4 2045.63 3485.82 2045.34 3487.57 2044.14 3489.97 2044.6 3491.16 2046.36 3496.03 2053.55 3500.22 2061.59 3502.69 2070.25L3502.96 2071.82 3503.3 2071.67C3510.24 2068.92 3518.28 2065.99 3527.7 2062.8 3529.4 2062.23 3531.26 2063.06 3531.96 2064.71 3541.25 2086.49 3541.9 2104.11 3525.5 2116.02L3519.41 2118.73 3518.74 2120.65 3515.31 2126.52 3525.79 2127C3533.57 2127.65 3541.6 2128.52 3549.91 2129.36 3549.92 2129.36 3549.92 2129.36 3549.93 2129.36 3551.81 2129.56 3553.18 2131.25 3552.98 2133.15 3550.74 2154.49 3528.12 2185.15 3475.94 2168.42 3476.98 2170.78 3477.59 2173.29 3477.59 2175.95 3477.59 2194.43 3442.11 2205.05 3432.11 2207.67 3430.4 2208.11 3428.6 2208.11 3426.89 2207.67 3416.89 2205.05 3381.41 2194.43 3381.41 2175.95 3381.42 2173.35 3381.99 2170.78 3383.06 2168.41 3330.87 2185.15 3308.25 2154.48 3306.02 2133.14 3306.02 2133.13 3306.02 2133.13 3306.02 2133.12 3305.83 2131.23 3307.2 2129.54 3309.09 2129.35 3317.4 2128.51 3325.43 2127.64 3333.21 2126.99L3343.69 2126.52 3340.26 2120.65 3339.59 2118.72 3333.5 2116.01C3317.1 2104.1 3317.74 2086.48 3327.04 2064.7 3327.57 2063.47 3328.74 2062.69 3330.01 2062.62 3330.44 2062.6 3330.87 2062.66 3331.3 2062.8 3340.72 2065.99 3348.76 2068.92 3355.7 2071.67L3356.04 2071.82 3356.31 2070.26C3358.78 2061.6 3362.97 2053.55 3367.84 2046.37 3368.12 2045.95 3368.48 2045.59 3368.91 2045.31 3370.68 2044.14 3373.07 2044.63 3374.24 2046.41L3380.22 2055.54 3384.77 2043.93C3389 2036.3 3393.98 2031.85 3396.93 2029.67 3397.65 2029.14 3398.5 2028.93 3399.32 2029.02Z" fill="#FFFFFF" fill-rule="evenodd" fill-opacity="0.501961"/>
  </g>
</svg>