<svg width="248" height="179"
  xmlns="http://www.w3.org/2000/svg"
  xmlns:xlink="http://www.w3.org/1999/xlink" xml:space="preserve" overflow="hidden">
  <defs>
    <clipPath id="clip0">
      <rect x="1210" y="1893" width="248" height="179"/>
    </clipPath>
  </defs>
  <g clip-path="url(#clip0)" transform="translate(-1210 -1893)">
    <path d="M1234.11 1926C1234.54 1925.98 1234.97 1926.04 1235.4 1926.18 1311.08 1951.81 1298.34 1960.55 1334 1996.86 1369.66 1960.55 1356.92 1951.8 1432.6 1926.18 1434.31 1925.61 1436.17 1926.44 1436.88 1928.1 1449.32 1957.26 1446.32 1979 1407.9 1989.62 1422.68 1989.52 1438.2 1991.34 1454.9 1993.02 1454.9 1993.02 1454.91 1993.02 1454.91 1993.02 1456.81 1993.22 1458.18 1994.93 1457.98 1996.83 1455.73 2018.26 1433.02 2049.06 1380.62 2032.25 1381.67 2034.62 1382.29 2037.14 1382.29 2039.82 1382.29 2058.37 1346.66 2069.03 1336.62 2071.67 1334.9 2072.11 1333.1 2072.11 1331.38 2071.67 1321.33 2069.03 1285.71 2058.37 1285.71 2039.82 1285.73 2037.2 1286.29 2034.62 1287.38 2032.24 1234.97 2049.05 1212.26 2018.26 1210.02 1996.82 1210.02 1996.81 1210.02 1996.81 1210.02 1996.8 1209.83 1994.9 1211.21 1993.21 1213.1 1993.02 1229.8 1991.33 1245.33 1989.52 1260.1 1989.61 1221.68 1978.99 1218.68 1957.26 1231.12 1928.09 1231.65 1926.85 1232.83 1926.07 1234.11 1926Z" fill="#A2CAC0" fill-rule="evenodd"/>
    <path d="M1363.71 1893.02C1364.53 1892.93 1365.38 1893.14 1366.09 1893.66 1372.01 1897.98 1386 1911.31 1386 1940.79 1386 1969.64 1370.89 1989 1352.24 1989 1333.62 1989 1337.25 1969.24 1337.25 1940.39 1337.25 1922.36 1355.38 1900.88 1361.5 1894.13 1362.09 1893.48 1362.89 1893.1 1363.71 1893.02ZM1303.29 1893.02C1304.11 1893.1 1304.91 1893.48 1305.5 1894.13 1311.62 1900.88 1329.75 1922.36 1329.75 1940.39 1329.75 1969.24 1333.38 1989 1314.76 1989 1296.11 1989 1281 1969.64 1281 1940.79 1281 1911.31 1294.99 1897.98 1300.91 1893.66 1301.62 1893.14 1302.47 1892.93 1303.29 1893.02Z" fill="#80B6A9" fill-rule="evenodd"/>
    <path d="M1333.51 1900C1334.1 1900 1334.7 1900.15 1335.23 1900.46 1341.61 1904.18 1363.45 1918.74 1363.45 1943.97 1363.45 1944.13 1363.42 1944.28 1363.42 1944.43L1366.34 1944.44 1388.71 1910.39C1388.99 1909.97 1389.34 1909.61 1389.76 1909.32 1391.52 1908.13 1393.91 1908.59 1395.1 1910.34 1404.83 1924.66 1411.83 1942.42 1407.87 1961.64 1400.34 1998.18 1367.61 2016.16 1333.51 2008.1 1299.39 2016.16 1266.67 1998.17 1259.13 1961.64 1255.16 1942.42 1262.17 1924.67 1271.9 1910.35 1272.18 1909.93 1272.54 1909.57 1272.96 1909.3 1274.73 1908.13 1277.12 1908.62 1278.29 1910.39L1300.66 1944.44 1303.59 1944.43C1303.59 1944.28 1303.55 1944.13 1303.55 1943.97 1303.55 1918.74 1325.41 1904.18 1331.78 1900.46 1332.32 1900.15 1332.91 1900 1333.51 1900Z" fill="#66A898" fill-rule="evenodd"/>
    <path d="M1296 1948 1371 1948 1353.15 2000 1313.85 2000Z" fill="#F4900C" fill-rule="evenodd"/>
    <path d="M1333.5 1937C1354.21 1937 1371 1941.92 1371 1948 1371 1954.08 1354.21 1959 1333.5 1959 1312.79 1959 1296 1954.08 1296 1948 1296 1941.92 1312.79 1937 1333.5 1937Z" fill="#FFDC5D" fill-rule="evenodd"/>
    <path d="M1334.01 1945C1334.62 1945 1335.24 1945.16 1335.79 1945.49 1342.24 1949.39 1364 1964.45 1364 1990.53 1364 2014.14 1350.57 2030 1334.01 2030 1317.43 2030 1304 2014.14 1304 1990.53 1304 1964.45 1325.77 1949.38 1332.23 1945.49 1332.77 1945.16 1333.39 1945 1334.01 1945Z" fill="#66A898" fill-rule="evenodd"/>
    <path d="M1426.54 1949.01C1428.46 1949.01 1430 1950.56 1430 1952.47 1429.86 1969.31 1423.11 2029.99 1333.51 2030L1333.49 2030C1243.89 2029.99 1237.15 1969.31 1237 1952.47 1237 1952.18 1237.03 1951.89 1237.1 1951.61 1237.55 1949.77 1239.42 1948.65 1241.26 1949.1 1259.66 1953.52 1333.27 1974.66 1333.51 2029.74 1333.74 1974.66 1407.34 1953.52 1425.75 1949.1 1426.01 1949.04 1426.27 1949.01 1426.54 1949.01Z" fill="#80B6A9" fill-rule="evenodd"/>
  </g>
</svg>