<svg width="248" height="179"
  xmlns="http://www.w3.org/2000/svg"
  xmlns:xlink="http://www.w3.org/1999/xlink" xml:space="preserve" overflow="hidden">
  <defs>
    <clipPath id="clip0">
      <rect x="2632" y="1893" width="248" height="179"/>
    </clipPath>
  </defs>
  <g clip-path="url(#clip0)" transform="translate(-2632 -1893)">
    <path d="M2656.11 1926C2656.54 1925.98 2656.97 1926.04 2657.4 1926.18 2733.08 1951.81 2720.34 1960.55 2756 1996.86 2791.66 1960.55 2778.92 1951.8 2854.6 1926.18 2856.31 1925.61 2858.17 1926.44 2858.88 1928.1 2871.32 1957.26 2868.32 1979 2829.9 1989.62 2844.68 1989.52 2860.2 1991.34 2876.9 1993.02 2876.9 1993.02 2876.91 1993.02 2876.91 1993.02 2878.81 1993.22 2880.18 1994.93 2879.98 1996.83 2877.73 2018.26 2855.02 2049.06 2802.62 2032.25 2803.67 2034.62 2804.29 2037.14 2804.29 2039.82 2804.29 2058.37 2768.67 2069.03 2758.62 2071.67 2756.9 2072.11 2755.1 2072.11 2753.38 2071.67 2743.33 2069.03 2707.71 2058.37 2707.71 2039.82 2707.73 2037.2 2708.29 2034.62 2709.38 2032.24 2656.97 2049.05 2634.26 2018.26 2632.02 1996.82 2632.02 1996.81 2632.02 1996.81 2632.02 1996.8 2631.83 1994.9 2633.21 1993.21 2635.1 1993.02 2651.8 1991.33 2667.33 1989.52 2682.1 1989.61 2643.68 1978.99 2640.68 1957.26 2653.12 1928.09 2653.65 1926.85 2654.83 1926.07 2656.11 1926Z" fill="#F5C3C3" fill-rule="evenodd"/>
    <path d="M2785.71 1893.02C2786.53 1892.93 2787.38 1893.14 2788.09 1893.66 2794.01 1897.98 2808 1911.31 2808 1940.79 2808 1969.64 2792.89 1989 2774.24 1989 2755.62 1989 2759.25 1969.24 2759.25 1940.39 2759.25 1922.36 2777.38 1900.88 2783.5 1894.13 2784.09 1893.48 2784.89 1893.1 2785.71 1893.02ZM2725.29 1893.02C2726.11 1893.1 2726.91 1893.48 2727.5 1894.13 2733.62 1900.88 2751.75 1922.36 2751.75 1940.39 2751.75 1969.24 2755.38 1989 2736.76 1989 2718.11 1989 2703 1969.64 2703 1940.79 2703 1911.31 2716.99 1897.98 2722.91 1893.66 2723.62 1893.14 2724.47 1892.93 2725.29 1893.02Z" fill="#F0A9A9" fill-rule="evenodd"/>
    <path d="M2756.01 1900C2756.61 1900 2757.21 1900.15 2757.75 1900.46 2764.16 1904.18 2786.15 1918.74 2786.15 1943.97 2786.15 1944.13 2786.12 1944.28 2786.12 1944.43L2789.06 1944.44 2811.58 1910.39C2811.85 1909.97 2812.21 1909.61 2812.63 1909.32 2814.4 1908.13 2816.81 1908.59 2818.01 1910.34 2827.8 1924.66 2834.85 1942.42 2830.87 1961.64 2823.28 1998.18 2790.34 2016.16 2756.01 2008.1 2721.67 2016.16 2688.72 1998.17 2681.14 1961.64 2677.14 1942.42 2684.2 1924.67 2693.99 1910.35 2694.27 1909.93 2694.64 1909.57 2695.06 1909.3 2696.84 1908.13 2699.24 1908.62 2700.42 1910.39L2722.94 1944.44 2725.89 1944.43C2725.89 1944.28 2725.85 1944.13 2725.85 1943.97 2725.85 1918.74 2747.85 1904.18 2754.27 1900.46 2754.81 1900.15 2755.41 1900 2756.01 1900Z" fill="#E98383" fill-rule="evenodd"/>
    <path d="M2718 1948 2793 1948 2775.15 2000 2735.85 2000Z" fill="#F4900C" fill-rule="evenodd"/>
    <path d="M2755.5 1937C2776.21 1937 2793 1941.92 2793 1948 2793 1954.08 2776.21 1959 2755.5 1959 2734.79 1959 2718 1954.08 2718 1948 2718 1941.92 2734.79 1937 2755.5 1937Z" fill="#FFDC5D" fill-rule="evenodd"/>
    <path d="M2756.01 1945C2756.62 1945 2757.24 1945.16 2757.79 1945.49 2764.24 1949.39 2786 1964.45 2786 1990.53 2786 2014.14 2772.57 2030 2756.01 2030 2739.43 2030 2726 2014.14 2726 1990.53 2726 1964.45 2747.77 1949.38 2754.23 1945.49 2754.77 1945.16 2755.39 1945 2756.01 1945Z" fill="#E98383" fill-rule="evenodd"/>
    <path d="M2848.54 1949.01C2850.46 1949.01 2852 1950.56 2852 1952.47 2851.86 1969.31 2845.11 2029.99 2755.51 2030L2755.49 2030C2665.89 2029.99 2659.15 1969.31 2659 1952.47 2659 1952.18 2659.03 1951.89 2659.1 1951.61 2659.55 1949.77 2661.42 1948.65 2663.26 1949.1 2681.66 1953.52 2755.27 1974.66 2755.51 2029.74 2755.74 1974.66 2829.34 1953.52 2847.75 1949.1 2848.01 1949.04 2848.27 1949.01 2848.54 1949.01Z" fill="#F0A9A9" fill-rule="evenodd"/>
  </g>
</svg>