<svg width="2208" height="606"
  xmlns="http://www.w3.org/2000/svg"
  xmlns:xlink="http://www.w3.org/1999/xlink" xml:space="preserve" overflow="hidden">
  <defs>
    <clipPath id="clip0">
      <rect x="1096" y="833" width="2208" height="606"/>
    </clipPath>
  </defs>
  <g clip-path="url(#clip0)" transform="translate(-1096 -833)">
    <path d="M2341.68 1349.41C2342.56 1349.41 2344.19 1349.98 2346.56 1351.12 2350.49 1353.6 2352.46 1356.05 2352.46 1358.48 2352.46 1361.32 2350.72 1362.75 2347.26 1362.75 2334.6 1361.2 2326.56 1360.42 2323.15 1360.42 2318.55 1360.42 2312.53 1361.69 2305.08 1364.22 2300.28 1365.87 2297.23 1366.7 2295.93 1366.7 2289.16 1365.15 2285.78 1362.38 2285.78 1358.41 2285.78 1357.22 2286.22 1356.62 2287.09 1356.62 2287.97 1356.62 2288.96 1357.32 2290.04 1358.72 2305.75 1355.67 2321 1353.6 2335.79 1352.51 2338.53 1350.45 2340.49 1349.41 2341.68 1349.41ZM2325.32 1330.34C2330.8 1331.53 2333.54 1333.31 2333.54 1335.69 2333.54 1337.35 2331.7 1338.56 2328.03 1339.34 2315.73 1345.02 2307.2 1348.28 2302.45 1349.1 2307.2 1346.67 2311.39 1344.09 2315.01 1341.35L2308.03 1341.35C2306.12 1341.35 2304.46 1340.89 2303.07 1339.96 2300.95 1338.25 2299.89 1337.01 2299.89 1336.23 2299.89 1335.25 2300.3 1334.76 2301.13 1334.76L2305.16 1335.3C2309.92 1334.74 2314.18 1333.96 2317.95 1332.98 2321.05 1331.22 2323.51 1330.34 2325.32 1330.34ZM2860.38 1325.15C2864.62 1325.15 2869.37 1327.17 2874.64 1331.2 2881.67 1335.18 2886.79 1337.16 2890 1337.16 2893.2 1337.16 2896.61 1335.92 2900.23 1333.44 2903.02 1331.38 2905.04 1330.34 2906.28 1330.34 2907.83 1330.34 2908.6 1331.07 2908.6 1332.51 2908.6 1333.96 2906.04 1336.75 2900.93 1340.89 2896.64 1344.4 2892.12 1346.16 2887.36 1346.16 2883.12 1346.16 2878.37 1344.14 2873.09 1340.11 2866.06 1336.13 2860.95 1334.14 2857.74 1334.14 2854.54 1334.14 2851.13 1335.38 2847.51 1337.86 2844.72 1339.93 2842.7 1340.96 2841.46 1340.96 2839.91 1340.96 2839.13 1340.24 2839.13 1338.79 2839.13 1337.35 2841.69 1334.56 2846.81 1330.42 2851.1 1326.91 2855.62 1325.15 2860.38 1325.15ZM2106.13 1325.15C2110.37 1325.15 2115.13 1327.17 2120.4 1331.2 2127.43 1335.18 2132.54 1337.16 2135.75 1337.16 2138.95 1337.16 2142.37 1335.92 2145.98 1333.44 2148.78 1331.38 2150.79 1330.34 2152.03 1330.34 2153.58 1330.34 2154.36 1331.07 2154.36 1332.51 2154.36 1333.96 2151.8 1336.75 2146.68 1340.89 2142.39 1344.4 2137.87 1346.16 2133.11 1346.16 2128.88 1346.16 2124.12 1344.14 2118.85 1340.11 2111.82 1336.13 2106.7 1334.14 2103.5 1334.14 2100.29 1334.14 2096.88 1335.38 2093.26 1337.86 2090.47 1339.93 2088.45 1340.96 2087.21 1340.96 2085.66 1340.96 2084.89 1340.24 2084.89 1338.79 2084.89 1337.35 2087.45 1334.56 2092.56 1330.42 2096.85 1326.91 2101.38 1325.15 2106.13 1325.15ZM2474.26 1324.3C2469.25 1326.57 2464.83 1329.62 2461 1333.44 2457.38 1337.58 2455.58 1340.78 2455.58 1343.06 2455.58 1345.33 2457.13 1347.68 2460.23 1350.11 2463.28 1347.27 2466.48 1342.64 2469.84 1336.23 2471.91 1332.31 2473.38 1328.33 2474.26 1324.3ZM2577.07 1314.3C2578.52 1314.3 2580.64 1315.54 2583.43 1318.02 2585.55 1320.14 2586.61 1322 2586.61 1323.6 2586.61 1325.46 2585.29 1326.78 2582.65 1327.55 2576.45 1333.55 2572.5 1337.27 2570.79 1338.72 2568.1 1340.99 2564.69 1343.08 2560.56 1344.99 2563.97 1346.96 2566.29 1349.23 2567.53 1351.82 2568.46 1353.93 2568.93 1355.82 2568.93 1357.47 2568.93 1359.23 2568.57 1360.6 2567.84 1361.58 2567.22 1362.51 2566.29 1362.98 2565.05 1362.98 2564.12 1362.98 2562.91 1362.33 2561.41 1361.04 2558.98 1361.14 2555.8 1361.2 2551.87 1361.2L2551.79 1360.73C2554.53 1359.44 2556.86 1357.91 2558.77 1356.16 2555.77 1352.38 2550.42 1347.84 2542.72 1342.51 2541.43 1341.89 2540.78 1341.07 2540.78 1340.03 2540.78 1338.95 2541.43 1338.41 2542.72 1338.41 2544.95 1338.41 2549.29 1339.65 2555.75 1342.13 2558.28 1340.06 2560.48 1338.04 2562.34 1336.08 2565.7 1332.82 2569.27 1328.35 2573.04 1322.67 2566.16 1322.88 2556.14 1325.36 2542.96 1330.11 2540.73 1330.78 2538.92 1331.12 2537.53 1331.12 2535.72 1331.12 2533.44 1330.24 2530.71 1328.48 2529.05 1327.4 2528.1 1326.54 2527.84 1325.92 2527.58 1325.25 2527.45 1324.48 2527.45 1323.6 2527.45 1322.26 2528.1 1321.58 2529.39 1321.58 2529.96 1321.58 2531.25 1322.1 2533.26 1323.13 2547.01 1319.41 2560.06 1317.09 2572.42 1316.16 2574.69 1314.92 2576.24 1314.3 2577.07 1314.3ZM2736.94 1313.06C2738.44 1313.06 2740.23 1314.3 2742.29 1316.78 2744 1318.64 2744.85 1320.5 2744.85 1322.36 2744.85 1324.99 2743.17 1326.31 2739.81 1326.31 2733.87 1330.34 2727.87 1333.44 2721.83 1335.61 2720.69 1348.9 2715.18 1358.46 2705.31 1364.3 2701.69 1366.36 2699.47 1367.4 2698.64 1367.4 2697.87 1367.4 2697.48 1366.98 2697.48 1366.16 2697.48 1365.54 2697.87 1364.92 2698.64 1364.3 2707.79 1356.08 2712.6 1345.46 2713.06 1332.44 2711.15 1330.83 2710.2 1329.67 2710.2 1328.95 2710.2 1328.43 2710.53 1327.84 2711.2 1327.17 2711.82 1326.49 2712.55 1326.16 2713.37 1326.16 2714.46 1326.16 2715.6 1326.52 2716.79 1327.24 2718.65 1328.48 2719.89 1329.67 2720.51 1330.81 2724.8 1327.91 2728.52 1324.35 2731.67 1320.11 2723.82 1320.11 2714.38 1322.33 2703.37 1326.78 2701.51 1327.29 2700.01 1327.55 2698.88 1327.55 2697.43 1327.55 2695.62 1326.65 2693.45 1324.84 2691.28 1322.88 2690.19 1321.35 2690.19 1320.27 2690.19 1319.28 2690.66 1318.79 2691.59 1318.79 2692.36 1318.79 2693.32 1319.1 2694.46 1319.72 2709.81 1316.47 2723.04 1314.56 2734.15 1313.99 2735.45 1313.37 2736.38 1313.06 2736.94 1313.06ZM2477.98 1312.36C2478.55 1312.36 2479.12 1312.95 2479.69 1314.14 2479.95 1314.61 2480.26 1315.64 2480.62 1317.24 2481.39 1317.19 2482.09 1317.16 2482.71 1317.16 2486.38 1317.16 2490.08 1318.1 2493.8 1319.96 2501.45 1324.25 2505.27 1330.73 2505.27 1339.41 2505.27 1348.66 2500.26 1355.56 2490.23 1360.11 2485.27 1362.38 2481.63 1363.52 2479.3 1363.52 2478.53 1363.52 2478.14 1363.24 2478.14 1362.67 2478.14 1362 2478.96 1361.2 2480.62 1360.27 2490.96 1352.26 2496.13 1344.22 2496.13 1336.16 2496.13 1332.9 2494.91 1329.8 2492.48 1326.85 2489.59 1324.22 2486.33 1322.9 2482.71 1322.9 2482.14 1322.9 2481.57 1322.95 2481.01 1323.06 2477.91 1335.82 2473.36 1345.85 2467.36 1353.13 2465.65 1355.25 2463.95 1356.93 2462.24 1358.17 2461.16 1359.05 2459.48 1359.49 2457.2 1359.49 2455.29 1359.49 2454.21 1358.64 2453.95 1356.93 2453.84 1356.05 2453.56 1353.55 2453.09 1349.41 2452.27 1346.67 2451.67 1344.66 2451.31 1343.37 2450.9 1341.35 2450.69 1339.8 2450.69 1338.72 2450.69 1335.2 2453.35 1331.09 2458.68 1326.39 2463.85 1322.26 2469.61 1319.39 2475.97 1317.79 2476.02 1314.17 2476.69 1312.36 2477.98 1312.36ZM2619.56 1311.97C2621.11 1311.97 2622.79 1313.03 2624.6 1315.15 2626.3 1316.96 2627.16 1319.15 2627.16 1321.74 2627.16 1323.03 2626.87 1326.13 2626.3 1331.04 2629.15 1327.42 2631.76 1323.44 2634.14 1319.1L2634.52 1319.26C2632.97 1325.82 2630.57 1332.82 2627.31 1340.27 2627.16 1342.8 2626.87 1344.35 2626.46 1344.92 2625.68 1345.95 2624.7 1346.47 2623.51 1346.47 2622.48 1346.47 2621.42 1345.64 2620.33 1343.99 2618.94 1341.71 2618.24 1339.41 2618.24 1337.09 2618.24 1334.92 2618.42 1332.51 2618.78 1329.88 2619.4 1325.43 2619.71 1321.4 2619.71 1317.79 2618.63 1315.41 2618.09 1313.86 2618.09 1313.13 2618.09 1312.36 2618.58 1311.97 2619.56 1311.97ZM2267.32 1311.35C2268.46 1311.35 2269.88 1312.02 2271.59 1313.37 2273.29 1314.76 2274.15 1316.23 2274.15 1317.79 2274.15 1318.97 2273.73 1320.5 2272.91 1322.36 2268.72 1333.73 2264.97 1346.05 2261.66 1359.34 2260.58 1363.16 2258.95 1365.07 2256.78 1365.07 2254.61 1365.07 2253.29 1363.6 2252.83 1360.65 2248.74 1346.65 2244.99 1334.01 2241.58 1322.75 2240.7 1319.75 2240.26 1317.6 2240.26 1316.31 2240.26 1315.18 2241.01 1314.04 2242.51 1312.9 2243.75 1312.18 2244.81 1311.82 2245.69 1311.82 2248.02 1311.82 2249.34 1313.57 2249.65 1317.09 2251.3 1327.01 2253.68 1338.43 2256.78 1351.35 2259.52 1340.39 2262.1 1328.87 2264.53 1316.78 2263.81 1315.69 2263.45 1314.81 2263.45 1314.14 2263.45 1313.42 2263.73 1312.82 2264.3 1312.36 2265.18 1311.69 2266.19 1311.35 2267.32 1311.35ZM2328.34 1308.64C2333.62 1309.67 2336.25 1311.12 2336.25 1312.98 2336.25 1314.89 2335.06 1316.23 2332.69 1317.01L2325.32 1319.41C2315.19 1323.7 2307.46 1326.31 2302.14 1327.24 2305.75 1325.23 2309.42 1322.98 2313.15 1320.5L2308.49 1320.89C2306.48 1320.89 2304.2 1320.24 2301.67 1318.95 2299.6 1317.76 2298.57 1316.73 2298.57 1315.85 2298.57 1315.12 2298.93 1314.66 2299.66 1314.45L2303.14 1315.07C2308.73 1314.19 2314.31 1312.95 2319.89 1311.35 2324.23 1309.54 2327.05 1308.64 2328.34 1308.64ZM2401.15 1308.1C2403.01 1308.1 2404.46 1308.43 2405.49 1309.1 2408.8 1311.95 2410.45 1314.37 2410.45 1316.39 2410.45 1317.16 2409.57 1318.66 2407.81 1320.89 2404.14 1326.16 2399.62 1332.18 2394.25 1338.95 2408.62 1341.27 2417.95 1343.57 2422.24 1345.85 2429.58 1351.27 2433.25 1356.21 2433.25 1360.65 2433.25 1363.39 2431.9 1364.76 2429.21 1364.76 2427.82 1364.76 2426.29 1364.35 2424.64 1363.52 2418.95 1363.52 2414.12 1363.24 2410.14 1362.67 2413.66 1361.69 2416.5 1360.47 2418.67 1359.03 2407.04 1351.43 2397.81 1346.29 2390.99 1343.6 2385.46 1350.42 2379.46 1355.25 2373 1358.09 2368.92 1360.06 2366.18 1361.04 2364.78 1361.04 2363.96 1361.04 2363.54 1360.45 2363.54 1359.26 2363.54 1358.38 2365.46 1356.78 2369.28 1354.45 2378.17 1347.37 2388.2 1333.93 2399.36 1314.14 2397.86 1312.44 2397.12 1311.25 2397.12 1310.58 2397.12 1309.96 2397.61 1309.36 2398.59 1308.79 2399.42 1308.33 2400.27 1308.1 2401.15 1308.1ZM2646.85 1307.86C2648.3 1307.86 2649.82 1308.79 2651.42 1310.65 2653.96 1313.7 2655.22 1316.08 2655.22 1317.79 2655.22 1318.72 2654.94 1320.27 2654.37 1322.44 2653.85 1340.27 2650.99 1351.87 2645.76 1357.24 2642.35 1361.07 2638.81 1363.99 2635.14 1366 2631.27 1367.86 2628.79 1368.79 2627.7 1368.79 2627.13 1368.79 2626.85 1368.51 2626.85 1367.94 2626.85 1367.37 2627.29 1366.73 2628.17 1366 2631.21 1363.11 2634.01 1360.16 2636.54 1357.16 2640.83 1351.53 2643.57 1344.99 2644.76 1337.55 2645.22 1333.31 2645.45 1328.38 2645.45 1322.75 2645.45 1319.59 2645.3 1316.98 2644.99 1314.92 2642.66 1312.54 2641.5 1310.94 2641.5 1310.11 2641.5 1309.59 2641.76 1309.18 2642.28 1308.87 2643.36 1308.2 2644.89 1307.86 2646.85 1307.86ZM3183.47 1198.66 3176.83 1207.24 3172.27 1212.88 3175.56 1214.69C3178.26 1216.93 3179.66 1220.29 3179.77 1224.77 3179.64 1228.84 3178.42 1231.91 3176.08 1233.98 3173.75 1236.05 3171.05 1237.09 3167.98 1237.09 3166.73 1237.09 3165.65 1237.03 3164.75 1236.89 3163.85 1236.75 3163.05 1236.54 3162.36 1236.26 3161.94 1236.95 3161.6 1237.73 3161.35 1238.6 3161.09 1239.48 3160.96 1240.47 3160.96 1241.59 3160.97 1247.53 3162.56 1252.14 3165.73 1255.42 3168.9 1258.7 3173.58 1260.36 3179.77 1260.41 3187.76 1260.22 3193.74 1257.85 3197.7 1253.31 3201.66 1248.77 3203.63 1243.18 3203.63 1236.54 3203.34 1231.41 3201.32 1226.35 3197.59 1221.33 3193.85 1216.31 3190.11 1211.25 3186.37 1206.17ZM2155.04 1195.26 2146.29 1206.58 2141.68 1211.47 2143.58 1211.75C2145.27 1212.32 2146.8 1213.16 2148.17 1214.29 2150.89 1216.55 2152.31 1219.94 2152.41 1224.46 2152.29 1228.56 2151.05 1231.65 2148.7 1233.74 2146.34 1235.83 2143.62 1236.87 2140.53 1236.88 2139.26 1236.88 2138.18 1236.81 2137.27 1236.67 2136.36 1236.53 2135.56 1236.31 2134.87 1236.03 2134.44 1236.73 2134.09 1237.52 2133.84 1238.4 2133.59 1239.28 2133.46 1240.28 2133.45 1241.41 2133.46 1247.4 2135.07 1252.05 2138.26 1255.35 2141.46 1258.66 2146.17 1260.33 2152.41 1260.38 2160.47 1260.19 2166.5 1257.81 2170.49 1253.23 2174.48 1248.65 2176.47 1243.01 2176.47 1236.31 2176.18 1231.15 2174.15 1226.04 2170.38 1220.98 2166.61 1215.92 2162.84 1210.83 2159.07 1205.7ZM3093.07 1159.42C3087.22 1159.62 3081.27 1162.46 3075.2 1167.94 3069.14 1173.41 3063.52 1180.31 3058.34 1188.63 3053.16 1196.95 3048.98 1205.48 3045.79 1214.21 3042.6 1222.95 3040.96 1230.68 3040.87 1237.41 3040.8 1240.69 3041.43 1243.8 3042.76 1246.73 3044.1 1249.67 3046.55 1251.23 3050.13 1251.43 3055.67 1251.08 3062.74 1246.74 3071.32 1238.4 3079.91 1230.07 3087.64 1219.87 3094.51 1207.79 3101.38 1195.72 3105.02 1183.9 3105.41 1172.32 3105.28 1168.1 3104 1164.9 3101.55 1162.72 3099.11 1160.53 3096.28 1159.43 3093.07 1159.42ZM2727.92 1159.42C2722.08 1159.62 2716.12 1162.46 2710.06 1167.94 2703.99 1173.41 2698.37 1180.31 2693.19 1188.63 2688.01 1196.95 2683.83 1205.48 2680.64 1214.21 2677.46 1222.95 2675.82 1230.68 2675.72 1237.41 2675.65 1240.69 2676.29 1243.8 2677.62 1246.73 2678.95 1249.67 2681.41 1251.23 2684.98 1251.43 2690.53 1251.08 2697.59 1246.74 2706.18 1238.4 2714.76 1230.07 2722.49 1219.87 2729.37 1207.79 2736.24 1195.72 2739.87 1183.9 2740.27 1172.32 2740.14 1168.1 2738.85 1164.9 2736.41 1162.72 2733.97 1160.53 2731.14 1159.43 2727.92 1159.42ZM2090.8 1158.57C2084.98 1158.95 2078.98 1162.53 2072.79 1169.3 2066.61 1176.07 2061.19 1183.75 2056.55 1192.34 2051.9 1200.93 2048.98 1208.15 2047.79 1214 2063.9 1210.08 2076.38 1203.57 2085.24 1194.49 2094.1 1185.4 2098.59 1176.07 2098.72 1166.49 2098.72 1163.93 2098.08 1161.98 2096.77 1160.62 2095.47 1159.27 2093.48 1158.58 2090.8 1158.57ZM2011.4 1153.52C2006.75 1158.17 2002.4 1163.74 1998.35 1170.24 1994.31 1176.75 1992.15 1183.32 1991.89 1189.97 1991.86 1194.11 1992.84 1197.79 1994.82 1201.01 1996.81 1204.22 1999.98 1205.92 2004.33 1206.1 2007.26 1205.97 2010.13 1205.34 2012.92 1204.23L2018.21 1201.11 2023.81 1191.85C2033.04 1180.83 2044.27 1172.01 2057.49 1165.4 2070.71 1158.78 2083.51 1155.38 2095.89 1155.21 2105.09 1155.18 2112.53 1156.65 2118.2 1159.65 2123.88 1162.64 2126.79 1167.37 2126.96 1173.84 2126.7 1180.47 2123.49 1186.23 2117.32 1191.14 2111.16 1196.05 2103.59 1200.22 2094.62 1203.64 2085.65 1207.07 2076.83 1209.88 2068.16 1212.06 2059.48 1214.25 2052.5 1215.93 2047.22 1217.11 2046.8 1218.96 2046.51 1220.85 2046.34 1222.77 2046.17 1224.69 2046.08 1226.57 2046.09 1228.42 2045.97 1235.61 2047.63 1241.81 2051.08 1247.05 2054.53 1252.29 2060.5 1255.04 2069.01 1255.29 2077.87 1255.08 2087.38 1251.82 2097.54 1245.5 2102.62 1242.34 2107.73 1238.72 2112.87 1234.65L2116.32 1231.63 2117.77 1224.13C2118.88 1221.38 2120.5 1219.01 2122.62 1217.01 2124.75 1215.01 2127.09 1213.51 2129.65 1212.49L2137.88 1210.92 2145.8 1202.48 2153.78 1191.99 2153 1189.96C2153.09 1180.59 2157.21 1172.54 2165.36 1165.8 2173.51 1159.06 2185.12 1155.53 2200.2 1155.21 2211.27 1155.24 2220.16 1157.09 2226.88 1160.74 2233.59 1164.4 2237.04 1169.71 2237.22 1176.67 2237.09 1181.99 2235.31 1186.27 2231.89 1189.5 2228.47 1192.74 2224.23 1194.4 2219.15 1194.49 2216.9 1194.49 2214.77 1194.2 2212.76 1193.64 2210.75 1193.07 2208.83 1192.22 2207 1191.09 2208.29 1189.12 2209.32 1186.98 2210.08 1184.66 2210.84 1182.34 2211.23 1179.77 2211.24 1176.95 2211.27 1172.1 2210.16 1167.87 2207.92 1164.26 2205.68 1160.65 2202.16 1158.75 2197.37 1158.57 2192.95 1158.64 2189.54 1160.13 2187.14 1163.06 2184.74 1165.99 2183.53 1169.96 2183.5 1174.97 2183.83 1181.18 2186.16 1186.9 2190.47 1192.12 2194.79 1197.34 2199.1 1202.72 2203.41 1208.26 2207.72 1213.8 2210.04 1220.14 2210.36 1227.29 2210.36 1233.6 2208.88 1239.01 2205.91 1243.52 2202.95 1248.02 2198.5 1251.95 2192.57 1255.29L2193.13 1255.85C2204.04 1252.69 2214.58 1247.46 2224.77 1240.16 2234.96 1232.87 2244.4 1224.41 2253.08 1214.8 2261.76 1205.18 2269.3 1195.3 2275.68 1185.15L2277.66 1187.43C2268.47 1201.36 2258.35 1214.07 2247.28 1225.55 2236.22 1237.03 2223.33 1246.22 2208.62 1253.12 2193.91 1260.02 2176.49 1263.56 2156.37 1263.74 2144.66 1263.8 2135.06 1261.41 2127.57 1256.57 2121.95 1252.94 2118.37 1247.71 2116.82 1240.87L2116.31 1236.46 2109.06 1242.29C2102.75 1247 2096.49 1250.95 2090.26 1254.14 2077.8 1260.51 2064.11 1263.71 2049.2 1263.74 2036.29 1263.7 2026.44 1260.67 2019.64 1254.67 2012.85 1248.67 2009.42 1239.92 2009.37 1228.42 2009.57 1221.74 2010.87 1215.35 2013.28 1209.25L2015.41 1205.73 2011.96 1208.06C2004.93 1211.42 1995.98 1213.21 1985.11 1213.41 1975.83 1213.2 1968.54 1210.67 1963.25 1205.83 1957.96 1200.99 1955.26 1195.14 1955.16 1188.27 1955.15 1185.59 1955.32 1183.16 1955.66 1180.98 1956 1178.8 1956.59 1176.8 1957.42 1174.97L1957.42 1174.4C1949.59 1178.76 1941.2 1186.11 1932.26 1196.44 1923.32 1206.78 1915.06 1217.72 1907.47 1229.28 1899.89 1240.84 1894.2 1250.63 1890.41 1258.66L1852.52 1260.34 1909.64 1159.73 1950.36 1158.61 1907.1 1222.47 1907.66 1223.04C1918.04 1208.17 1927.68 1196.22 1936.61 1187.18 1945.53 1178.13 1953.41 1172.18 1960.25 1169.32 1963.54 1165.15 1966.69 1162 1969.68 1159.89 1972.67 1157.77 1977.21 1156.28 1983.31 1155.41 1989.41 1154.55 1998.78 1153.92 2011.4 1153.52ZM3006.94 1096.08C3012.54 1096.21 3017.18 1098.12 3020.85 1101.79 3024.52 1105.46 3026.43 1110.09 3026.56 1115.69 3026.43 1121.29 3024.52 1125.92 3020.85 1129.59 3017.18 1133.27 3012.54 1135.17 3006.94 1135.3 3001.35 1135.17 2996.71 1133.27 2993.04 1129.59 2989.37 1125.92 2987.46 1121.29 2987.33 1115.69 2987.46 1110.09 2989.37 1105.46 2993.04 1101.79 2996.71 1098.12 3001.35 1096.21 3006.94 1096.08ZM1905.48 1056.27C1921.74 1056.35 1937.93 1056.75 1954.04 1057.47 1970.16 1058.19 1983.66 1058.73 1994.55 1059.1 2003.82 1059.25 2010.58 1060.35 2014.84 1062.41 2019.09 1064.46 2021.19 1068.25 2021.13 1073.78 2021.17 1079.25 2018.47 1083.27 2013.03 1085.81 2007.6 1088.36 1999.17 1089.62 1987.76 1089.59 1982.04 1089.57 1976.74 1089.33 1971.86 1088.89 1966.98 1088.44 1962.1 1087.92 1957.23 1087.33 1940.83 1091.77 1926.47 1100.29 1914.14 1112.89 1901.81 1125.49 1889.78 1143.56 1878.05 1167.08 1868.55 1186.26 1857.56 1203.17 1845.1 1217.81 1832.65 1232.44 1818.08 1243.91 1801.41 1252.2 1784.74 1260.49 1765.33 1264.72 1743.19 1264.87 1728.09 1264.83 1715.46 1261.66 1705.31 1255.34 1695.17 1249.02 1689.89 1239.76 1689.49 1227.57 1689.65 1221.85 1691.67 1216.88 1695.57 1212.68 1699.46 1208.48 1704.31 1206.28 1710.11 1206.07 1715.06 1206.12 1719.22 1207.58 1722.61 1210.45 1726 1213.33 1727.77 1217.34 1727.91 1222.48 1727.89 1226.76 1726.8 1230.42 1724.66 1233.47 1722.52 1236.52 1719.46 1238.7 1715.48 1240.01 1716.75 1247.59 1719.93 1253.08 1725.02 1256.49 1730.11 1259.89 1736.26 1261.57 1743.47 1261.51 1760.3 1261.08 1774.53 1255.4 1786.17 1244.47 1797.8 1233.53 1808.24 1219.91 1817.48 1203.61 1826.72 1187.31 1836.17 1170.89 1845.82 1154.36 1857.98 1135 1872.6 1120.12 1889.68 1109.74 1906.76 1099.36 1925.41 1091.7 1945.63 1086.77L1945.63 1086.2C1936.98 1085.76 1926 1085.08 1912.69 1084.15 1899.38 1083.22 1881.33 1082.96 1858.54 1083.37 1851.28 1083.31 1841.66 1083.7 1829.68 1084.55 1817.7 1085.4 1804.9 1087.07 1791.26 1089.56 1777.62 1092.05 1764.68 1095.73 1752.45 1100.6 1740.21 1105.46 1730.2 1111.89 1722.43 1119.86 1714.65 1127.84 1710.64 1137.73 1710.38 1149.55 1710.55 1156.97 1712.95 1162.96 1717.59 1167.54 1722.23 1172.12 1728.11 1175.46 1735.23 1177.56 1742.35 1179.65 1749.72 1180.69 1757.33 1180.66 1768.04 1180.52 1778.46 1178.09 1788.59 1173.37 1798.72 1168.64 1807.11 1162.44 1813.75 1154.76 1820.4 1147.09 1823.84 1138.75 1824.08 1129.75 1824.08 1126.58 1823.73 1123.24 1823.06 1119.71 1822.38 1116.19 1821.4 1112.84 1820.12 1109.67L1823.23 1108.82C1824.39 1111.72 1825.38 1115.26 1826.18 1119.46 1826.99 1123.67 1827.41 1127.28 1827.44 1130.32 1827.21 1143.04 1823.59 1154.23 1816.6 1163.87 1809.6 1173.51 1800.63 1181.04 1789.67 1186.47 1778.72 1191.9 1767.18 1194.66 1755.07 1194.76 1747.16 1194.76 1739.47 1193.09 1732.01 1189.76 1724.55 1186.43 1718.37 1181.41 1713.49 1174.72 1708.6 1168.02 1706.07 1159.63 1705.89 1149.55 1706.18 1131.12 1714.71 1114.94 1731.5 1100.98 1748.29 1087.03 1771.61 1076.12 1801.47 1068.26 1831.32 1060.4 1865.99 1056.4 1905.48 1056.27ZM2609.25 1055.14 2611.5 1058.5C2595.68 1066.94 2583.44 1077.98 2574.77 1091.59 2566.1 1105.21 2558.72 1120.35 2552.63 1137 2546.54 1153.66 2539.46 1170.76 2531.39 1188.31 2523.32 1205.86 2511.97 1222.78 2497.34 1239.09L2497.9 1239.65C2507.04 1231.5 2515.82 1223.03 2524.23 1214.23 2532.64 1205.44 2541.95 1194.74 2552.17 1182.14 2562.39 1169.55 2574.78 1153.47 2589.34 1133.91 2605.62 1111.48 2623.96 1093.32 2644.38 1079.41 2664.8 1065.51 2688.05 1058.35 2714.15 1057.94 2720.92 1057.92 2725.68 1058.38 2728.42 1059.34 2731.16 1060.29 2732.48 1061.87 2732.38 1064.08 2732.33 1065.25 2731.52 1066.27 2729.93 1067.16 2728.34 1068.05 2726.26 1068.52 2723.69 1068.56 2720.65 1068.55 2718.03 1068.37 2715.83 1068.04 2713.63 1067.7 2711.58 1067.32 2709.66 1066.88 2708.32 1066.56 2706.52 1066.21 2704.26 1065.83 2702.01 1065.44 2699.79 1065.23 2697.6 1065.2 2690.88 1065.39 2683.01 1071.25 2674.01 1082.76 2665 1094.28 2656.51 1110.3 2648.52 1130.83 2640.57 1152.44 2632.44 1171.29 2624.14 1187.36 2615.83 1203.43 2605.69 1217.16 2593.71 1228.56 2581.73 1239.95 2566.25 1249.45 2547.27 1257.04L2547.27 1257.6 2547.83 1257.6C2558.35 1257.63 2569 1256.72 2579.8 1254.86 2590.6 1253.01 2600.7 1249.99 2610.09 1245.82 2619.86 1241.52 2629.56 1234.63 2639.19 1225.17L2640.33 1223.96 2642.11 1213.33C2643.92 1207.72 2646.61 1202.1 2650.18 1196.46 2657.31 1185.18 2667.25 1175.71 2680 1168.05 2692.75 1160.39 2707.6 1156.4 2724.55 1156.09 2731.8 1156.22 2737.36 1158.06 2741.23 1161.61 2745.11 1165.16 2747.58 1169.67 2748.65 1175.13L2749.21 1175.13 2756.5 1160.57 2796.33 1159.45C2791.91 1165.99 2785.76 1174.89 2777.88 1186.16 2770 1197.43 2762.79 1208.81 2756.25 1220.3 2749.71 1231.79 2746.24 1241.14 2745.84 1248.34 2745.87 1251.01 2746.45 1253.04 2747.6 1254.41 2748.74 1255.78 2750.31 1256.47 2752.29 1256.48 2757.61 1256.31 2764.09 1253.09 2771.74 1246.81 2775.56 1243.66 2779.57 1240 2783.74 1235.83L2787.25 1232.03 2827.82 1160.57 2868.21 1159.45 2825.3 1222.8 2825.86 1223.36C2836.15 1208.62 2845.72 1196.76 2854.57 1187.79 2863.43 1178.82 2871.24 1172.92 2878.02 1170.08 2881.29 1165.94 2884.41 1162.82 2887.37 1160.72 2890.34 1158.62 2894.85 1157.14 2900.9 1156.29 2906.95 1155.43 2916.24 1154.81 2928.76 1154.41 2924.15 1159.02 2919.84 1164.55 2915.82 1171 2911.81 1177.45 2909.67 1183.97 2909.41 1190.56 2909.38 1194.67 2910.35 1198.32 2912.32 1201.51 2914.28 1204.7 2917.43 1206.39 2921.75 1206.56 2924.66 1206.43 2927.5 1205.81 2930.27 1204.71L2938.23 1200.01 2939.89 1197.05C2945.93 1186.43 2953.13 1174.27 2961.5 1160.57L3001.62 1159.45C2993.43 1172.28 2985.71 1184.47 2978.46 1196.03 2971.21 1207.59 2965.29 1217.82 2960.72 1226.7 2956.14 1235.59 2953.78 1242.43 2953.64 1247.22 2953.61 1249.94 2954.09 1252.15 2955.07 1253.85 2956.06 1255.55 2957.74 1256.43 2960.09 1256.48 2965.75 1256.24 2972.05 1253.38 2979.02 1247.89 2985.98 1242.39 2992.95 1235.67 2999.93 1227.73L3006.11 1220.14 3007.25 1213.33C3009.06 1207.72 3011.75 1202.1 3015.32 1196.46 3022.46 1185.18 3032.4 1175.71 3045.15 1168.05 3057.89 1160.39 3072.74 1156.4 3089.7 1156.09 3096.95 1156.22 3102.51 1158.06 3106.38 1161.61 3110.25 1165.16 3112.72 1169.67 3113.79 1175.13L3114.35 1175.13 3121.65 1160.57 3161.47 1159.45C3157.05 1165.99 3150.9 1174.89 3143.02 1186.16 3135.14 1197.43 3127.93 1208.81 3121.4 1220.3 3114.86 1231.79 3111.39 1241.14 3110.99 1248.34 3111.01 1251.01 3111.59 1253.04 3112.74 1254.41 3113.88 1255.78 3115.45 1256.47 3117.44 1256.48 3122.75 1256.31 3129.23 1253.09 3136.88 1246.81L3144.34 1239.98 3143.6 1233.73C3143.8 1226.8 3146 1221.35 3150.22 1217.39 3154.44 1213.43 3159.51 1211.41 3165.45 1211.33L3170.05 1212.03 3175.69 1205.28 3182.61 1196.41 3180.35 1190.56C3180.44 1181.27 3184.53 1173.28 3192.61 1166.59 3200.69 1159.9 3212.21 1156.4 3227.17 1156.09 3238.15 1156.12 3246.97 1157.95 3253.63 1161.58 3260.29 1165.21 3263.71 1170.47 3263.89 1177.37 3263.76 1182.65 3262 1186.89 3258.61 1190.1 3255.22 1193.31 3251 1194.96 3245.97 1195.04 3243.73 1195.04 3241.62 1194.76 3239.63 1194.2 3237.64 1193.64 3235.73 1192.8 3233.91 1191.68 3235.19 1189.73 3236.21 1187.6 3236.97 1185.3 3237.72 1182.99 3238.11 1180.45 3238.12 1177.65 3238.15 1172.84 3237.05 1168.65 3234.82 1165.06 3232.6 1161.48 3229.11 1159.6 3224.36 1159.42 3219.98 1159.48 3216.6 1160.97 3214.22 1163.87 3211.84 1166.78 3210.63 1170.72 3210.6 1175.69 3210.93 1181.85 3213.24 1187.52 3217.52 1192.7 3221.8 1197.88 3226.08 1203.21 3230.35 1208.71 3234.63 1214.2 3236.93 1220.49 3237.25 1227.58 3237.25 1233.84 3235.78 1239.21 3232.83 1243.68 3229.89 1248.15 3225.48 1252.04 3219.6 1255.36L3220.16 1255.92C3230.97 1252.78 3241.44 1247.59 3251.54 1240.35 3261.65 1233.12 3271.01 1224.73 3279.62 1215.19 3288.24 1205.65 3295.71 1195.85 3302.04 1185.79L3304 1188.04C3294.89 1201.86 3284.85 1214.47 3273.87 1225.86 3262.9 1237.25 3250.11 1246.36 3235.52 1253.21 3220.93 1260.05 3203.65 1263.56 3183.7 1263.74 3172.08 1263.8 3162.55 1261.43 3155.12 1256.63 3151.41 1254.23 3148.59 1251.12 3146.67 1247.3L3145.23 1243.21 3134.35 1252.72C3125.01 1259.84 3115.54 1263.52 3105.94 1263.74 3097.7 1263.56 3091.78 1261.79 3088.2 1258.42 3084.62 1255.04 3082.44 1251.09 3081.66 1246.56 3080.89 1242.03 3080.58 1237.95 3080.73 1234.32L3079.89 1233.76C3073.96 1241.14 3066.94 1247.89 3058.8 1254.01 3050.67 1260.12 3041.61 1263.36 3031.62 1263.74 3022.77 1263.81 3016.03 1261.15 3011.41 1255.76 3006.79 1250.37 3004.47 1241.82 3004.44 1230.11L3005.36 1224.62 2994.89 1236.84C2986.4 1245.7 2978.42 1252.39 2970.97 1256.92 2963.52 1261.45 2955.41 1263.72 2946.63 1263.74 2939.04 1263.66 2933.28 1261.43 2929.33 1257.06 2925.39 1252.68 2923.4 1246.59 2923.38 1238.81 2923.6 1230.48 2927.22 1219.92 2934.24 1207.15L2936 1204 2929.32 1208.51C2922.34 1211.85 2913.46 1213.62 2902.68 1213.82 2893.48 1213.61 2886.25 1211.1 2881 1206.3 2875.75 1201.5 2873.08 1195.69 2872.98 1188.88 2872.97 1186.22 2873.13 1183.81 2873.47 1181.65 2873.81 1179.49 2874.39 1177.5 2875.22 1175.68L2875.22 1175.12C2867.45 1179.45 2859.13 1186.73 2850.26 1196.98 2841.39 1207.24 2833.2 1218.09 2825.67 1229.56 2818.15 1241.02 2812.51 1250.74 2808.75 1258.7L2771.17 1260.37 2781.73 1241.77 2769.21 1252.72C2759.87 1259.84 2750.4 1263.52 2740.8 1263.74 2732.55 1263.56 2726.64 1261.79 2723.06 1258.42 2719.48 1255.04 2717.3 1251.09 2716.52 1246.56 2715.74 1242.03 2715.43 1237.95 2715.59 1234.32L2714.74 1233.76C2708.82 1241.14 2701.79 1247.89 2693.66 1254.01 2685.52 1260.12 2676.46 1263.36 2666.48 1263.74 2657.62 1263.81 2650.89 1261.15 2646.27 1255.76 2641.65 1250.37 2639.33 1241.82 2639.3 1230.11L2639.57 1228.51 2634.16 1233.85C2629.81 1237.56 2625.34 1240.8 2620.75 1243.58 2611.43 1249.07 2601.84 1253.01 2591.98 1255.39 2582.12 1257.78 2572.94 1259.23 2564.45 1259.75 2555.96 1260.27 2549.11 1260.48 2543.9 1260.38 2540.64 1260.48 2537.35 1260.85 2534.01 1261.5 2530.68 1262.15 2525.85 1262.52 2519.5 1262.61 2516.68 1262.62 2514.53 1262.26 2513.05 1261.53 2511.57 1260.81 2510.82 1259.68 2510.81 1258.16 2510.81 1256.6 2511.43 1255.37 2512.66 1254.48 2513.9 1253.59 2515.71 1253.13 2518.1 1253.11 2521.54 1253.28 2525.45 1253.93 2529.84 1255.08 2534.23 1256.22 2537.8 1256.88 2540.54 1257.04 2547.02 1256.7 2553.21 1251.39 2559.09 1241.12 2564.97 1230.85 2571.34 1217.68 2578.19 1201.59 2585.03 1185.51 2593.15 1168.57 2602.53 1150.78 2611.91 1132.99 2623.35 1116.4 2636.84 1101.02 2650.33 1085.63 2666.66 1073.51 2685.82 1064.64L2685.26 1064.08C2665.74 1069.38 2647.91 1079.04 2631.76 1093.07 2615.61 1107.1 2600.44 1123.99 2586.25 1143.73 2576.59 1157.12 2565.35 1171.75 2552.52 1187.63 2539.7 1203.5 2526.07 1218.23 2511.63 1231.83 2497.18 1245.42 2482.7 1255.5 2468.17 1262.06L2464.81 1261.21C2472.76 1246.65 2479.65 1230.61 2485.48 1213.1 2491.31 1195.58 2498.04 1177.79 2505.65 1159.71 2513.27 1141.64 2523.73 1124.47 2537.03 1108.21 2550.33 1091.96 2568.42 1077.81 2591.3 1065.76L2590.74 1065.2C2570.29 1073.29 2552.35 1084.16 2536.91 1097.82 2521.47 1111.47 2508.37 1125.38 2497.6 1139.53 2486.84 1153.69 2478.24 1165.56 2471.82 1175.14 2459.77 1192.65 2448.4 1207.93 2437.72 1221.01 2427.03 1234.08 2415.83 1244.25 2404.11 1251.53 2392.4 1258.8 2378.97 1262.5 2363.84 1262.61 2353.13 1262.57 2344 1259.65 2336.45 1253.83 2328.89 1248.02 2324.94 1239.55 2324.61 1228.43 2324.69 1222.64 2326.48 1217.68 2329.97 1213.57 2333.45 1209.45 2338.11 1207.3 2343.94 1207.12 2348.94 1207.17 2353.02 1208.68 2356.16 1211.64 2359.31 1214.6 2360.93 1218.7 2361.03 1223.94 2361 1227.96 2359.88 1231.36 2357.67 1234.15 2355.46 1236.93 2352.38 1238.58 2348.42 1239.09 2349.17 1245.36 2351.32 1249.93 2354.87 1252.8 2358.42 1255.67 2363.09 1257.08 2368.89 1257.04 2382.6 1256.83 2395.59 1252.14 2407.84 1242.97 2420.09 1233.81 2432.33 1221.43 2444.55 1205.85 2456.77 1190.26 2469.7 1172.74 2483.32 1153.27 2499.54 1129.96 2517.65 1109.89 2537.66 1093.04 2557.67 1076.19 2581.53 1063.56 2609.25 1055.14ZM1645.81 833.331C1668.94 836.31 1690.47 859.736 1689.46 918.177 1687.98 1002.69 1537.69 1235.96 1192.48 1391.22 1158.68 1422.44 1115 1456.88 1108.32 1428.36 1101.64 1399.84 1152.54 1377.77 1176.45 1375.08 1285.06 1275.25 1410.01 1008.86 1323.94 949.929 1286.04 923.975 1099.02 1024.29 1131.56 1175.96 1159.91 1308.08 1328.75 1106.8 1258.21 1023.12 1344.87 1078.1 1253.28 1227.37 1168.44 1232.47 1083.59 1237.56 1046.77 1098.33 1208.51 966.612 1357.47 845.305 1626.13 990.83 1214.93 1362.16 1417.46 1252.92 1608.23 1131.83 1614.11 921.406 1564.34 880.203 1607.28 828.366 1645.81 833.331Z" fill="#FFFFFF" fill-rule="evenodd"/>
  </g>
</svg>